<?xml version="1.0" encoding="UTF-8"?>
<svg xmlns="http://www.w3.org/2000/svg" xmlns:xlink="http://www.w3.org/1999/xlink" viewBox="0 0 200 200" width="200px" height="200px">
<g id="surface90134593">
<path style=" stroke:none;fill-rule:nonzero;fill:rgb(94.509804%,73.725492%,9.803922%);fill-opacity:1;" d="M 156 26 C 156 27.105469 155.105469 28 154 28 C 152.894531 28 152 27.105469 152 26 C 152 24.894531 152.894531 24 154 24 C 155.105469 24 156 24.894531 156 26 Z M 156 26 "/>
<path style=" stroke:none;fill-rule:nonzero;fill:rgb(80.784315%,88.235295%,95.686275%);fill-opacity:1;" d="M 174 100 C 174 140.867188 140.867188 174 100 174 C 59.132812 174 26 140.867188 26 100 C 26 59.132812 59.132812 26 100 26 C 140.867188 26 174 59.132812 174 100 Z M 174 100 "/>
<path style=" stroke:none;fill-rule:nonzero;fill:rgb(94.509804%,73.725492%,9.803922%);fill-opacity:1;" d="M 174 30 C 174 34.417969 170.417969 38 166 38 C 161.582031 38 158 34.417969 158 30 C 158 25.582031 161.582031 22 166 22 C 170.417969 22 174 25.582031 174 30 Z M 174 30 "/>
<path style=" stroke:none;fill-rule:nonzero;fill:rgb(62.352943%,50.196081%,40.000001%);fill-opacity:1;" d="M 178 48 C 178 50.210938 176.210938 52 174 52 C 171.789062 52 170 50.210938 170 48 C 170 45.789062 171.789062 44 174 44 C 176.210938 44 178 45.789062 178 48 Z M 178 48 "/>
<path style=" stroke:none;fill-rule:nonzero;fill:rgb(98.431373%,80.392158%,34.901962%);fill-opacity:1;" d="M 166 152 C 166 154.210938 164.210938 156 162 156 C 159.789062 156 158 154.210938 158 152 C 158 149.789062 159.789062 148 162 148 C 164.210938 148 166 149.789062 166 152 Z M 166 152 "/>
<path style=" stroke:none;fill-rule:nonzero;fill:rgb(98.431373%,80.392158%,34.901962%);fill-opacity:1;" d="M 36 128 C 36 132.417969 34.417969 136 30 136 C 25.582031 136 22 132.417969 22 128 C 22 123.582031 25.582031 120 30 120 C 34.417969 120 36 123.582031 36 128 Z M 36 128 "/>
<path style=" stroke:none;fill-rule:nonzero;fill:rgb(62.352943%,50.196081%,40.000001%);fill-opacity:1;" d="M 54 174 C 54 176.210938 52.210938 178 50 178 C 47.789062 178 46 176.210938 46 174 C 46 171.789062 47.789062 170 50 170 C 52.210938 170 54 171.789062 54 174 Z M 54 174 "/>
<path style=" stroke:none;fill-rule:nonzero;fill:rgb(100%,100%,100%);fill-opacity:1;" d="M 46 105 C 46 107.761719 43.761719 110 41 110 C 38.238281 110 36 107.761719 36 105 C 36 102.238281 38.238281 100 41 100 C 43.761719 100 46 102.238281 46 105 Z M 46 105 "/>
<path style=" stroke:none;fill-rule:nonzero;fill:rgb(100%,100%,100%);fill-opacity:1;" d="M 162 81 C 162 82.65625 160.65625 84 159 84 C 157.34375 84 156 82.65625 156 81 C 156 79.34375 157.34375 78 159 78 C 160.65625 78 162 79.34375 162 81 Z M 162 81 "/>
<path style=" stroke:none;fill-rule:nonzero;fill:rgb(88.235295%,87.843138%,84.705883%);fill-opacity:1;" d="M 62.71875 84.601562 C 55.476562 84.601562 49.347656 80.488281 46.71875 73.871094 C 44.359375 67.929688 44.625 58.949219 52.425781 51.523438 C 52.421875 51.546875 52.414062 51.570312 52.40625 51.597656 C 50.628906 57.539062 51.230469 63.316406 54.011719 67.054688 C 56.128906 69.898438 59.375 71.398438 63.390625 71.398438 L 78.652344 71.398438 L 81.953125 84.601562 Z M 62.71875 84.601562 "/>
<path style=" stroke:none;fill-rule:nonzero;fill:rgb(27.843139%,16.862746%,16.078432%);fill-opacity:1;" d="M 50.074219 56.457031 C 49.730469 60.878906 50.699219 64.945312 52.890625 67.890625 C 54.558594 70.128906 57.734375 72.800781 63.394531 72.800781 L 77.566406 72.800781 L 80.164062 83.199219 L 62.71875 83.199219 C 55.964844 83.199219 50.46875 79.519531 48.023438 73.355469 C 46.230469 68.847656 46.082031 62.4375 50.074219 56.457031 M 52.503906 50.007812 C 52.191406 50.007812 51.863281 50.132812 51.5625 50.414062 C 37.015625 64.132812 45 86 62.71875 86 L 83.75 86 L 79.75 70 L 63.390625 70 C 53.761719 70 51.160156 60.65625 53.75 52 C 54.070312 50.921875 53.351562 50.007812 52.503906 50.007812 Z M 52.503906 50.007812 "/>
<path style=" stroke:none;fill-rule:nonzero;fill:rgb(88.235295%,87.843138%,84.705883%);fill-opacity:1;" d="M 118.304688 84.601562 L 121.605469 71.398438 L 136.871094 71.398438 C 140.890625 71.398438 144.132812 69.894531 146.25 67.054688 C 149.03125 63.316406 149.628906 57.542969 147.855469 51.601562 C 147.8125 51.464844 147.847656 51.394531 147.859375 51.378906 C 155.632812 58.878906 155.910156 67.90625 153.542969 73.875 C 150.914062 80.488281 144.785156 84.601562 137.542969 84.601562 Z M 118.304688 84.601562 "/>
<path style=" stroke:none;fill-rule:nonzero;fill:rgb(27.843139%,16.862746%,16.078432%);fill-opacity:1;" d="M 150.191406 56.457031 C 154.183594 62.441406 154.035156 68.847656 152.242188 73.359375 C 149.792969 79.519531 144.300781 83.199219 137.546875 83.199219 L 120.101562 83.199219 L 122.699219 72.800781 L 136.871094 72.800781 C 142.53125 72.800781 145.707031 70.128906 147.375 67.890625 C 149.566406 64.941406 150.535156 60.878906 150.191406 56.457031 M 147.761719 50.007812 C 146.910156 50.007812 146.191406 50.921875 146.515625 52 C 149.105469 60.65625 146.503906 70 136.871094 70 L 120.515625 70 L 116.515625 86 L 137.546875 86 C 155.265625 86 163.253906 64.132812 148.703125 50.414062 C 148.402344 50.128906 148.070312 50.007812 147.761719 50.007812 Z M 147.761719 50.007812 "/>
<path style=" stroke:none;fill-rule:nonzero;fill:rgb(74.117649%,59.215689%,48.627451%);fill-opacity:1;" d="M 151.8125 91.019531 C 146.3125 90.574219 144.058594 89.792969 135.957031 91.054688 C 135.511719 83.464844 128.925781 68.710938 121.855469 67.523438 C 108.378906 65.515625 89.789062 65.472656 78.140625 67.523438 C 70.273438 69.660156 64.496094 83.367188 64.042969 90.925781 C 56.277344 89.839844 53.910156 90.589844 48.367188 91.019531 C 42.8125 92.027344 43.015625 94.058594 46.402344 98.257812 C 48.480469 100.835938 55.40625 105.109375 60.347656 106.949219 C 63.179688 108.007812 65.835938 107.527344 67.609375 106.933594 C 71.796875 116.367188 78.140625 127.226562 78.140625 140.277344 L 78.140625 150.011719 C 78.140625 157.3125 89.570312 162.179688 99 162.179688 C 108.429688 162.179688 121.859375 157.3125 121.859375 150.011719 L 121.859375 140.277344 C 121.859375 127.074219 128.351562 116.167969 132.539062 106.609375 C 134.140625 107.308594 137.121094 108.199219 140.339844 106.949219 C 145.074219 105.109375 151.707031 100.828125 153.699219 98.257812 C 156.945312 94.058594 157.132812 92.027344 151.8125 91.019531 Z M 151.8125 91.019531 "/>
<path style=" stroke:none;fill-rule:nonzero;fill:rgb(62.352943%,50.196081%,40.000001%);fill-opacity:1;" d="M 65.613281 86.355469 C 65.074219 88.386719 64.75 90.269531 64.75 91.730469 C 64.75 108.382812 78.984375 120.078125 78.984375 139.113281 L 78.984375 148.628906 C 78.984375 155.765625 90.511719 160.523438 100 160.523438 L 100 142.144531 L 86.101562 142.144531 L 84.117188 103.519531 C 83.875 99.023438 81.324219 94.941406 77.324219 92.644531 L 66.230469 86.273438 Z M 65.613281 86.355469 "/>
<path style=" stroke:none;fill-rule:nonzero;fill:rgb(62.352943%,50.196081%,40.000001%);fill-opacity:1;" d="M 119.25 95.15625 C 119.5625 94.808594 119.898438 94.476562 120.25 94.160156 C 120.929688 93.554688 121.679688 93.007812 122.488281 92.539062 L 133.304688 86.269531 L 133.910156 86.355469 C 134.433594 88.355469 134.75 90.207031 134.75 91.644531 C 134.75 108.027344 120.875 119.570312 120.875 138.296875 L 120.875 147.65625 C 120.875 154.679688 107.503906 159.359375 98.25 159.359375 L 98.25 141.28125 L 113.933594 141.28125 L 115.867188 103.238281 C 116.003906 100.6875 116.886719 98.273438 118.359375 96.253906 C 118.636719 95.871094 118.933594 95.507812 119.25 95.15625 "/>
<path style=" stroke:none;fill-rule:nonzero;fill:rgb(62.352943%,50.196081%,40.000001%);fill-opacity:1;" d="M 49.785156 92.085938 C 54.898438 91.691406 56.890625 90.976562 64.738281 92.207031 C 78.308594 94.328125 68.320312 105.046875 68.320312 105.046875 C 68.320312 105.046875 64.4375 107.476562 60.15625 105.882812 C 55.878906 104.289062 49.882812 100.585938 48.082031 98.355469 C 45.148438 94.71875 44.972656 92.957031 49.785156 92.085938 Z M 49.785156 92.085938 "/>
<path style=" stroke:none;fill-rule:nonzero;fill:rgb(62.352943%,50.196081%,40.000001%);fill-opacity:1;" d="M 150.398438 92.128906 C 145.535156 91.738281 143.636719 91.03125 136.167969 92.253906 C 123.257812 94.363281 132.761719 105.007812 132.761719 105.007812 C 132.761719 105.007812 136.457031 107.417969 140.527344 105.835938 C 144.601562 104.253906 150.308594 100.574219 152.019531 98.359375 C 154.8125 94.746094 154.976562 92.996094 150.398438 92.128906 Z M 150.398438 92.128906 "/>
<path style=" stroke:none;fill-rule:nonzero;fill:rgb(27.843139%,16.862746%,16.078432%);fill-opacity:1;" d="M 72.019531 98.199219 C 72.019531 98.199219 82 98.199219 82 107.398438 C 77.011719 107.398438 72.019531 107.398438 72.019531 98.199219 Z M 72.019531 98.199219 "/>
<path style=" stroke:none;fill-rule:nonzero;fill:rgb(27.843139%,16.862746%,16.078432%);fill-opacity:1;" d="M 127.21875 98.199219 C 127.21875 98.199219 118.019531 98.199219 118.019531 107.398438 C 122.617188 107.398438 127.21875 107.398438 127.21875 98.199219 Z M 127.21875 98.199219 "/>
<path style=" stroke:none;fill-rule:nonzero;fill:rgb(96.470588%,80.000001%,64.313728%);fill-opacity:1;" d="M 114.816406 136.328125 C 111.511719 134.683594 103.917969 133.980469 99.316406 133.980469 C 94.71875 133.980469 89.125 134.683594 85.816406 136.328125 C 81.21875 138.679688 78.917969 150.429688 83.519531 155.128906 C 87.871094 158.132812 94.457031 159.785156 99.316406 159.828125 C 104.179688 159.785156 112.765625 158.132812 117.117188 155.128906 C 121.71875 150.429688 119.417969 138.679688 114.816406 136.328125 Z M 114.816406 136.328125 "/>
<path style=" stroke:none;fill-rule:nonzero;fill:rgb(27.843139%,16.862746%,16.078432%);fill-opacity:1;" d="M 99.195312 68.800781 C 107.089844 68.800781 114.992188 69.328125 121.390625 70.28125 C 126.324219 71.109375 132.714844 83.65625 133.160156 91.214844 C 133.207031 92.003906 133.582031 92.734375 134.195312 93.230469 C 134.699219 93.636719 135.316406 93.851562 135.953125 93.851562 C 136.097656 93.851562 136.242188 93.84375 136.382812 93.816406 C 139.238281 93.375 141.5 93.164062 143.5 93.164062 C 145.261719 93.164062 146.746094 93.324219 148.46875 93.507812 C 149.378906 93.601562 150.34375 93.703125 151.429688 93.792969 C 152.21875 93.949219 152.71875 94.105469 153.023438 94.226562 C 152.824219 94.640625 152.394531 95.359375 151.480469 96.542969 C 149.984375 98.476562 143.960938 102.535156 139.320312 104.339844 C 138.574219 104.628906 137.78125 104.773438 136.96875 104.773438 C 135.617188 104.773438 134.421875 104.375 133.65625 104.042969 C 133.292969 103.882812 132.910156 103.804688 132.535156 103.804688 C 131.457031 103.804688 130.429688 104.433594 129.96875 105.484375 C 129.226562 107.183594 128.410156 108.914062 127.550781 110.75 C 123.566406 119.230469 119.050781 128.839844 119.050781 140.273438 L 119.050781 150.011719 C 119.050781 154.835938 107.753906 159.378906 98.992188 159.378906 C 90.816406 159.378906 80.9375 155.199219 80.9375 150.011719 L 80.9375 140.273438 C 80.9375 128.78125 76.390625 119.121094 72.382812 110.601562 C 71.609375 108.957031 70.855469 107.355469 70.160156 105.792969 C 69.703125 104.757812 68.683594 104.128906 67.601562 104.128906 C 67.304688 104.128906 67.007812 104.179688 66.710938 104.277344 C 65.730469 104.605469 64.765625 104.773438 63.835938 104.773438 C 62.960938 104.773438 62.117188 104.621094 61.316406 104.324219 C 56.457031 102.511719 50.140625 98.4375 48.574219 96.496094 C 47.660156 95.367188 47.214844 94.660156 46.996094 94.246094 C 47.328125 94.117188 47.875 93.953125 48.726562 93.792969 C 49.871094 93.703125 50.886719 93.601562 51.84375 93.503906 C 53.640625 93.316406 55.195312 93.160156 57.042969 93.160156 C 58.949219 93.160156 61.046875 93.328125 63.648438 93.691406 C 63.777344 93.710938 63.90625 93.71875 64.035156 93.71875 C 64.679688 93.71875 65.304688 93.496094 65.808594 93.085938 C 66.414062 92.589844 66.785156 91.867188 66.828125 91.085938 C 67.253906 84.066406 72.746094 72.015625 78.757812 70.25 C 84.171875 69.316406 91.421875 68.800781 99.195312 68.800781 M 99.195312 66 C 91.449219 66 83.9375 66.503906 78.140625 67.519531 C 70.273438 69.660156 64.496094 83.367188 64.042969 90.921875 C 61.089844 90.511719 58.914062 90.363281 57.050781 90.363281 C 54.019531 90.363281 51.800781 90.753906 48.371094 91.019531 C 42.816406 92.027344 43.015625 94.058594 46.402344 98.257812 C 48.480469 100.835938 55.40625 105.109375 60.347656 106.949219 C 61.5625 107.402344 62.746094 107.574219 63.84375 107.574219 C 65.300781 107.574219 66.597656 107.273438 67.609375 106.933594 C 71.800781 116.367188 78.144531 127.226562 78.144531 140.277344 L 78.144531 150.011719 C 78.144531 157.3125 89.570312 162.179688 99.003906 162.179688 C 108.429688 162.179688 121.859375 157.3125 121.859375 150.011719 L 121.859375 140.277344 C 121.859375 127.074219 128.355469 116.167969 132.542969 106.609375 C 133.558594 107.054688 135.136719 107.578125 136.972656 107.578125 C 138.027344 107.578125 139.167969 107.40625 140.34375 106.953125 C 145.074219 105.113281 151.710938 100.835938 153.703125 98.261719 C 156.949219 94.0625 157.136719 92.03125 151.816406 91.019531 C 148.535156 90.757812 146.410156 90.371094 143.507812 90.371094 C 141.542969 90.371094 139.226562 90.546875 135.960938 91.054688 C 135.515625 83.464844 128.929688 68.710938 121.859375 67.523438 C 115.085938 66.511719 107.019531 66 99.195312 66 Z M 99.195312 66 "/>
<path style=" stroke:none;fill-rule:nonzero;fill:rgb(62.352943%,50.196081%,40.000001%);fill-opacity:1;" d="M 90.042969 142.375 L 92.214844 143.179688 C 93.726562 143.738281 94.40625 145.144531 93.75 146.363281 L 93.570312 146.695312 C 92.984375 147.777344 91.507812 148.375 90.054688 148.121094 L 88.425781 147.832031 C 86.773438 147.542969 85.722656 146.257812 86.066406 144.945312 L 86.355469 143.839844 C 86.699219 142.527344 88.503906 141.808594 90.042969 142.375 Z M 90.042969 142.375 "/>
<path style=" stroke:none;fill-rule:nonzero;fill:rgb(62.352943%,50.196081%,40.000001%);fill-opacity:1;" d="M 109.957031 142.375 L 107.785156 143.179688 C 106.273438 143.738281 105.59375 145.144531 106.25 146.363281 L 106.429688 146.695312 C 107.015625 147.777344 108.492188 148.375 109.945312 148.121094 L 111.574219 147.832031 C 113.226562 147.542969 114.277344 146.257812 113.933594 144.945312 L 113.644531 143.839844 C 113.300781 142.527344 111.496094 141.808594 109.957031 142.375 Z M 109.957031 142.375 "/>
<path style=" stroke:none;fill-rule:nonzero;fill:rgb(27.843139%,16.862746%,16.078432%);fill-opacity:1;" d="M 68 102.25 C 67.8125 102.25 67.632812 102.144531 67.546875 101.960938 C 66.757812 100.28125 64.757812 98.917969 61.597656 97.902344 C 61.335938 97.820312 61.191406 97.539062 61.273438 97.277344 C 61.359375 97.015625 61.640625 96.867188 61.902344 96.953125 C 65.335938 98.054688 67.539062 99.597656 68.453125 101.535156 C 68.570312 101.785156 68.460938 102.085938 68.210938 102.203125 C 68.144531 102.234375 68.070312 102.25 68 102.25 Z M 68 102.25 "/>
<path style=" stroke:none;fill-rule:nonzero;fill:rgb(27.843139%,16.862746%,16.078432%);fill-opacity:1;" d="M 58.5 97.105469 C 58.46875 97.105469 58.433594 97.101562 58.402344 97.09375 C 56.429688 96.703125 54.777344 96.554688 53.964844 96.5 C 53.691406 96.480469 53.480469 96.242188 53.5 95.96875 C 53.519531 95.691406 53.777344 95.480469 54.03125 95.503906 C 54.867188 95.558594 56.566406 95.710938 58.597656 96.113281 C 58.867188 96.167969 59.042969 96.429688 58.988281 96.703125 C 58.945312 96.9375 58.734375 97.105469 58.5 97.105469 Z M 58.5 97.105469 "/>
<path style=" stroke:none;fill-rule:nonzero;fill:rgb(27.843139%,16.862746%,16.078432%);fill-opacity:1;" d="M 133.25 102.25 C 133.179688 102.25 133.105469 102.234375 133.039062 102.203125 C 132.789062 102.085938 132.679688 101.785156 132.796875 101.535156 C 133.261719 100.546875 134.078125 99.648438 135.21875 98.871094 C 135.445312 98.714844 135.757812 98.773438 135.914062 99 C 136.070312 99.226562 136.011719 99.539062 135.785156 99.695312 C 134.792969 100.375 134.09375 101.136719 133.703125 101.960938 C 133.617188 102.144531 133.4375 102.25 133.25 102.25 Z M 133.25 102.25 "/>
<path style=" stroke:none;fill-rule:nonzero;fill:rgb(27.843139%,16.862746%,16.078432%);fill-opacity:1;" d="M 138 98.472656 C 137.800781 98.472656 137.617188 98.355469 137.539062 98.160156 C 137.433594 97.902344 137.554688 97.613281 137.8125 97.507812 C 141.558594 95.980469 145.957031 95.585938 147.21875 95.5 C 147.484375 95.480469 147.730469 95.691406 147.75 95.964844 C 147.769531 96.242188 147.558594 96.480469 147.285156 96.496094 C 146.0625 96.578125 141.796875 96.960938 138.191406 98.433594 C 138.125 98.460938 138.0625 98.472656 138 98.472656 Z M 138 98.472656 "/>
<path style=" stroke:none;fill-rule:nonzero;fill:rgb(27.843139%,16.862746%,16.078432%);fill-opacity:1;" d="M 90.171875 148.464844 C 89.90625 148.464844 89.65625 148.453125 89.441406 148.425781 C 89.167969 148.394531 88.972656 148.144531 89.003906 147.871094 C 89.035156 147.597656 89.28125 147.398438 89.554688 147.433594 C 89.59375 147.4375 93.0625 147.800781 93.511719 145.578125 C 93.632812 144.957031 93.515625 144.433594 93.140625 143.980469 C 92.40625 143.085938 90.867188 142.679688 89.75 142.679688 C 87.78125 142.679688 86.746094 143.492188 86.496094 145.246094 C 86.457031 145.523438 86.191406 145.710938 85.929688 145.671875 C 85.65625 145.632812 85.464844 145.378906 85.507812 145.105469 C 85.832031 142.828125 87.261719 141.675781 89.753906 141.675781 C 91.144531 141.675781 92.972656 142.191406 93.917969 143.347656 C 94.476562 144.027344 94.675781 144.867188 94.492188 145.773438 C 94.0625 147.921875 91.777344 148.464844 90.171875 148.464844 Z M 90.171875 148.464844 "/>
<path style=" stroke:none;fill-rule:nonzero;fill:rgb(27.843139%,16.862746%,16.078432%);fill-opacity:1;" d="M 109.882812 148.464844 C 108.28125 148.464844 105.996094 147.921875 105.566406 145.777344 C 105.382812 144.871094 105.582031 144.03125 106.140625 143.351562 C 107.085938 142.195312 108.914062 141.679688 110.304688 141.679688 C 112.796875 141.679688 114.226562 142.835938 114.550781 145.109375 C 114.59375 145.382812 114.398438 145.636719 114.128906 145.675781 C 113.855469 145.714844 113.601562 145.527344 113.5625 145.253906 C 113.3125 143.496094 112.277344 142.683594 110.308594 142.683594 C 109.1875 142.683594 107.648438 143.089844 106.914062 143.984375 C 106.542969 144.441406 106.425781 144.960938 106.546875 145.585938 C 106.992188 147.8125 110.464844 147.441406 110.5 147.4375 C 110.773438 147.402344 111.023438 147.601562 111.054688 147.875 C 111.085938 148.148438 110.886719 148.398438 110.613281 148.429688 C 110.398438 148.453125 110.148438 148.464844 109.882812 148.464844 Z M 109.882812 148.464844 "/>
<path style=" stroke:none;fill-rule:nonzero;fill:rgb(27.843139%,16.862746%,16.078432%);fill-opacity:1;" d="M 81.5 153.679688 C 81.300781 153.679688 81.117188 153.5625 81.039062 153.367188 C 79.546875 149.722656 79.792969 144.460938 81.632812 140.570312 C 82.941406 137.804688 84.921875 135.949219 87.355469 135.199219 C 95.566406 132.671875 103.679688 132.589844 112.875 134.945312 C 116.765625 136.238281 118.410156 137.769531 119.984375 143.800781 C 120.054688 144.070312 119.894531 144.34375 119.628906 144.410156 C 119.359375 144.480469 119.089844 144.320312 119.019531 144.054688 C 117.546875 138.421875 116.125 137.078125 112.59375 135.902344 C 103.621094 133.609375 95.683594 133.683594 87.648438 136.15625 C 84.921875 136.996094 83.367188 139.253906 82.539062 140.996094 C 80.808594 144.652344 80.574219 149.585938 81.964844 152.988281 C 82.070312 153.246094 81.949219 153.539062 81.691406 153.640625 C 81.625 153.667969 81.5625 153.679688 81.5 153.679688 Z M 81.5 153.679688 "/>
<path style=" stroke:none;fill-rule:nonzero;fill:rgb(27.843139%,16.862746%,16.078432%);fill-opacity:1;" d="M 86.25 135.929688 C 85.984375 135.929688 85.765625 135.722656 85.75 135.457031 C 85.75 135.457031 85.363281 128.703125 84.949219 120.523438 C 84.9375 120.246094 85.148438 120.015625 85.425781 120 C 85.738281 119.980469 85.9375 120.199219 85.949219 120.472656 C 86.363281 128.644531 86.746094 135.398438 86.746094 135.398438 C 86.765625 135.675781 86.554688 135.910156 86.277344 135.929688 C 86.269531 135.929688 86.257812 135.929688 86.25 135.929688 Z M 86.25 135.929688 "/>
<path style=" stroke:none;fill-rule:nonzero;fill:rgb(27.843139%,16.862746%,16.078432%);fill-opacity:1;" d="M 85.261719 117.25 C 84.996094 117.25 84.777344 117.042969 84.761719 116.773438 C 84.574219 112.898438 84.390625 108.894531 84.246094 105.269531 C 84.058594 100.40625 81.769531 96.277344 77.445312 92.992188 C 77.226562 92.828125 77.183594 92.515625 77.351562 92.292969 C 77.515625 92.074219 77.832031 92.03125 78.050781 92.199219 C 82.625 95.667969 85.046875 100.050781 85.246094 105.230469 C 85.390625 108.855469 85.570312 112.855469 85.761719 116.726562 C 85.773438 117.003906 85.558594 117.234375 85.285156 117.25 C 85.277344 117.25 85.269531 117.25 85.261719 117.25 Z M 85.261719 117.25 "/>
<path style=" stroke:none;fill-rule:nonzero;fill:rgb(27.843139%,16.862746%,16.078432%);fill-opacity:1;" d="M 75.367188 91.5 C 75.28125 91.5 75.191406 91.476562 75.113281 91.429688 C 72.183594 89.703125 69.644531 88.988281 69.617188 88.980469 C 69.351562 88.90625 69.195312 88.632812 69.269531 88.367188 C 69.34375 88.101562 69.621094 87.945312 69.882812 88.019531 C 69.992188 88.050781 72.570312 88.773438 75.621094 90.570312 C 75.859375 90.710938 75.9375 91.019531 75.796875 91.257812 C 75.703125 91.410156 75.535156 91.5 75.367188 91.5 Z M 75.367188 91.5 "/>
<path style=" stroke:none;fill-rule:nonzero;fill:rgb(27.843139%,16.862746%,16.078432%);fill-opacity:1;" d="M 113.75 135.929688 C 113.742188 135.929688 113.730469 135.929688 113.722656 135.929688 C 113.445312 135.914062 113.234375 135.679688 113.253906 135.402344 C 113.253906 135.402344 113.417969 132.511719 113.648438 128.222656 C 113.660156 127.949219 113.894531 127.738281 114.175781 127.753906 C 114.449219 127.765625 114.660156 128.003906 114.644531 128.277344 C 114.414062 132.566406 114.25 135.460938 114.25 135.460938 C 114.234375 135.722656 114.015625 135.929688 113.75 135.929688 Z M 113.75 135.929688 "/>
<path style=" stroke:none;fill-rule:nonzero;fill:rgb(27.843139%,16.862746%,16.078432%);fill-opacity:1;" d="M 114.34375 125 C 114.335938 125 114.324219 125 114.316406 125 C 114.042969 124.984375 113.828125 124.75 113.847656 124.472656 C 113.953125 122.441406 114.0625 120.238281 114.179688 117.976562 C 114.191406 117.699219 114.417969 117.488281 114.703125 117.503906 C 114.976562 117.515625 115.191406 117.75 115.175781 118.027344 C 115.0625 120.292969 114.953125 122.492188 114.84375 124.527344 C 114.828125 124.792969 114.609375 125 114.34375 125 Z M 114.34375 125 "/>
<path style=" stroke:none;fill-rule:nonzero;fill:rgb(27.843139%,16.862746%,16.078432%);fill-opacity:1;" d="M 114.785156 116.25 C 114.777344 116.25 114.769531 116.25 114.761719 116.25 C 114.484375 116.234375 114.273438 116.003906 114.289062 115.726562 L 114.390625 113.523438 C 114.527344 110.65625 114.648438 107.847656 114.753906 105.230469 C 114.871094 102.226562 115.757812 99.449219 117.390625 96.972656 C 117.542969 96.742188 117.855469 96.679688 118.085938 96.832031 C 118.3125 96.984375 118.378906 97.292969 118.226562 97.523438 C 116.695312 99.847656 115.863281 102.449219 115.753906 105.269531 C 115.648438 107.886719 115.527344 110.699219 115.390625 113.523438 L 115.285156 115.773438 C 115.273438 116.042969 115.050781 116.25 114.785156 116.25 Z M 114.785156 116.25 "/>
<path style=" stroke:none;fill-rule:nonzero;fill:rgb(27.843139%,16.862746%,16.078432%);fill-opacity:1;" d="M 120.25 94.8125 C 120.121094 94.8125 119.988281 94.765625 119.890625 94.664062 C 119.699219 94.464844 119.703125 94.148438 119.898438 93.957031 C 124.308594 89.65625 129.882812 88.082031 130.117188 88.019531 C 130.382812 87.945312 130.65625 88.101562 130.730469 88.367188 C 130.804688 88.632812 130.648438 88.90625 130.382812 88.980469 C 130.328125 88.996094 124.8125 90.554688 120.597656 94.671875 C 120.503906 94.765625 120.375 94.8125 120.25 94.8125 Z M 120.25 94.8125 "/>
<path style=" stroke:none;fill-rule:nonzero;fill:rgb(74.117649%,59.215689%,48.627451%);fill-opacity:1;" d="M 80 103 C 80 104.65625 78.65625 106 77 106 C 75.34375 106 74 104.65625 74 103 C 74 101.34375 75.34375 100 77 100 C 78.65625 100 80 101.34375 80 103 Z M 80 103 "/>
<path style=" stroke:none;fill-rule:nonzero;fill:rgb(100%,100%,100%);fill-opacity:1;" d="M 78 101 C 78 101.550781 77.550781 102 77 102 C 76.449219 102 76 101.550781 76 101 C 76 100.449219 76.449219 100 77 100 C 77.550781 100 78 100.449219 78 101 Z M 78 101 "/>
<path style=" stroke:none;fill-rule:nonzero;fill:rgb(74.117649%,59.215689%,48.627451%);fill-opacity:1;" d="M 126 103 C 126 104.65625 124.65625 106 123 106 C 121.34375 106 120 104.65625 120 103 C 120 101.34375 121.34375 100 123 100 C 124.65625 100 126 101.34375 126 103 Z M 126 103 "/>
<path style=" stroke:none;fill-rule:nonzero;fill:rgb(27.843139%,16.862746%,16.078432%);fill-opacity:1;" d="M 99.664062 94.5 C 99.535156 94.5 99.40625 94.453125 99.308594 94.355469 C 99.113281 94.15625 99.113281 93.84375 99.308594 93.644531 C 100.589844 92.367188 101.199219 88.5625 99.242188 85.519531 C 99.09375 85.289062 99.160156 84.976562 99.390625 84.828125 C 99.625 84.679688 99.933594 84.746094 100.085938 84.976562 C 102.339844 88.488281 101.566406 92.804688 100.015625 94.351562 C 99.917969 94.453125 99.792969 94.5 99.664062 94.5 Z M 99.664062 94.5 "/>
<path style=" stroke:none;fill-rule:nonzero;fill:rgb(27.843139%,16.862746%,16.078432%);fill-opacity:1;" d="M 98.695312 82.5 C 98.429688 82.5 98.210938 82.292969 98.195312 82.027344 C 98.074219 79.871094 98.726562 77.574219 99.859375 76.183594 C 100.035156 75.96875 100.351562 75.9375 100.5625 76.113281 C 100.777344 76.285156 100.8125 76.601562 100.636719 76.816406 C 99.652344 78.027344 99.085938 80.050781 99.191406 81.972656 C 99.207031 82.246094 98.996094 82.484375 98.71875 82.5 C 98.710938 82.5 98.703125 82.5 98.695312 82.5 Z M 98.695312 82.5 "/>
<path style=" stroke:none;fill-rule:nonzero;fill:rgb(27.843139%,16.862746%,16.078432%);fill-opacity:1;" d="M 93.414062 90.25 C 93.285156 90.25 93.15625 90.203125 93.058594 90.105469 C 92.863281 89.90625 92.863281 89.59375 93.058594 89.394531 C 93.914062 88.539062 94.550781 86.445312 94.109375 84.09375 C 94.058594 83.820312 94.234375 83.558594 94.507812 83.507812 C 94.769531 83.457031 95.039062 83.636719 95.089844 83.90625 C 95.542969 86.320312 95 88.867188 93.765625 90.101562 C 93.667969 90.203125 93.542969 90.25 93.414062 90.25 Z M 93.414062 90.25 "/>
<path style=" stroke:none;fill-rule:nonzero;fill:rgb(27.843139%,16.862746%,16.078432%);fill-opacity:1;" d="M 93.414062 81.5 C 93.25 81.5 93.089844 81.417969 92.992188 81.269531 C 92.460938 80.441406 92.125 79.441406 91.992188 78.308594 C 91.960938 78.035156 92.15625 77.785156 92.433594 77.753906 C 92.703125 77.722656 92.953125 77.917969 92.984375 78.195312 C 93.097656 79.160156 93.390625 80.039062 93.835938 80.730469 C 93.984375 80.960938 93.917969 81.273438 93.6875 81.421875 C 93.601562 81.472656 93.507812 81.5 93.414062 81.5 Z M 93.414062 81.5 "/>
<path style=" stroke:none;fill-rule:nonzero;fill:rgb(27.843139%,16.862746%,16.078432%);fill-opacity:1;" d="M 92.648438 75.75 C 92.613281 75.75 92.578125 75.746094 92.542969 75.738281 C 92.273438 75.679688 92.101562 75.410156 92.160156 75.140625 C 92.4375 73.882812 92.953125 72.742188 93.613281 71.933594 C 93.789062 71.71875 94.105469 71.6875 94.316406 71.863281 C 94.53125 72.035156 94.566406 72.351562 94.390625 72.566406 C 93.828125 73.257812 93.382812 74.246094 93.140625 75.359375 C 93.085938 75.589844 92.878906 75.75 92.648438 75.75 Z M 92.648438 75.75 "/>
<path style=" stroke:none;fill-rule:nonzero;fill:rgb(27.843139%,16.862746%,16.078432%);fill-opacity:1;" d="M 105.664062 90.25 C 105.535156 90.25 105.40625 90.203125 105.308594 90.105469 C 105.113281 89.90625 105.113281 89.59375 105.308594 89.394531 C 105.933594 88.773438 106.378906 87.554688 106.476562 86.210938 C 106.496094 85.9375 106.738281 85.730469 107.015625 85.75 C 107.289062 85.769531 107.496094 86.011719 107.476562 86.285156 C 107.359375 87.878906 106.8125 89.304688 106.015625 90.101562 C 105.917969 90.203125 105.792969 90.25 105.664062 90.25 Z M 105.664062 90.25 "/>
<path style=" stroke:none;fill-rule:nonzero;fill:rgb(27.843139%,16.862746%,16.078432%);fill-opacity:1;" d="M 106.671875 83.75 C 106.453125 83.75 106.253906 83.605469 106.191406 83.386719 C 105.976562 82.632812 105.65625 81.921875 105.238281 81.269531 C 103.425781 78.445312 104.109375 74.085938 105.859375 71.933594 C 106.035156 71.71875 106.351562 71.6875 106.5625 71.863281 C 106.777344 72.035156 106.8125 72.351562 106.636719 72.566406 C 105.105469 74.445312 104.542969 78.335938 106.082031 80.730469 C 106.550781 81.460938 106.910156 82.265625 107.152344 83.117188 C 107.226562 83.382812 107.070312 83.65625 106.804688 83.730469 C 106.761719 83.742188 106.71875 83.75 106.671875 83.75 Z M 106.671875 83.75 "/>
<path style=" stroke:none;fill-rule:nonzero;fill:rgb(27.843139%,16.862746%,16.078432%);fill-opacity:1;" d="M 69 79.5 L 62.5 79.5 C 62.222656 79.5 62 79.277344 62 79 C 62 78.722656 62.222656 78.5 62.5 78.5 L 69 78.5 C 69.277344 78.5 69.5 78.722656 69.5 79 C 69.5 79.277344 69.277344 79.5 69 79.5 Z M 69 79.5 "/>
<path style=" stroke:none;fill-rule:nonzero;fill:rgb(27.843139%,16.862746%,16.078432%);fill-opacity:1;" d="M 58.75 79.320312 C 58.722656 79.320312 58.695312 79.316406 58.664062 79.3125 C 56.007812 78.871094 53.804688 77.628906 52.117188 75.628906 C 51.9375 75.414062 51.964844 75.101562 52.175781 74.925781 C 52.386719 74.746094 52.703125 74.773438 52.878906 74.984375 C 54.410156 76.800781 56.414062 77.925781 58.828125 78.328125 C 59.101562 78.375 59.289062 78.632812 59.242188 78.902344 C 59.203125 79.148438 58.988281 79.320312 58.75 79.320312 Z M 58.75 79.320312 "/>
<path style=" stroke:none;fill-rule:nonzero;fill:rgb(27.843139%,16.862746%,16.078432%);fill-opacity:1;" d="M 50.394531 72.25 C 50.199219 72.25 50.011719 72.132812 49.933594 71.9375 C 48.519531 68.472656 48.503906 65.136719 48.503906 64.996094 C 48.503906 64.722656 48.726562 64.496094 49.003906 64.496094 C 49.277344 64.496094 49.503906 64.722656 49.503906 64.996094 C 49.503906 65.03125 49.523438 68.28125 50.859375 71.558594 C 50.964844 71.816406 50.84375 72.109375 50.585938 72.210938 C 50.523438 72.238281 50.457031 72.25 50.394531 72.25 Z M 50.394531 72.25 "/>
<path style=" stroke:none;fill-rule:nonzero;fill:rgb(27.843139%,16.862746%,16.078432%);fill-opacity:1;" d="M 137.5 79.5 L 131 79.5 C 130.722656 79.5 130.5 79.277344 130.5 79 C 130.5 78.722656 130.722656 78.5 131 78.5 L 137.5 78.5 C 137.777344 78.5 138 78.722656 138 79 C 138 79.277344 137.777344 79.5 137.5 79.5 Z M 137.5 79.5 "/>
<path style=" stroke:none;fill-rule:nonzero;fill:rgb(27.843139%,16.862746%,16.078432%);fill-opacity:1;" d="M 141.25 79.320312 C 141.011719 79.320312 140.796875 79.144531 140.757812 78.902344 C 140.710938 78.628906 140.894531 78.371094 141.171875 78.324219 C 143.585938 77.921875 145.589844 76.796875 147.121094 74.980469 C 147.296875 74.769531 147.613281 74.742188 147.824219 74.921875 C 148.035156 75.101562 148.0625 75.414062 147.882812 75.625 C 146.195312 77.628906 143.992188 78.867188 141.335938 79.3125 C 141.304688 79.316406 141.277344 79.320312 141.25 79.320312 Z M 141.25 79.320312 "/>
<path style=" stroke:none;fill-rule:nonzero;fill:rgb(27.843139%,16.862746%,16.078432%);fill-opacity:1;" d="M 149.605469 72.25 C 149.539062 72.25 149.476562 72.238281 149.414062 72.210938 C 149.160156 72.109375 149.035156 71.816406 149.140625 71.558594 C 150.476562 68.28125 150.496094 65.03125 150.496094 64.996094 C 150.496094 64.722656 150.722656 64.496094 150.996094 64.496094 C 151.273438 64.496094 151.496094 64.722656 151.496094 64.996094 C 151.496094 65.136719 151.480469 68.472656 150.066406 71.9375 C 149.988281 72.132812 149.800781 72.25 149.605469 72.25 Z M 149.605469 72.25 "/>
<path style=" stroke:none;fill-rule:nonzero;fill:rgb(27.843139%,16.862746%,16.078432%);fill-opacity:1;" d="M 112.941406 158.496094 C 111.785156 158.496094 110.628906 158.246094 109.480469 157.753906 C 105.261719 156.679688 100.871094 156.28125 96.578125 156.617188 C 95.765625 156.683594 94.953125 156.773438 94.140625 156.886719 C 93.59375 156.964844 93.089844 156.585938 93.011719 156.039062 C 92.933594 155.492188 93.3125 154.984375 93.859375 154.90625 C 94.710938 154.785156 95.566406 154.691406 96.421875 154.625 C 100.933594 154.269531 105.542969 154.6875 110.128906 155.863281 C 112.070312 156.691406 113.8125 156.691406 115.605469 155.914062 C 116.113281 155.695312 116.699219 155.929688 116.921875 156.433594 C 117.136719 156.941406 116.90625 157.53125 116.398438 157.746094 C 115.25 158.246094 114.09375 158.496094 112.941406 158.496094 Z M 112.941406 158.496094 "/>
<path style=" stroke:none;fill-rule:nonzero;fill:rgb(27.843139%,16.862746%,16.078432%);fill-opacity:1;" d="M 86.113281 158.5 C 84.949219 158.5 83.902344 158.230469 82.992188 157.695312 C 82.515625 157.414062 82.359375 156.800781 82.636719 156.324219 C 82.917969 155.851562 83.535156 155.691406 84.007812 155.972656 C 85.253906 156.707031 86.90625 156.683594 89.066406 155.894531 C 90.078125 155.625 91.007812 155.414062 91.933594 155.234375 C 92.574219 155.109375 93.214844 155.003906 93.859375 154.910156 C 94.394531 154.828125 94.910156 155.210938 94.988281 155.757812 C 95.066406 156.304688 94.6875 156.8125 94.140625 156.890625 C 93.53125 156.976562 92.921875 157.078125 92.3125 157.199219 C 91.429688 157.367188 90.546875 157.570312 89.664062 157.800781 C 88.390625 158.265625 87.203125 158.5 86.113281 158.5 Z M 86.113281 158.5 "/>
<path style=" stroke:none;fill-rule:nonzero;fill:rgb(100%,100%,100%);fill-opacity:1;" d="M 124 101 C 124 101.550781 123.550781 102 123 102 C 122.449219 102 122 101.550781 122 101 C 122 100.449219 122.449219 100 123 100 C 123.550781 100 124 100.449219 124 101 Z M 124 101 "/>
</g>
</svg>
