<?xml version="1.0" encoding="UTF-8"?>
<svg xmlns="http://www.w3.org/2000/svg" xmlns:xlink="http://www.w3.org/1999/xlink" viewBox="0 0 200 200" width="200px" height="200px">
<g id="surface90334445">
<path style=" stroke:none;fill-rule:nonzero;fill:rgb(94.509804%,73.725492%,9.803922%);fill-opacity:1;" d="M 160 26 C 160 27.105469 159.105469 28 158 28 C 156.894531 28 156 27.105469 156 26 C 156 24.894531 156.894531 24 158 24 C 159.105469 24 160 24.894531 160 26 Z M 160 26 "/>
<path style=" stroke:none;fill-rule:nonzero;fill:rgb(80.784315%,88.235295%,95.686275%);fill-opacity:1;" d="M 174 100 C 174 140.867188 140.867188 174 100 174 C 59.132812 174 26 140.867188 26 100 C 26 59.132812 59.132812 26 100 26 C 140.867188 26 174 59.132812 174 100 Z M 174 100 "/>
<path style=" stroke:none;fill-rule:nonzero;fill:rgb(94.509804%,73.725492%,9.803922%);fill-opacity:1;" d="M 178 30 C 178 34.417969 174.417969 38 170 38 C 165.582031 38 162 34.417969 162 30 C 162 25.582031 165.582031 22 170 22 C 174.417969 22 178 25.582031 178 30 Z M 178 30 "/>
<path style=" stroke:none;fill-rule:nonzero;fill:rgb(21.176471%,47.058824%,72.941178%);fill-opacity:1;" d="M 30 58 C 30 60.210938 28.210938 62 26 62 C 23.789062 62 22 60.210938 22 58 C 22 55.789062 23.789062 54 26 54 C 28.210938 54 30 55.789062 30 58 Z M 30 58 "/>
<path style=" stroke:none;fill-rule:nonzero;fill:rgb(98.431373%,80.392158%,34.901962%);fill-opacity:1;" d="M 164 156 C 164 158.210938 162.210938 160 160 160 C 157.789062 160 156 158.210938 156 156 C 156 153.789062 157.789062 152 160 152 C 162.210938 152 164 153.789062 164 156 Z M 164 156 "/>
<path style=" stroke:none;fill-rule:nonzero;fill:rgb(98.431373%,80.392158%,34.901962%);fill-opacity:1;" d="M 60 152 C 60 156.417969 56.417969 160 52 160 C 47.582031 160 44 156.417969 44 152 C 44 147.582031 47.582031 144 52 144 C 56.417969 144 60 147.582031 60 152 Z M 60 152 "/>
<path style=" stroke:none;fill-rule:nonzero;fill:rgb(21.176471%,47.058824%,72.941178%);fill-opacity:1;" d="M 58 174 C 58 176.210938 56.210938 178 54 178 C 51.789062 178 50 176.210938 50 174 C 50 171.789062 51.789062 170 54 170 C 56.210938 170 58 171.789062 58 174 Z M 58 174 "/>
<path style=" stroke:none;fill-rule:nonzero;fill:rgb(100%,100%,100%);fill-opacity:1;" d="M 122 161 C 122 163.761719 119.761719 166 117 166 C 114.238281 166 112 163.761719 112 161 C 112 158.238281 114.238281 156 117 156 C 119.761719 156 122 158.238281 122 161 Z M 122 161 "/>
<path style=" stroke:none;fill-rule:nonzero;fill:rgb(100%,100%,100%);fill-opacity:1;" d="M 48 137.941406 C 48 139.015625 47.128906 139.882812 46.058594 139.882812 C 44.984375 139.882812 44.117188 139.015625 44.117188 137.941406 C 44.117188 136.871094 44.984375 136 46.058594 136 C 47.128906 136 48 136.871094 48 137.941406 Z M 48 137.941406 "/>
<path style=" stroke:none;fill-rule:nonzero;fill:rgb(94.509804%,73.725492%,9.803922%);fill-opacity:1;" d="M 172 62 C 172 63.105469 171.105469 64 170 64 C 168.894531 64 168 63.105469 168 62 C 168 60.894531 168.894531 60 170 60 C 171.105469 60 172 60.894531 172 62 Z M 172 62 "/>
<path style=" stroke:none;fill-rule:nonzero;fill:rgb(100%,100%,100%);fill-opacity:1;" d="M 160 136 C 160 138.210938 158.210938 140 156 140 C 153.789062 140 152 138.210938 152 136 C 152 133.789062 153.789062 132 156 132 C 158.210938 132 160 133.789062 160 136 Z M 160 136 "/>
<path style=" stroke:none;fill-rule:nonzero;fill:rgb(100%,100%,100%);fill-opacity:1;" d="M 162 70 C 162 71.105469 161.105469 72 160 72 C 158.894531 72 158 71.105469 158 70 C 158 68.894531 158.894531 68 160 68 C 161.105469 68 162 68.894531 162 70 Z M 162 70 "/>
<path style=" stroke:none;fill-rule:nonzero;fill:rgb(96.078432%,90.196079%,56.470591%);fill-opacity:1;" d="M 100.964844 150.007812 C 100.964844 159.117188 93.578125 166.507812 84.464844 166.507812 C 75.351562 166.507812 67.964844 159.117188 67.964844 150.007812 C 67.964844 140.894531 75.351562 133.507812 84.464844 133.507812 C 93.578125 133.507812 100.964844 140.894531 100.964844 150.007812 Z M 100.964844 150.007812 "/>
<path style=" stroke:none;fill-rule:nonzero;fill:rgb(63.529414%,70.19608%,79.607844%);fill-opacity:1;" d="M 154.6875 99.800781 C 154.6875 99.800781 154.6875 77.585938 154.6875 77.117188 C 154.6875 61.347656 141.816406 48.5625 125.945312 48.5625 C 121.71875 48.5625 117.714844 49.46875 114.105469 51.101562 L 93.433594 52.351562 C 89.652344 51.851562 85.371094 51.523438 80.699219 51.523438 C 80.699219 51.523438 45.1875 50.433594 45.1875 86.636719 C 45.1875 102.738281 62.222656 142.140625 62.222656 142.140625 C 63.097656 144.636719 63.527344 144.636719 64.953125 144.636719 L 77.359375 131.871094 C 77.695312 131.527344 77.84375 131.035156 77.75 130.558594 L 74.78125 115.148438 C 74.78125 115.148438 79.222656 116.628906 83.65625 116.628906 C 88.09375 116.628906 92.535156 115.148438 92.535156 115.148438 L 89.882812 130.460938 C 89.789062 130.988281 89.992188 131.527344 90.410156 131.863281 L 103.089844 142.101562 C 103.863281 142.726562 105.015625 142.433594 105.386719 141.515625 C 107.609375 136.039062 114.140625 119.886719 116.210938 114.40625 C 119.328125 106.160156 122.128906 100.351562 122.128906 100.351562 C 144.203125 100.351562 144.324219 112.1875 144.324219 112.1875 L 144.324219 113.667969 C 144.324219 116.667969 142.105469 119.585938 138.40625 119.585938 C 135.386719 119.585938 132.488281 116.664062 132.488281 113.667969 L 122.132812 113.667969 C 122.132812 122.664062 129.351562 129.945312 138.410156 129.945312 C 147.46875 129.945312 154.6875 122.347656 154.6875 113.351562 Z M 154.6875 99.800781 "/>
<path style=" stroke:none;fill-rule:nonzero;fill:rgb(53.333336%,53.725493%,72.549021%);fill-opacity:1;" d="M 104.3125 47.820312 C 95.699219 47.820312 85.878906 56.105469 85.878906 72.035156 C 85.878906 86.375 93.507812 100.578125 108.566406 107.011719 L 114.402344 80.375 C 114.402344 80.375 111.035156 71.484375 111.035156 70.015625 C 111.035156 68.378906 112.359375 67.054688 113.996094 67.054688 C 115.632812 67.054688 116.957031 68.378906 116.957031 70.015625 C 116.957031 70.015625 119.914062 67.113281 119.914062 62.617188 C 119.914062 54.445312 112.929688 47.820312 104.3125 47.820312 Z M 104.3125 47.820312 "/>
<path style=" stroke:none;fill-rule:nonzero;fill:rgb(27.843139%,16.862746%,16.078432%);fill-opacity:1;" d="M 94.730469 149 C 94.488281 149 94.273438 148.820312 94.238281 148.570312 C 94.097656 147.605469 93.8125 146.671875 93.398438 145.796875 C 93.277344 145.546875 93.382812 145.246094 93.632812 145.128906 C 93.890625 145.011719 94.179688 145.117188 94.300781 145.367188 C 94.757812 146.328125 95.070312 147.363281 95.226562 148.425781 C 95.269531 148.699219 95.078125 148.953125 94.804688 148.992188 C 94.78125 148.996094 94.757812 149 94.730469 149 Z M 94.730469 149 "/>
<path style=" stroke:none;fill-rule:nonzero;fill:rgb(27.843139%,16.862746%,16.078432%);fill-opacity:1;" d="M 84.515625 160.824219 C 82.542969 160.824219 80.617188 160.292969 78.941406 159.28125 C 77.347656 158.324219 76.015625 156.964844 75.097656 155.347656 C 74.960938 155.109375 75.046875 154.800781 75.285156 154.664062 C 75.523438 154.53125 75.824219 154.613281 75.96875 154.851562 C 76.800781 156.320312 78.011719 157.554688 79.457031 158.425781 C 80.976562 159.34375 82.726562 159.824219 84.515625 159.824219 C 88.8125 159.824219 92.578125 157.074219 93.878906 152.980469 C 93.964844 152.71875 94.242188 152.570312 94.507812 152.65625 C 94.769531 152.738281 94.914062 153.023438 94.832031 153.285156 C 93.398438 157.796875 89.253906 160.824219 84.515625 160.824219 Z M 84.515625 160.824219 "/>
<path style=" stroke:none;fill-rule:nonzero;fill:rgb(27.843139%,16.862746%,16.078432%);fill-opacity:1;" d="M 91.183594 142.617188 C 91.066406 142.617188 90.957031 142.574219 90.863281 142.496094 C 89.09375 140.996094 86.839844 140.175781 84.515625 140.175781 C 84.238281 140.175781 84.015625 139.949219 84.015625 139.675781 C 84.015625 139.398438 84.238281 139.175781 84.515625 139.175781 C 87.074219 139.175781 89.554688 140.082031 91.507812 141.734375 C 91.714844 141.910156 91.742188 142.226562 91.5625 142.4375 C 91.464844 142.554688 91.324219 142.617188 91.183594 142.617188 Z M 91.183594 142.617188 "/>
<path style=" stroke:none;fill-rule:nonzero;fill:rgb(27.843139%,16.862746%,16.078432%);fill-opacity:1;" d="M 53.195312 100.050781 C 53 100.050781 52.816406 99.9375 52.734375 99.742188 C 51.757812 97.394531 50.277344 90.96875 50.277344 86.628906 C 50.277344 77.339844 52.890625 70.0625 58.046875 65.011719 C 61.035156 62.097656 64.890625 59.890625 69.515625 58.449219 C 69.777344 58.367188 70.058594 58.511719 70.136719 58.777344 C 70.222656 59.039062 70.074219 59.316406 69.808594 59.398438 C 65.34375 60.796875 61.617188 62.925781 58.746094 65.722656 C 53.789062 70.578125 51.277344 77.613281 51.277344 86.628906 C 51.277344 90.84375 52.710938 97.085938 53.65625 99.359375 C 53.765625 99.613281 53.640625 99.902344 53.386719 100.011719 C 53.324219 100.039062 53.261719 100.050781 53.195312 100.050781 Z M 72.585938 58.640625 C 72.355469 58.640625 72.148438 58.480469 72.097656 58.25 C 72.035156 57.980469 72.207031 57.710938 72.472656 57.652344 C 73.414062 57.441406 74.410156 57.257812 75.433594 57.101562 C 75.722656 57.050781 75.960938 57.25 76 57.523438 C 76.042969 57.796875 75.855469 58.050781 75.578125 58.089844 C 74.582031 58.238281 73.609375 58.421875 72.691406 58.628906 C 72.65625 58.636719 72.621094 58.640625 72.585938 58.640625 Z M 78.429688 57.773438 C 78.167969 57.773438 77.949219 57.570312 77.929688 57.308594 C 77.90625 57.035156 78.117188 56.792969 78.390625 56.773438 C 79.015625 56.726562 79.519531 56.707031 79.871094 56.699219 C 79.875 56.699219 79.878906 56.699219 79.882812 56.699219 C 80.152344 56.699219 80.375 56.910156 80.382812 57.183594 C 80.390625 57.460938 80.175781 57.691406 79.898438 57.699219 C 79.558594 57.707031 79.070312 57.726562 78.464844 57.769531 C 78.453125 57.773438 78.441406 57.773438 78.429688 57.773438 Z M 78.429688 57.773438 "/>
<path style=" stroke:none;fill-rule:nonzero;fill:rgb(27.843139%,16.862746%,16.078432%);fill-opacity:1;" d="M 64.867188 146.03125 C 62.730469 146.03125 61.847656 145.535156 60.816406 142.597656 C 60.152344 141.070312 43.699219 102.835938 43.699219 86.628906 C 43.699219 75.441406 47.007812 66.558594 53.53125 60.234375 C 64.351562 49.738281 79.984375 50.09375 80.65625 50.113281 C 80.660156 50.113281 80.664062 50.113281 80.671875 50.113281 C 84.964844 50.113281 89.304688 50.398438 93.527344 50.953125 L 93.160156 53.730469 C 89.054688 53.1875 84.835938 52.914062 80.613281 52.914062 C 80.402344 52.894531 65.414062 52.59375 55.464844 62.261719 C 49.515625 68.039062 46.503906 76.234375 46.503906 86.628906 C 46.503906 102.257812 63.253906 141.1875 63.425781 141.578125 C 63.894531 142.917969 64.113281 143.171875 64.164062 143.21875 C 64.183594 143.222656 64.222656 143.222656 64.28125 143.222656 L 76.269531 130.886719 L 73.320312 115.40625 C 73.226562 114.921875 73.398438 114.417969 73.773438 114.089844 C 74.148438 113.761719 74.664062 113.652344 75.136719 113.8125 C 75.179688 113.828125 79.429688 115.222656 83.574219 115.222656 C 87.722656 115.222656 91.96875 113.828125 92.015625 113.8125 C 92.476562 113.65625 92.996094 113.761719 93.371094 114.082031 C 93.742188 114.402344 93.917969 114.894531 93.835938 115.382812 L 91.179688 130.691406 L 103.886719 141.003906 C 106.011719 136.042969 112.707031 119.5 114.820312 113.90625 C 117.921875 105.695312 120.761719 99.792969 120.785156 99.734375 C 121.019531 99.253906 121.511719 98.945312 122.046875 98.945312 C 145.242188 98.945312 145.640625 111.628906 145.644531 112.167969 L 145.644531 113.660156 C 145.644531 117.257812 142.90625 120.980469 138.324219 120.980469 C 135.035156 120.980469 131.902344 118.261719 131.171875 115.058594 L 123.515625 115.058594 C 124.222656 122.609375 130.597656 128.535156 138.324219 128.535156 C 146.53125 128.535156 153.203125 121.71875 153.203125 113.339844 L 153.203125 101.941406 L 155.964844 102.871094 L 156 113.34375 C 156 123.269531 148.070312 131.339844 138.320312 131.339844 C 128.574219 131.339844 120.644531 123.410156 120.644531 113.660156 C 120.644531 112.886719 121.269531 112.261719 122.042969 112.261719 L 132.402344 112.261719 C 133.179688 112.261719 133.804688 112.886719 133.804688 113.660156 C 133.804688 115.898438 136.085938 118.183594 138.320312 118.183594 C 141.257812 118.183594 142.84375 115.855469 142.84375 113.660156 L 142.84375 112.183594 C 142.828125 111.789062 142.320312 102.039062 122.929688 101.753906 C 122.066406 103.609375 119.835938 108.546875 117.4375 114.894531 C 115.3125 120.519531 108.605469 137.089844 106.601562 142.03125 C 106.257812 142.882812 105.546875 143.503906 104.660156 143.734375 C 103.761719 143.960938 102.84375 143.765625 102.125 143.1875 L 89.445312 132.949219 C 88.628906 132.289062 88.234375 131.242188 88.414062 130.214844 L 90.691406 117.089844 C 88.902344 117.523438 86.253906 118.027344 83.570312 118.027344 C 80.910156 118.027344 78.277344 117.53125 76.492188 117.097656 L 79.035156 130.289062 C 79.214844 131.214844 78.929688 132.164062 78.273438 132.84375 L 65.867188 145.609375 C 65.605469 145.875 65.242188 146.03125 64.867188 146.03125 Z M 156 99.796875 L 153.199219 99.796875 L 153.199219 77.113281 C 153.199219 62.136719 140.933594 49.957031 125.855469 49.957031 C 121.933594 49.957031 118.144531 50.769531 114.59375 52.371094 L 113.441406 49.816406 C 117.355469 48.050781 121.53125 47.15625 125.855469 47.15625 C 142.476562 47.15625 156 60.59375 156 77.113281 Z M 156 99.796875 "/>
<path style=" stroke:none;fill-rule:nonzero;fill:rgb(27.843139%,16.862746%,16.078432%);fill-opacity:1;" d="M 139.0625 75.828125 C 137.40625 75.828125 136.0625 77.199219 136.0625 78.890625 C 136.0625 80.578125 137.40625 81.949219 139.0625 81.949219 C 140.71875 81.949219 142.0625 80.578125 142.0625 78.890625 C 142.0625 77.199219 140.71875 75.828125 139.0625 75.828125 Z M 139.0625 75.828125 "/>
<path style=" stroke:none;fill-rule:nonzero;fill:rgb(27.843139%,16.862746%,16.078432%);fill-opacity:1;" d="M 104.894531 99.660156 C 104.796875 99.660156 104.699219 99.632812 104.609375 99.574219 C 104.144531 99.257812 103.6875 98.925781 103.242188 98.585938 C 103.023438 98.414062 102.980469 98.101562 103.148438 97.882812 C 103.316406 97.660156 103.628906 97.621094 103.851562 97.789062 C 104.28125 98.121094 104.726562 98.4375 105.175781 98.746094 C 105.402344 98.902344 105.460938 99.214844 105.304688 99.445312 C 105.210938 99.585938 105.050781 99.660156 104.894531 99.660156 Z M 101.328125 96.824219 C 101.207031 96.824219 101.085938 96.78125 100.988281 96.691406 C 100.472656 96.21875 99.972656 95.722656 99.488281 95.214844 C 99.296875 95.011719 99.304688 94.695312 99.503906 94.507812 C 99.707031 94.308594 100.023438 94.324219 100.210938 94.523438 C 100.679688 95.015625 101.164062 95.492188 101.667969 95.957031 C 101.871094 96.144531 101.882812 96.460938 101.699219 96.664062 C 101.597656 96.769531 101.460938 96.824219 101.328125 96.824219 Z M 97.628906 92.765625 C 97.476562 92.765625 97.328125 92.695312 97.230469 92.566406 C 92.808594 86.765625 90.46875 79.660156 90.46875 72.023438 C 90.46875 71.746094 90.695312 71.523438 90.96875 71.523438 C 91.246094 71.523438 91.46875 71.746094 91.46875 72.023438 C 91.46875 79.441406 93.738281 86.335938 98.027344 91.960938 C 98.191406 92.179688 98.148438 92.496094 97.929688 92.664062 C 97.84375 92.730469 97.734375 92.765625 97.628906 92.765625 Z M 97.628906 92.765625 "/>
<path style=" stroke:none;fill-rule:nonzero;fill:rgb(27.843139%,16.862746%,16.078432%);fill-opacity:1;" d="M 108.480469 108.003906 C 108.347656 108.003906 108.210938 107.976562 108.089844 107.925781 C 93.71875 101.792969 84.792969 88.039062 84.792969 72.03125 C 84.792969 55.652344 94.804688 46.816406 104.226562 46.816406 C 113.378906 46.816406 120.828125 53.902344 120.828125 62.613281 C 120.828125 67.472656 117.703125 70.597656 117.570312 70.726562 C 117.28125 71.011719 116.855469 71.09375 116.480469 70.933594 C 116.109375 70.777344 115.867188 70.414062 115.867188 70.011719 C 115.867188 68.933594 114.988281 68.054688 113.90625 68.054688 C 112.828125 68.054688 111.949219 68.933594 111.949219 70.011719 C 111.953125 70.828125 113.632812 75.738281 115.253906 80.015625 C 115.320312 80.195312 115.335938 80.394531 115.292969 80.585938 L 109.460938 107.21875 C 109.398438 107.511719 109.207031 107.757812 108.941406 107.890625 C 108.792969 107.96875 108.636719 108.003906 108.480469 108.003906 Z M 104.226562 48.8125 C 95.773438 48.8125 86.789062 56.949219 86.789062 72.027344 C 86.789062 86.804688 94.792969 99.554688 107.765625 105.589844 L 113.273438 80.445312 C 112.367188 78.042969 109.945312 71.484375 109.945312 70.011719 C 109.945312 67.824219 111.722656 66.050781 113.902344 66.050781 C 115.304688 66.050781 116.535156 66.78125 117.242188 67.882812 C 117.980469 66.710938 118.824219 64.875 118.824219 62.613281 C 118.824219 55.003906 112.277344 48.8125 104.226562 48.8125 Z M 117.867188 70.011719 L 117.886719 70.011719 Z M 117.867188 70.011719 "/>
<path style=" stroke:none;fill-rule:nonzero;fill:rgb(27.843139%,16.862746%,16.078432%);fill-opacity:1;" d="M 84.378906 134.800781 C 92.761719 134.800781 99.578125 141.617188 99.578125 150 C 99.578125 158.382812 92.761719 165.199219 84.378906 165.199219 C 75.996094 165.199219 69.179688 158.382812 69.179688 150 C 69.179688 141.617188 75.996094 134.800781 84.378906 134.800781 M 84.378906 132 C 74.4375 132 66.378906 140.058594 66.378906 150 C 66.378906 159.941406 74.4375 168 84.378906 168 C 94.320312 168 102.378906 159.941406 102.378906 150 C 102.378906 140.058594 94.320312 132 84.378906 132 Z M 84.378906 132 "/>
<path style=" stroke:none;fill-rule:nonzero;fill:rgb(100%,100%,100%);fill-opacity:1;" d="M 165.0625 103.867188 C 155.445312 100.90625 151.214844 99.277344 146.839844 93.394531 L 146.835938 93.398438 C 146.308594 92.574219 145.394531 92.027344 144.347656 92.027344 C 142.710938 92.027344 141.386719 93.351562 141.386719 94.988281 C 141.386719 95.65625 141.617188 96.269531 141.992188 96.765625 C 141.996094 96.769531 142.003906 96.773438 142.003906 96.777344 C 142.117188 96.925781 142.242188 97.058594 142.382812 97.183594 C 146.046875 101.109375 155.058594 103.867188 165.0625 103.867188 Z M 165.0625 103.867188 "/>
<path style=" stroke:none;fill-rule:nonzero;fill:rgb(27.843139%,16.862746%,16.078432%);fill-opacity:1;" d="M 165 104.90625 C 154.902344 104.90625 145.496094 102.09375 141.585938 97.90625 C 141.464844 97.804688 141.296875 97.621094 141.144531 97.425781 C 140.601562 96.703125 140.324219 95.882812 140.324219 95.027344 C 140.324219 92.84375 142.101562 91.066406 144.28125 91.066406 C 145.601562 91.066406 146.820312 91.71875 147.558594 92.816406 C 147.566406 92.824219 147.570312 92.835938 147.578125 92.84375 C 151.707031 98.390625 155.503906 99.941406 165.292969 102.953125 C 165.765625 103.097656 166.0625 103.566406 165.988281 104.054688 C 165.914062 104.542969 165.492188 104.90625 165 104.90625 Z M 144.285156 93.066406 C 143.203125 93.066406 142.324219 93.945312 142.324219 95.027344 C 142.324219 95.445312 142.464844 95.851562 142.726562 96.203125 C 142.808594 96.304688 142.890625 96.394531 142.984375 96.476562 C 145.566406 99.238281 150.800781 101.335938 157.070312 102.304688 C 152.402344 100.476562 149.203125 98.351562 146.027344 94.101562 C 145.992188 94.0625 145.960938 94.023438 145.933594 93.976562 C 145.5625 93.40625 144.949219 93.066406 144.285156 93.066406 Z M 144.285156 93.066406 "/>
</g>
</svg>
