<?xml version="1.0" encoding="UTF-8"?>
<svg xmlns="http://www.w3.org/2000/svg" xmlns:xlink="http://www.w3.org/1999/xlink" viewBox="0 0 200 200" width="200px" height="200px">
<g id="surface90669203">
<path style=" stroke:none;fill-rule:nonzero;fill:rgb(97.647059%,85.882354%,82.352942%);fill-opacity:1;" d="M 174 100 C 174 140.867188 140.867188 174 100 174 C 59.132812 174 26 140.867188 26 100 C 26 59.132812 59.132812 26 100 26 C 140.867188 26 174 59.132812 174 100 Z M 174 100 "/>
<path style=" stroke:none;fill-rule:nonzero;fill:rgb(94.509804%,73.725492%,9.803922%);fill-opacity:1;" d="M 174 30 C 174 34.417969 170.417969 38 166 38 C 161.582031 38 158 34.417969 158 30 C 158 25.582031 161.582031 22 166 22 C 170.417969 22 174 25.582031 174 30 Z M 174 30 "/>
<path style=" stroke:none;fill-rule:nonzero;fill:rgb(93.333334%,24.313726%,32.941177%);fill-opacity:1;" d="M 178 48 C 178 50.210938 176.210938 52 174 52 C 171.789062 52 170 50.210938 170 48 C 170 45.789062 171.789062 44 174 44 C 176.210938 44 178 45.789062 178 48 Z M 178 48 "/>
<path style=" stroke:none;fill-rule:nonzero;fill:rgb(98.431373%,80.392158%,34.901962%);fill-opacity:1;" d="M 166 152 C 166 154.210938 164.210938 156 162 156 C 159.789062 156 158 154.210938 158 152 C 158 149.789062 159.789062 148 162 148 C 164.210938 148 166 149.789062 166 152 Z M 166 152 "/>
<path style=" stroke:none;fill-rule:nonzero;fill:rgb(98.431373%,80.392158%,34.901962%);fill-opacity:1;" d="M 38 126 C 38 130.417969 34.417969 134 30 134 C 25.582031 134 22 130.417969 22 126 C 22 121.582031 25.582031 118 30 118 C 34.417969 118 38 121.582031 38 126 Z M 38 126 "/>
<path style=" stroke:none;fill-rule:nonzero;fill:rgb(93.333334%,24.313726%,32.941177%);fill-opacity:1;" d="M 54 174 C 54 176.210938 52.210938 178 50 178 C 47.789062 178 46 176.210938 46 174 C 46 171.789062 47.789062 170 50 170 C 52.210938 170 54 171.789062 54 174 Z M 54 174 "/>
<path style=" stroke:none;fill-rule:nonzero;fill:rgb(100%,100%,100%);fill-opacity:1;" d="M 44 87 C 44 89.761719 41.761719 92 39 92 C 36.238281 92 34 89.761719 34 87 C 34 84.238281 36.238281 82 39 82 C 41.761719 82 44 84.238281 44 87 Z M 44 87 "/>
<path style=" stroke:none;fill-rule:nonzero;fill:rgb(100%,100%,100%);fill-opacity:1;" d="M 162 67 C 162 68.65625 160.65625 70 159 70 C 157.34375 70 156 68.65625 156 67 C 156 65.34375 157.34375 64 159 64 C 160.65625 64 162 65.34375 162 67 Z M 162 67 "/>
<path style=" stroke:none;fill-rule:nonzero;fill:rgb(94.509804%,73.725492%,9.803922%);fill-opacity:1;" d="M 156 26 C 156 27.105469 155.105469 28 154 28 C 152.894531 28 152 27.105469 152 26 C 152 24.894531 152.894531 24 154 24 C 155.105469 24 156 24.894531 156 26 Z M 156 26 "/>
<path style=" stroke:none;fill-rule:nonzero;fill:rgb(93.725491%,60.000002%,13.333334%);fill-opacity:1;" d="M 82.734375 144.601562 C 74.34375 132.550781 65.320312 124.085938 53.675781 117.347656 C 55.949219 110.28125 58.628906 104.585938 62.0625 99.492188 L 62.632812 98.652344 L 62.007812 97.851562 C 55.398438 89.359375 55.398438 68.785156 55.398438 60 C 55.398438 52.027344 59.269531 52.027344 60.542969 52.027344 C 62.792969 52.027344 65.816406 53.125 69.277344 55.199219 C 76.765625 59.691406 85.570312 70.160156 89.011719 74.453125 L 89.613281 75.203125 L 90.527344 74.914062 C 93.710938 73.910156 96.898438 73.398438 100 73.398438 C 103.101562 73.398438 106.289062 73.90625 109.46875 74.914062 L 110.382812 75.203125 L 110.984375 74.457031 C 114.425781 70.160156 123.234375 59.691406 130.71875 55.203125 C 134.183594 53.125 137.203125 52.027344 139.457031 52.027344 C 140.726562 52.027344 144.597656 52.027344 144.597656 60.003906 C 144.597656 68.789062 144.597656 89.363281 137.988281 97.851562 L 137.363281 98.652344 L 137.933594 99.496094 C 141.496094 104.785156 144.179688 110.476562 146.328125 117.34375 C 134.679688 124.085938 125.652344 132.546875 117.261719 144.601562 Z M 82.734375 144.601562 "/>
<path style=" stroke:none;fill-rule:nonzero;fill:rgb(27.843139%,16.862746%,16.078432%);fill-opacity:1;" d="M 139.457031 53.425781 C 140.480469 53.425781 143.199219 53.425781 143.199219 60 C 143.199219 68.640625 143.199219 88.878906 136.886719 96.988281 L 135.636719 98.59375 L 136.773438 100.277344 C 140.078125 105.171875 142.609375 110.4375 144.65625 116.699219 C 133.480469 123.339844 124.699219 131.621094 116.539062 143.199219 L 83.460938 143.199219 C 75.304688 131.625 66.527344 123.347656 55.359375 116.707031 C 57.515625 110.265625 60.039062 104.996094 63.226562 100.277344 L 64.363281 98.59375 L 63.113281 96.988281 C 56.800781 88.878906 56.800781 68.640625 56.800781 60 C 56.800781 53.425781 59.519531 53.425781 60.542969 53.425781 C 61.9375 53.425781 64.460938 53.941406 68.558594 56.402344 C 75.851562 60.777344 84.527344 71.097656 87.921875 75.328125 L 89.121094 76.824219 L 90.949219 76.246094 C 93.996094 75.289062 97.039062 74.800781 100 74.800781 C 102.960938 74.800781 106.003906 75.289062 109.050781 76.25 L 110.878906 76.828125 L 112.078125 75.332031 C 115.46875 71.097656 124.148438 60.78125 131.441406 56.402344 C 135.539062 53.941406 138.0625 53.425781 139.457031 53.425781 M 139.457031 50.625 C 136.9375 50.625 133.75 51.753906 130 54.003906 C 122.398438 58.5625 113.65625 68.882812 109.894531 73.582031 C 106.6875 72.566406 103.394531 72 100 72 C 96.605469 72 93.3125 72.566406 90.105469 73.578125 C 86.34375 68.878906 77.601562 58.558594 70 54 C 66.25 51.75 63.0625 50.625 60.542969 50.625 C 56.34375 50.625 54 53.75 54 60 C 54 69.515625 54.015625 89.863281 60.902344 98.710938 C 57.046875 104.425781 54.25 110.75 52 118 C 64.679688 125.140625 73.765625 134.023438 82 146 L 118 146 C 126.234375 134.023438 135.320312 125.140625 148 118 C 145.75 110.5 142.953125 104.425781 139.097656 98.710938 C 145.984375 89.863281 146 69.515625 146 60 C 146 53.75 143.65625 50.625 139.457031 50.625 Z M 139.457031 50.625 "/>
<path style=" stroke:none;fill-rule:nonzero;fill:rgb(92.941177%,96.862745%,96.078432%);fill-opacity:1;" d="M 50 116.125 C 50 116.125 50 122.515625 58 126.773438 C 54 126.773438 50 126.773438 50 126.773438 C 50 126.773438 63.664062 143.804688 90.835938 147 C 90 139.546875 72 113.996094 50 116.125 Z M 50 116.125 "/>
<path style=" stroke:none;fill-rule:nonzero;fill:rgb(27.843139%,16.862746%,16.078432%);fill-opacity:1;" d="M 90.835938 148 C 90.792969 148 90.757812 147.996094 90.714844 147.992188 C 63.457031 144.789062 49.359375 127.570312 49.21875 127.394531 C 48.980469 127.097656 48.933594 126.6875 49.097656 126.339844 C 49.265625 125.992188 49.613281 125.773438 50 125.773438 L 54.597656 125.773438 C 49.070312 121.488281 49 116.375 49 116.125 C 49 115.609375 49.390625 115.179688 49.902344 115.128906 C 72.125 112.988281 90.871094 138.324219 91.828125 146.890625 C 91.863281 147.191406 91.753906 147.496094 91.539062 147.710938 C 91.351562 147.894531 91.097656 148 90.835938 148 Z M 52.269531 127.773438 C 56.375 131.960938 68.925781 142.988281 89.554688 145.828125 C 87.164062 137.945312 71.023438 115.894531 51.105469 117.042969 C 51.441406 118.839844 52.816406 122.878906 58.46875 125.886719 C 58.875 126.101562 59.078125 126.566406 58.96875 127.015625 C 58.855469 127.460938 58.457031 127.773438 57.996094 127.773438 Z M 52.269531 127.773438 "/>
<path style=" stroke:none;fill-rule:nonzero;fill:rgb(92.941177%,96.862745%,96.078432%);fill-opacity:1;" d="M 150 116.125 C 150 116.125 150 122.515625 142 126.773438 C 146 126.773438 150 126.773438 150 126.773438 C 150 126.773438 136.335938 143.804688 109.164062 147 C 110 139.546875 128 113.996094 150 116.125 Z M 150 116.125 "/>
<path style=" stroke:none;fill-rule:nonzero;fill:rgb(27.843139%,16.862746%,16.078432%);fill-opacity:1;" d="M 109.164062 148 C 108.902344 148 108.648438 147.894531 108.460938 147.707031 C 108.242188 147.492188 108.136719 147.191406 108.171875 146.886719 C 109.128906 138.324219 127.898438 113.019531 150.09375 115.128906 C 150.605469 115.179688 150.996094 115.609375 150.996094 116.125 C 150.996094 116.371094 150.925781 121.488281 145.398438 125.769531 L 150 125.769531 C 150.382812 125.769531 150.734375 125.988281 150.902344 126.339844 C 151.066406 126.683594 151.023438 127.097656 150.78125 127.394531 C 150.640625 127.566406 136.539062 144.785156 109.285156 147.992188 C 109.246094 147.996094 109.207031 148 109.164062 148 Z M 147.386719 117 C 128.148438 117 112.777344 138.144531 110.445312 145.828125 C 131.113281 142.984375 143.636719 131.960938 147.734375 127.773438 L 142 127.773438 C 141.542969 127.773438 141.140625 127.460938 141.03125 127.015625 C 140.921875 126.566406 141.125 126.105469 141.53125 125.886719 C 147.179688 122.878906 148.558594 118.839844 148.890625 117.042969 C 148.386719 117.015625 147.886719 117 147.386719 117 Z M 147.386719 117 "/>
<path style=" stroke:none;fill-rule:nonzero;fill:rgb(99.215686%,98.823529%,93.725491%);fill-opacity:1;" d="M 65.421875 58 C 65.421875 58 74.453125 62 78.066406 76 C 81.683594 90 69.035156 80 69.035156 80 C 69.035156 80 69.035156 98 65.421875 90 C 61.804688 82 60 68 60 62 C 60 56 63.613281 56 65.421875 58 Z M 65.421875 58 "/>
<path style=" stroke:none;fill-rule:nonzero;fill:rgb(99.215686%,98.823529%,93.725491%);fill-opacity:1;" d="M 134.578125 58 C 134.578125 58 125.546875 62 121.933594 76 C 118.316406 90 130.964844 80 130.964844 80 C 130.964844 80 130.964844 98 134.578125 90 C 138.195312 82 140 68 140 62 C 140 56 136.386719 56 134.578125 58 Z M 134.578125 58 "/>
<path style=" stroke:none;fill-rule:nonzero;fill:rgb(27.843139%,16.862746%,16.078432%);fill-opacity:1;" d="M 67.046875 92.550781 C 66.144531 92.550781 65.464844 91.3125 64.964844 90.207031 C 63.738281 87.496094 62.644531 83.964844 61.714844 79.707031 C 61.652344 79.4375 61.824219 79.171875 62.09375 79.113281 C 62.359375 79.058594 62.632812 79.222656 62.691406 79.492188 C 63.609375 83.683594 64.679688 87.148438 65.875 89.792969 C 66.636719 91.476562 67.050781 91.546875 67.054688 91.546875 C 67.839844 91.320312 68.535156 85.925781 68.535156 79.996094 C 68.535156 79.804688 68.644531 79.632812 68.816406 79.546875 C 68.988281 79.464844 69.195312 79.488281 69.34375 79.605469 C 70.945312 80.871094 75.496094 83.886719 77.335938 82.691406 C 78.425781 81.980469 78.511719 79.710938 77.585938 76.125 C 77.519531 75.855469 77.679688 75.585938 77.945312 75.515625 C 78.21875 75.441406 78.488281 75.605469 78.554688 75.875 C 79.628906 80.03125 79.40625 82.535156 77.882812 83.527344 C 75.617188 85.003906 71.359375 82.300781 69.53125 80.992188 C 69.488281 84.96875 69.144531 92.121094 67.265625 92.527344 C 67.191406 92.542969 67.117188 92.550781 67.046875 92.550781 Z M 67.046875 92.550781 "/>
<path style=" stroke:none;fill-rule:nonzero;fill:rgb(27.843139%,16.862746%,16.078432%);fill-opacity:1;" d="M 76.648438 72.101562 C 76.449219 72.101562 76.261719 71.980469 76.183594 71.785156 C 72.1875 61.660156 65.289062 58.488281 65.21875 58.457031 C 63.898438 57.910156 62.527344 57.425781 61.652344 58.003906 C 60.886719 58.515625 60.5 59.863281 60.5 62 C 60.5 62.277344 60.277344 62.5 60 62.5 C 59.722656 62.5 59.5 62.277344 59.5 62 C 59.5 59.472656 60.023438 57.890625 61.097656 57.175781 C 62.375 56.316406 64.03125 56.882812 65.609375 57.539062 C 65.921875 57.675781 72.953125 60.886719 77.109375 71.417969 C 77.210938 71.675781 77.085938 71.964844 76.828125 72.066406 C 76.769531 72.09375 76.707031 72.101562 76.648438 72.101562 Z M 76.648438 72.101562 "/>
<path style=" stroke:none;fill-rule:nonzero;fill:rgb(27.843139%,16.862746%,16.078432%);fill-opacity:1;" d="M 61.269531 75.257812 C 61.03125 75.257812 60.816406 75.085938 60.777344 74.839844 C 60.304688 72.011719 59.941406 69.121094 59.71875 66.480469 C 59.695312 66.207031 59.898438 65.964844 60.175781 65.941406 C 60.441406 65.921875 60.691406 66.121094 60.714844 66.398438 C 60.933594 69.015625 61.296875 71.875 61.765625 74.675781 C 61.808594 74.945312 61.625 75.203125 61.351562 75.25 C 61.324219 75.253906 61.296875 75.257812 61.269531 75.257812 Z M 61.269531 75.257812 "/>
<path style=" stroke:none;fill-rule:nonzero;fill:rgb(27.843139%,16.862746%,16.078432%);fill-opacity:1;" d="M 137.179688 82.714844 C 137.140625 82.714844 137.097656 82.710938 137.054688 82.699219 C 136.789062 82.632812 136.625 82.359375 136.695312 82.09375 C 137.347656 79.527344 137.914062 76.714844 138.386719 73.734375 C 138.429688 73.460938 138.691406 73.277344 138.957031 73.316406 C 139.230469 73.359375 139.414062 73.617188 139.375 73.890625 C 138.898438 76.902344 138.320312 79.742188 137.660156 82.339844 C 137.605469 82.566406 137.402344 82.714844 137.179688 82.714844 Z M 137.179688 82.714844 "/>
<path style=" stroke:none;fill-rule:nonzero;fill:rgb(27.843139%,16.862746%,16.078432%);fill-opacity:1;" d="M 132.953125 92.550781 C 132.882812 92.550781 132.8125 92.542969 132.738281 92.527344 C 130.859375 92.121094 130.519531 84.96875 130.472656 80.992188 C 128.648438 82.300781 124.382812 85 122.121094 83.527344 C 120.597656 82.535156 120.375 80.03125 121.449219 75.875 C 125.078125 61.800781 134 57.707031 134.378906 57.542969 C 135.5625 56.890625 137.304688 56.261719 138.6875 57.070312 C 139.890625 57.785156 140.5 59.441406 140.5 62 C 140.5 64.003906 140.304688 66.75 139.953125 69.734375 C 139.921875 70.007812 139.660156 70.21875 139.398438 70.171875 C 139.125 70.140625 138.929688 69.890625 138.960938 69.617188 C 139.308594 66.671875 139.503906 63.964844 139.503906 62.003906 C 139.503906 59.855469 139.042969 58.449219 138.179688 57.9375 C 137.152344 57.328125 135.636719 57.988281 134.820312 58.441406 C 134.695312 58.496094 125.921875 62.550781 122.414062 76.125 C 121.488281 79.710938 121.578125 81.984375 122.664062 82.691406 C 124.511719 83.894531 129.058594 80.871094 130.65625 79.609375 C 130.808594 79.488281 131.011719 79.46875 131.183594 79.550781 C 131.355469 79.632812 131.464844 79.808594 131.464844 80 C 131.464844 85.925781 132.160156 91.324219 132.949219 91.550781 C 132.949219 91.550781 133.363281 91.476562 134.125 89.792969 C 134.625 88.683594 135.117188 87.394531 135.582031 85.96875 C 135.667969 85.707031 135.949219 85.5625 136.210938 85.648438 C 136.472656 85.734375 136.617188 86.015625 136.53125 86.277344 C 136.054688 87.738281 135.550781 89.0625 135.03125 90.207031 C 134.535156 91.3125 133.855469 92.550781 132.953125 92.550781 Z M 132.953125 92.550781 "/>
<path style=" stroke:none;fill-rule:nonzero;fill:rgb(92.941177%,96.862745%,96.078432%);fill-opacity:1;" d="M 113.691406 137.835938 C 110.6875 135.703125 105.070312 134.808594 101.179688 135.152344 C 100.878906 135.179688 100.585938 135.144531 100.28125 135.144531 L 100.28125 135.160156 C 100.1875 135.164062 100.09375 135.164062 99.996094 135.167969 C 99.902344 135.164062 99.808594 135.164062 99.714844 135.160156 L 99.714844 135.144531 C 99.410156 135.144531 99.117188 135.183594 98.816406 135.152344 C 94.925781 134.808594 89.308594 135.703125 86.304688 137.835938 C 82.792969 140.527344 83.429688 148.929688 87.261719 152.964844 C 90.136719 155.992188 94.925781 157 98.757812 157 C 99.136719 157 99.558594 156.984375 99.996094 156.960938 C 100.4375 156.984375 100.859375 157 101.238281 157 C 105.070312 157 109.859375 155.992188 112.730469 152.964844 C 116.566406 148.933594 117.203125 140.527344 113.691406 137.835938 Z M 113.691406 137.835938 "/>
<path style=" stroke:none;fill-rule:nonzero;fill:rgb(27.843139%,16.862746%,16.078432%);fill-opacity:1;" d="M 101.242188 158 C 100.847656 158 100.40625 157.980469 99.949219 157.957031 C 99.597656 157.980469 99.152344 158 98.757812 158 C 96.324219 158 90.261719 157.574219 86.539062 153.652344 C 84.136719 151.125 82.730469 146.789062 83.039062 142.867188 C 83.246094 140.265625 84.1875 138.195312 85.699219 137.042969 C 89.003906 134.695312 94.964844 133.8125 98.90625 134.160156 C 99.054688 134.167969 99.207031 134.164062 99.359375 134.15625 L 99.707031 134.144531 C 99.863281 134.125 99.890625 134.15625 99.976562 134.183594 L 99.976562 134.171875 L 99.980469 134.183594 C 99.988281 134.1875 99.996094 134.1875 100.003906 134.191406 C 100.09375 134.160156 100.152344 134.109375 100.289062 134.148438 L 100.640625 134.15625 C 100.792969 134.167969 100.945312 134.175781 101.09375 134.160156 C 105.035156 133.8125 110.996094 134.695312 114.273438 137.023438 C 114.28125 137.03125 114.292969 137.039062 114.300781 137.046875 C 115.808594 138.199219 116.753906 140.269531 116.960938 142.871094 C 117.269531 146.792969 115.863281 151.128906 113.460938 153.65625 C 109.734375 157.574219 103.675781 158 101.242188 158 Z M 99.945312 155.960938 C 100.472656 155.980469 100.878906 156 101.238281 156 C 105.769531 156 109.796875 154.609375 112.007812 152.277344 C 114.042969 150.136719 115.230469 146.414062 114.960938 143.027344 C 114.804688 141.007812 114.140625 139.449219 113.097656 138.640625 C 110.308594 136.675781 104.890625 135.824219 101.265625 136.152344 C 101.023438 136.175781 100.789062 136.167969 100.554688 136.15625 L 100.4375 136.152344 C 100.394531 136.160156 100.347656 136.164062 100.300781 136.164062 C 100.289062 136.164062 100.007812 136.171875 99.976562 136.171875 C 99.894531 136.171875 99.808594 136.15625 99.722656 136.136719 L 99.722656 136.148438 L 99.445312 136.15625 C 99.207031 136.167969 98.972656 136.175781 98.734375 136.152344 C 95.082031 135.824219 89.667969 136.679688 86.886719 138.652344 C 85.863281 139.4375 85.195312 141 85.035156 143.027344 C 84.769531 146.417969 85.953125 150.136719 87.988281 152.277344 C 90.203125 154.609375 94.230469 156 98.757812 156 C 99.121094 156 99.527344 155.980469 99.945312 155.960938 Z M 99.996094 135.164062 L 100 135.171875 Z M 99.996094 135.164062 "/>
<path style=" stroke:none;fill-rule:nonzero;fill:rgb(27.843139%,16.862746%,16.078432%);fill-opacity:1;" d="M 106.855469 138.277344 L 106.769531 137.847656 C 106.320312 135.609375 104.359375 134 102.074219 134 L 97.925781 134 C 95.640625 134 93.679688 135.609375 93.230469 137.847656 L 93.144531 138.277344 C 92.550781 141.238281 94.816406 144 97.839844 144 C 98.8125 144.03125 99.523438 144.824219 100 146 C 100.476562 144.824219 101.1875 144.03125 102.160156 144 C 105.183594 144 107.449219 141.238281 106.855469 138.277344 Z M 106.855469 138.277344 "/>
<path style=" stroke:none;fill-rule:nonzero;fill:rgb(27.843139%,16.862746%,16.078432%);fill-opacity:1;" d="M 70 110.21875 C 70 110.21875 71.039062 105.3125 80.070312 106.808594 C 80.59375 113.4375 74.984375 111.703125 74.984375 111.703125 C 74.984375 111.703125 74.5 109.074219 70 110.21875 Z M 70 110.21875 "/>
<path style=" stroke:none;fill-rule:nonzero;fill:rgb(100%,80.784315%,0%);fill-opacity:1;" d="M 81.664062 117.117188 C 77.933594 117.117188 75.328125 113.589844 75.328125 108.542969 C 75.328125 107.988281 75.777344 107.542969 76.328125 107.542969 C 82.605469 107.542969 86.285156 109.4375 87.574219 113.339844 C 87.695312 113.699219 87.597656 114.097656 87.328125 114.363281 C 85.515625 116.164062 83.558594 117.117188 81.664062 117.117188 Z M 81.664062 117.117188 "/>
<path style=" stroke:none;fill-rule:nonzero;fill:rgb(27.843139%,16.862746%,16.078432%);fill-opacity:1;" d="M 76.328125 108.542969 C 81.476562 108.542969 85.355469 109.816406 86.625 113.652344 C 84.90625 115.359375 83.191406 116.117188 81.664062 116.117188 C 78.617188 116.117188 76.328125 113.085938 76.328125 108.542969 M 76.328125 106.542969 C 75.222656 106.542969 74.328125 107.4375 74.328125 108.542969 C 74.328125 114.089844 77.414062 118.117188 81.667969 118.117188 C 83.175781 118.117188 85.503906 117.589844 88.035156 115.074219 C 88.570312 114.539062 88.761719 113.746094 88.523438 113.027344 C 86.378906 106.542969 78.8125 106.542969 76.328125 106.542969 Z M 76.328125 106.542969 "/>
<path style=" stroke:none;fill-rule:nonzero;fill:rgb(27.843139%,16.862746%,16.078432%);fill-opacity:1;" d="M 79 107.070312 L 81.5 115.015625 L 84 109.054688 Z M 79 107.070312 "/>
<path style=" stroke:none;fill-rule:nonzero;fill:rgb(27.843139%,16.862746%,16.078432%);fill-opacity:1;" d="M 130.625 110.21875 C 130.625 110.21875 129.585938 105.3125 120.550781 106.808594 C 120.03125 113.4375 125.640625 111.703125 125.640625 111.703125 C 125.640625 111.703125 126.125 109.074219 130.625 110.21875 Z M 130.625 110.21875 "/>
<path style=" stroke:none;fill-rule:nonzero;fill:rgb(100%,80.784315%,0%);fill-opacity:1;" d="M 118.957031 117.117188 C 117.066406 117.117188 115.109375 116.164062 113.296875 114.363281 C 113.027344 114.097656 112.933594 113.699219 113.050781 113.339844 C 114.34375 109.441406 118.019531 107.542969 124.296875 107.542969 C 124.851562 107.542969 125.296875 107.992188 125.296875 108.542969 C 125.296875 110.960938 124.707031 113.058594 123.585938 114.617188 C 122.425781 116.226562 120.78125 117.117188 118.957031 117.117188 Z M 118.957031 117.117188 "/>
<path style=" stroke:none;fill-rule:nonzero;fill:rgb(27.843139%,16.862746%,16.078432%);fill-opacity:1;" d="M 124.296875 108.542969 L 124.304688 108.542969 M 124.296875 108.542969 C 124.296875 113.085938 122.007812 116.117188 118.957031 116.117188 C 117.429688 116.117188 115.714844 115.359375 113.996094 113.652344 C 115.269531 109.816406 119.148438 108.542969 124.296875 108.542969 M 124.304688 106.542969 L 124.296875 106.542969 C 121.808594 106.542969 114.242188 106.542969 112.101562 113.027344 C 111.863281 113.746094 112.050781 114.539062 112.589844 115.070312 C 115.121094 117.585938 117.449219 118.113281 118.957031 118.113281 C 123.171875 118.113281 126.238281 114.160156 126.292969 108.695312 C 126.296875 108.644531 126.300781 108.59375 126.300781 108.542969 C 126.300781 107.4375 125.410156 106.542969 124.304688 106.542969 Z M 124.296875 110.542969 L 124.304688 110.542969 Z M 124.296875 110.542969 "/>
<path style=" stroke:none;fill-rule:nonzero;fill:rgb(27.843139%,16.862746%,16.078432%);fill-opacity:1;" d="M 121.625 107.070312 L 119.125 115.015625 L 116.625 109.054688 Z M 121.625 107.070312 "/>
<path style=" stroke:none;fill-rule:nonzero;fill:rgb(27.843139%,16.862746%,16.078432%);fill-opacity:1;" d="M 84.25 142.585938 C 84.160156 142.585938 84.074219 142.570312 83.984375 142.546875 C 83.453125 142.402344 83.136719 141.851562 83.285156 141.320312 C 83.320312 141.191406 86.910156 128.050781 89.984375 120.136719 C 90.183594 119.621094 90.765625 119.367188 91.277344 119.566406 C 91.792969 119.769531 92.046875 120.347656 91.847656 120.859375 C 88.8125 128.675781 85.246094 141.714844 85.214844 141.847656 C 85.09375 142.292969 84.691406 142.585938 84.25 142.585938 Z M 84.25 142.585938 "/>
<path style=" stroke:none;fill-rule:nonzero;fill:rgb(27.843139%,16.862746%,16.078432%);fill-opacity:1;" d="M 115.664062 142.414062 C 115.210938 142.414062 114.796875 142.105469 114.691406 141.640625 C 114.660156 141.511719 111.683594 128.632812 109.054688 120.816406 C 108.878906 120.292969 109.15625 119.726562 109.683594 119.550781 C 110.214844 119.378906 110.773438 119.65625 110.949219 120.179688 C 113.613281 128.089844 116.613281 141.058594 116.640625 141.191406 C 116.765625 141.730469 116.429688 142.265625 115.890625 142.390625 C 115.816406 142.40625 115.738281 142.414062 115.664062 142.414062 Z M 115.664062 142.414062 "/>
<path style=" stroke:none;fill-rule:nonzero;fill:rgb(27.843139%,16.862746%,16.078432%);fill-opacity:1;" d="M 93.765625 153.261719 C 92.992188 153.261719 92.230469 153.21875 91.507812 153.136719 C 87.773438 152.730469 85.074219 151.382812 84.105469 149.445312 C 83.859375 148.953125 84.058594 148.351562 84.554688 148.105469 C 85.046875 147.855469 85.648438 148.058594 85.894531 148.550781 C 86.535156 149.832031 88.769531 150.828125 91.726562 151.152344 C 95.019531 151.507812 97.980469 150.953125 99.003906 150.164062 L 99.003906 141.164062 C 99.003906 140.613281 99.449219 140.164062 100.003906 140.164062 C 100.554688 140.164062 101.003906 140.613281 101.003906 141.164062 L 101.003906 150.582031 C 101.003906 150.808594 100.921875 151.035156 100.777344 151.210938 C 99.589844 152.675781 96.632812 153.261719 93.765625 153.261719 Z M 93.765625 153.261719 "/>
<path style=" stroke:none;fill-rule:nonzero;fill:rgb(27.843139%,16.862746%,16.078432%);fill-opacity:1;" d="M 106.328125 153.097656 C 103.421875 153.097656 100.433594 152.511719 99.230469 151.054688 C 99.082031 150.875 99.003906 150.648438 99.003906 150.417969 L 99.003906 141 C 99.003906 140.449219 99.449219 140 100.003906 140 C 100.554688 140 101.003906 140.449219 101.003906 141 L 101.003906 149.992188 C 102.050781 150.789062 105.082031 151.347656 108.464844 150.980469 C 111.453125 150.648438 113.714844 149.652344 114.359375 148.378906 C 114.609375 147.886719 115.210938 147.691406 115.703125 147.941406 C 116.195312 148.191406 116.390625 148.792969 116.140625 149.285156 C 114.800781 151.921875 110.890625 152.722656 108.683594 152.96875 C 107.929688 153.050781 107.132812 153.097656 106.328125 153.097656 Z M 106.328125 153.097656 "/>
<path style=" stroke:none;fill-rule:nonzero;fill:rgb(27.843139%,16.862746%,16.078432%);fill-opacity:1;" d="M 91 107.5 C 90.777344 107.5 90.570312 107.347656 90.515625 107.121094 C 88.585938 99.398438 82.78125 95.457031 82.722656 95.414062 C 82.492188 95.261719 82.429688 94.953125 82.585938 94.722656 C 82.738281 94.492188 83.046875 94.429688 83.277344 94.585938 C 83.53125 94.753906 89.460938 98.785156 91.484375 106.878906 C 91.550781 107.144531 91.390625 107.417969 91.121094 107.484375 C 91.078125 107.496094 91.039062 107.5 91 107.5 Z M 91 107.5 "/>
<path style=" stroke:none;fill-rule:nonzero;fill:rgb(27.843139%,16.862746%,16.078432%);fill-opacity:1;" d="M 78.644531 81.480469 C 78.421875 81.480469 78.21875 81.328125 78.160156 81.101562 C 77.519531 78.542969 75.035156 74.164062 70.929688 70.164062 C 70.730469 69.96875 70.726562 69.652344 70.921875 69.457031 C 71.117188 69.257812 71.433594 69.253906 71.628906 69.445312 C 75.875 73.585938 78.457031 78.160156 79.128906 80.859375 C 79.195312 81.128906 79.035156 81.398438 78.765625 81.464844 C 78.726562 81.472656 78.6875 81.480469 78.644531 81.480469 Z M 78.644531 81.480469 "/>
<path style=" stroke:none;fill-rule:nonzero;fill:rgb(27.843139%,16.862746%,16.078432%);fill-opacity:1;" d="M 68.714844 68.042969 C 68.605469 68.042969 68.496094 68.007812 68.402344 67.933594 C 67.078125 66.882812 65.691406 65.949219 64.277344 65.164062 C 64.035156 65.03125 63.945312 64.726562 64.078125 64.484375 C 64.214844 64.242188 64.519531 64.15625 64.761719 64.289062 C 66.222656 65.101562 67.65625 66.0625 69.023438 67.148438 C 69.238281 67.320312 69.277344 67.636719 69.105469 67.855469 C 69.007812 67.976562 68.863281 68.042969 68.714844 68.042969 Z M 68.714844 68.042969 "/>
<path style=" stroke:none;fill-rule:nonzero;fill:rgb(27.843139%,16.862746%,16.078432%);fill-opacity:1;" d="M 78.585938 81.605469 C 78.410156 81.605469 78.238281 81.511719 78.148438 81.347656 C 74.546875 74.929688 63.816406 72.117188 63.710938 72.089844 C 63.441406 72.019531 63.28125 71.746094 63.351562 71.480469 C 63.421875 71.214844 63.6875 71.050781 63.957031 71.121094 C 64.414062 71.238281 75.207031 74.0625 79.019531 80.859375 C 79.152344 81.101562 79.066406 81.402344 78.828125 81.539062 C 78.75 81.585938 78.664062 81.605469 78.585938 81.605469 Z M 78.585938 81.605469 "/>
<path style=" stroke:none;fill-rule:nonzero;fill:rgb(27.843139%,16.862746%,16.078432%);fill-opacity:1;" d="M 121.207031 81.480469 C 121.167969 81.480469 121.125 81.476562 121.085938 81.464844 C 120.816406 81.398438 120.65625 81.128906 120.722656 80.859375 C 121.726562 76.835938 126.992188 68.785156 135.089844 64.292969 C 135.328125 64.160156 135.632812 64.246094 135.769531 64.488281 C 135.902344 64.730469 135.816406 65.035156 135.574219 65.171875 C 127.734375 69.519531 122.65625 77.246094 121.691406 81.105469 C 121.636719 81.328125 121.433594 81.480469 121.207031 81.480469 Z M 121.207031 81.480469 "/>
<path style=" stroke:none;fill-rule:nonzero;fill:rgb(27.843139%,16.862746%,16.078432%);fill-opacity:1;" d="M 121.269531 81.605469 C 121.1875 81.605469 121.105469 81.585938 121.023438 81.539062 C 120.785156 81.402344 120.699219 81.101562 120.832031 80.859375 C 122.148438 78.507812 124.453125 76.378906 127.679688 74.523438 C 127.914062 74.386719 128.222656 74.46875 128.359375 74.707031 C 128.496094 74.949219 128.414062 75.253906 128.175781 75.390625 C 125.109375 77.152344 122.933594 79.15625 121.707031 81.347656 C 121.617188 81.511719 121.445312 81.605469 121.269531 81.605469 Z M 121.269531 81.605469 "/>
<path style=" stroke:none;fill-rule:nonzero;fill:rgb(27.843139%,16.862746%,16.078432%);fill-opacity:1;" d="M 131.410156 73.730469 C 131.214844 73.730469 131.03125 73.617188 130.949219 73.429688 C 130.84375 73.175781 130.957031 72.882812 131.210938 72.773438 C 133.816406 71.65625 135.8125 71.140625 135.894531 71.121094 C 136.164062 71.046875 136.4375 71.214844 136.503906 71.480469 C 136.570312 71.746094 136.410156 72.019531 136.144531 72.089844 C 136.125 72.09375 134.132812 72.609375 131.605469 73.691406 C 131.542969 73.71875 131.476562 73.730469 131.410156 73.730469 Z M 131.410156 73.730469 "/>
<path style=" stroke:none;fill-rule:nonzero;fill:rgb(27.843139%,16.862746%,16.078432%);fill-opacity:1;" d="M 87 105.5 C 86.871094 105.5 86.742188 105.453125 86.644531 105.355469 C 84.726562 103.433594 80.8125 101.46875 80.777344 101.449219 C 80.527344 101.324219 80.429688 101.023438 80.550781 100.777344 C 80.679688 100.53125 80.976562 100.433594 81.222656 100.554688 C 81.386719 100.636719 85.316406 102.613281 87.351562 104.648438 C 87.546875 104.84375 87.546875 105.160156 87.351562 105.355469 C 87.257812 105.453125 87.128906 105.5 87 105.5 Z M 87 105.5 "/>
<path style=" stroke:none;fill-rule:nonzero;fill:rgb(27.843139%,16.862746%,16.078432%);fill-opacity:1;" d="M 109 107.5 C 108.960938 107.5 108.921875 107.496094 108.878906 107.484375 C 108.609375 107.417969 108.449219 107.144531 108.515625 106.878906 C 110.539062 98.785156 116.46875 94.753906 116.722656 94.585938 C 116.953125 94.429688 117.261719 94.492188 117.414062 94.722656 C 117.570312 94.953125 117.507812 95.261719 117.277344 95.414062 C 117.21875 95.457031 111.410156 99.414062 109.484375 107.121094 C 109.429688 107.347656 109.222656 107.5 109 107.5 Z M 109 107.5 "/>
<path style=" stroke:none;fill-rule:nonzero;fill:rgb(27.843139%,16.862746%,16.078432%);fill-opacity:1;" d="M 113 105.5 C 112.871094 105.5 112.742188 105.453125 112.644531 105.355469 C 112.449219 105.15625 112.449219 104.84375 112.644531 104.644531 C 114.679688 102.613281 118.609375 100.636719 118.777344 100.550781 C 119.027344 100.429688 119.320312 100.527344 119.445312 100.777344 C 119.570312 101.023438 119.46875 101.320312 119.222656 101.445312 C 119.183594 101.464844 115.269531 103.433594 113.351562 105.351562 C 113.257812 105.453125 113.128906 105.5 113 105.5 Z M 113 105.5 "/>
</g>
</svg>
