<svg xmlns="http://www.w3.org/2000/svg"  viewBox="0 0 100 100" width="200px" height="200px"><circle cx="78" cy="14" r="1" fill="#f1bc19"/><circle cx="50" cy="50" r="38" fill="#f9dbd2"/><circle cx="84" cy="16" r="4" fill="#f1bc19"/><circle cx="14" cy="26" r="2" fill="#ee3e54"/><circle cx="78" cy="77" r="2" fill="#fbcd59"/><circle cx="17" cy="78" r="4" fill="#fbcd59"/><circle cx="24" cy="83" r="2" fill="#ee3e54"/><circle cx="66.483" cy="78.517" r="2.483" fill="#fff"/><circle cx="16" cy="48" r="1" fill="#fff"/><circle cx="86" cy="31" r="1" fill="#f1bc19"/><circle cx="72" cy="73" r="2" fill="#fff"/><g><polygon fill="#88ae45" points="38.642,33.172 32.449,35.644 35.136,40.131 32.217,43.159 35.099,46.335 32.055,49.224 35.589,52.564 33.811,56.571 41.242,58.516"/><path fill="#472b29" d="M41.242,59.016c-0.042,0-0.085-0.005-0.127-0.016l-7.432-1.945 c-0.142-0.037-0.26-0.135-0.323-0.267s-0.066-0.286-0.007-0.42l1.636-3.683l-3.278-3.097c-0.1-0.094-0.156-0.226-0.156-0.363 s0.057-0.269,0.156-0.363l2.689-2.552l-2.554-2.814c-0.177-0.195-0.173-0.494,0.01-0.683l2.653-2.752l-2.489-4.159 c-0.075-0.126-0.092-0.278-0.045-0.417s0.152-0.25,0.288-0.304l6.193-2.472c0.146-0.058,0.311-0.045,0.444,0.037 c0.135,0.081,0.223,0.221,0.238,0.377l2.6,25.344c0.017,0.163-0.047,0.324-0.172,0.431C41.476,58.974,41.36,59.016,41.242,59.016z M34.506,56.236l6.165,1.613l-2.458-23.968l-5.033,2.009l2.385,3.984c0.116,0.194,0.088,0.441-0.068,0.604l-2.595,2.691 l2.568,2.83c0.183,0.201,0.171,0.512-0.026,0.699l-2.661,2.526l3.151,2.978c0.153,0.146,0.199,0.373,0.113,0.566L34.506,56.236z"/><path fill="#c0d078" d="M40.763,62.223c-0.852-2.709-4.762-16.144-2.197-26.778c1.589-6.591,7.036-7.576,10.142-7.576 c1.115,0,1.866,0.131,1.873,0.132c0.061,0.01,5.191,0.909,5.601,4.545l0.055,0.484l0.473,0.117 c1.374,0.339,2.696,0.385,3.808,0.385c0.296,0,1.701-0.013,1.701-0.013c1.426,0,2.928,0.073,4.245,0.939 c2.201,1.449-0.65,6.022-0.68,6.068l-0.213,0.332l0.173,0.354c0.079,0.173,0.432,1.118-0.724,1.933 c-3.155,2.225-8.676,3.153-8.73,3.163l-0.542,0.089l-0.043,0.547c-0.02,0.255-0.466,6.313,1.474,11.099 c0.124,0.306,0.104,0.548-0.066,0.808C55.706,60.991,46.561,62.036,40.763,62.223z"/><path fill="#472b29" d="M48.708,28.57c1.044,0,1.745,0.12,1.765,0.124c0.047,0.008,4.663,0.828,5.012,3.932l0.109,0.969 l0.947,0.234c1.447,0.357,2.822,0.405,3.976,0.405c0.299,0,0.594-0.003,0.886-0.007c0.275-0.003,0.546-0.006,0.815-0.006 c1.651,0,2.812,0.135,3.859,0.824c1.38,0.908-0.375,4.312-0.882,5.104l-0.518,0.598l0.419,0.738 c0.109,0.266,0.113,0.671-0.481,1.091c-3.016,2.127-8.388,3.035-8.442,3.044l-1.083,0.179l-0.085,1.093 c-0.02,0.262-0.477,6.479,1.523,11.416c0.024,0.06,0.028,0.095,0.028,0.101c-0.003,0.014-0.611,1.467-7.917,2.455 c-2.935,0.397-5.86,0.568-7.368,0.636c-1.073-3.547-4.418-15.971-2.026-25.889C40.648,29.791,45.165,28.57,48.708,28.57 M48.708,27.17c-3.153,0-9.104,0.983-10.823,8.111c-2.934,12.167,2.374,27.656,2.374,27.656s19.466-0.469,17.567-5.156 C55.926,53.094,56.401,47,56.401,47s5.697-0.938,9.021-3.281c1.728-1.218,0.95-2.813,0.95-2.813s3.324-5.156,0.475-7.031 c-1.424-0.938-2.967-1.055-4.629-1.055c-0.554,0-1.121,0.013-1.701,0.013c-1.161,0-2.374-0.052-3.64-0.365 c-0.475-4.219-6.172-5.156-6.172-5.156S49.909,27.17,48.708,27.17L48.708,27.17z"/><path fill="#fbcd59" d="M37.844,55.906l4.688-6.563l11.25,8.438l5.625-5.625l4.688,5.625l8.553-6.72 C72.874,52.532,73,54.004,73,55.457C73,69.168,62.409,77,50.5,77S28,69.168,28,55.457c0-1.176,0.083-2.365,0.234-3.555 L37.844,55.906z"/><path fill="#fff" d="M54.25,35.281c0,1.812-1.469,1.641-3.281,1.641s-3.281,0.172-3.281-1.641S49.157,32,50.969,32 S54.25,33.469,54.25,35.281z"/><path fill="#472b29" d="M51.802,37.176c-0.131,0-0.265-0.001-0.401-0.002l-0.432-0.002l-0.432,0.002 c-1.121,0.01-2.078,0.016-2.64-0.541c-0.31-0.307-0.46-0.75-0.46-1.352c0-1.947,1.584-3.531,3.531-3.531s3.531,1.584,3.531,3.531 c0,0.602-0.15,1.044-0.46,1.352C53.547,37.122,52.744,37.176,51.802,37.176z M50.969,36.672l0.436,0.002 c1.003,0.008,1.869,0.014,2.283-0.396C53.897,36.069,54,35.743,54,35.281c0-1.671-1.359-3.031-3.031-3.031 s-3.031,1.36-3.031,3.031c0,0.462,0.103,0.788,0.313,0.997c0.414,0.41,1.282,0.404,2.283,0.396L50.969,36.672z"/><path fill="#472b29" d="M53.782,42.341c-0.13,0-0.259-0.049-0.355-0.149c-0.193-0.196-0.193-0.509,0.001-0.703 c0.044-0.044,1.107-1.084,3.166-1.084c0.499,0,1.185,0.085,1.978,0.184c2.129,0.265,5.341,0.665,6.575-0.569 c0.195-0.195,0.512-0.195,0.707,0c0.195,0.195,0.195,0.512,0,0.707c-1.58,1.58-4.945,1.16-7.405,0.854 c-0.761-0.095-1.417-0.177-1.854-0.177c-1.622,0-2.429,0.761-2.462,0.794C54.034,42.294,53.908,42.341,53.782,42.341z"/><path fill="#fbcd59" d="M30.998,35.324c3.19-6.317,7.949-10.455,13.155-11.405c0.798-0.146,1.624-0.219,2.455-0.219 c3.188,0,6.559,1.069,9.844,3.11l-6.726,0.415l-2.795,2.76h-4.898l-2.535,7.286L30.998,35.324z"/><path fill="#472b29" d="M46.609,24.4c2.396,0,4.908,0.635,7.41,1.859l-4.074,0.251l-0.524,0.033l-0.374,0.369 l-2.404,2.375h-4.113h-0.995l-0.327,0.94l-2.166,6.223l-7.004-1.604c3.078-5.67,7.472-9.367,12.24-10.236 C45.036,24.47,45.819,24.4,46.609,24.4 M46.609,23c-0.865,0-1.727,0.075-2.581,0.231c-6.053,1.104-11.009,6.138-14.045,12.579 l9.971,2.284l2.578-7.408h4.688l2.813-2.778l8.519-0.526C54.827,24.664,50.682,23,46.609,23L46.609,23z"/><circle cx="55" cy="65.875" r="4" fill="#ce942b"/><circle cx="46" cy="61" r="3" fill="#ce942b"/><circle cx="35.5" cy="61.5" r="1.5" fill="#ce942b"/><path fill="#472b29" d="M55,70.125c-2.344,0-4.25-1.906-4.25-4.25c0-0.138,0.112-0.25,0.25-0.25s0.25,0.112,0.25,0.25 c0,2.068,1.683,3.75,3.75,3.75s3.75-1.682,3.75-3.75s-1.683-3.75-3.75-3.75c-0.138,0-0.25-0.112-0.25-0.25s0.112-0.25,0.25-0.25 c2.344,0,4.25,1.906,4.25,4.25S57.344,70.125,55,70.125z"/><path fill="#472b29" d="M51.344,64.5c-0.034,0-0.068-0.007-0.102-0.022c-0.126-0.056-0.183-0.204-0.127-0.33 c0.487-1.095,1.42-1.938,2.557-2.312c0.137-0.044,0.273,0.029,0.315,0.16c0.043,0.131-0.028,0.272-0.159,0.316 c-1.004,0.33-1.826,1.073-2.256,2.04C51.53,64.445,51.439,64.5,51.344,64.5z"/><path fill="#472b29" d="M46,64.25c-1.792,0-3.25-1.458-3.25-3.25c0-0.138,0.112-0.25,0.25-0.25s0.25,0.112,0.25,0.25 c0,1.516,1.233,2.75,2.75,2.75c0.138,0,0.25,0.112,0.25,0.25S46.138,64.25,46,64.25z"/><path fill="#472b29" d="M47.5,63.849c-0.086,0-0.17-0.045-0.217-0.125c-0.068-0.12-0.028-0.272,0.092-0.342 c0.848-0.491,1.375-1.404,1.375-2.382c0-0.138,0.112-0.25,0.25-0.25s0.25,0.112,0.25,0.25c0,1.156-0.623,2.235-1.625,2.815 C47.586,63.838,47.543,63.849,47.5,63.849z"/><path fill="#472b29" d="M48.667,59.875c-0.09,0-0.178-0.049-0.222-0.135c-0.476-0.919-1.412-1.49-2.445-1.49 c-0.999,0-1.921,0.543-2.406,1.418c-0.067,0.121-0.221,0.165-0.34,0.097c-0.121-0.067-0.164-0.219-0.098-0.34 c0.573-1.034,1.663-1.676,2.844-1.676c1.221,0,2.328,0.674,2.889,1.76c0.063,0.123,0.016,0.274-0.106,0.337 C48.745,59.866,48.706,59.875,48.667,59.875z"/><path fill="#472b29" d="M35.5,63.25c-0.965,0-1.75-0.785-1.75-1.75c0-0.369,0.113-0.722,0.328-1.021 c0.081-0.113,0.238-0.137,0.349-0.057c0.112,0.08,0.138,0.237,0.058,0.349c-0.153,0.214-0.234,0.466-0.234,0.729 c0,0.689,0.561,1.25,1.25,1.25s1.25-0.561,1.25-1.25s-0.561-1.25-1.25-1.25c-0.138,0-0.25-0.112-0.25-0.25s0.112-0.25,0.25-0.25 c0.965,0,1.75,0.785,1.75,1.75S36.465,63.25,35.5,63.25z"/><path fill="#472b29" d="M50.969,36.922c1.34,0,2.489,0.089,2.998-0.595C53.985,36.22,54,36.112,54,36c0-1.104-0.895-2-2-2 s-2,0.896-2,2c0,0.334,0.09,0.645,0.235,0.922C50.474,36.922,50.711,36.922,50.969,36.922z"/><path fill="#472b29" d="M58.5,36.75c-0.138,0-0.25-0.112-0.25-0.25c0-2.08,1.029-3.133,1.073-3.177 c0.099-0.098,0.256-0.097,0.353,0c0.098,0.097,0.099,0.255,0.002,0.353c-0.01,0.009-0.928,0.963-0.928,2.824 C58.75,36.638,58.638,36.75,58.5,36.75z"/><path fill="#472b29" d="M61.5,36.75c-0.138,0-0.25-0.112-0.25-0.25c0-2.08,1.029-3.133,1.073-3.177 c0.098-0.098,0.255-0.097,0.353,0c0.098,0.097,0.099,0.255,0.002,0.353c-0.01,0.009-0.928,0.963-0.928,2.824 C61.75,36.638,61.638,36.75,61.5,36.75z"/><path fill="#472b29" d="M66.5,37.75c-2.225,0-2.25-1.199-2.25-1.25c0-0.138,0.112-0.25,0.25-0.25 c0.137,0,0.247,0.109,0.25,0.245c0.003,0.042,0.071,0.755,1.75,0.755c0.138,0,0.25,0.112,0.25,0.25S66.638,37.75,66.5,37.75z M64.75,36.5h0.006H64.75z"/><path fill="#472b29" d="M53.16,46.905c-0.276,0-0.547-0.007-0.812-0.021c-3.913-0.207-5.305-1.874-5.362-1.945 c-0.174-0.215-0.141-0.53,0.074-0.703c0.214-0.172,0.525-0.141,0.7,0.07c0.023,0.027,1.235,1.399,4.641,1.579 c1.173,0.062,2.483-0.024,3.893-0.254c0.266-0.044,0.529,0.14,0.574,0.413c0.045,0.272-0.14,0.53-0.412,0.574 C55.29,46.809,54.186,46.905,53.16,46.905z"/><path fill="#ce942b" d="M47.831,76.858c0.733-1.106,1.161-2.432,1.161-3.858c0-3.866-3.134-7-7-7 c-3.404,0-6.237,2.43-6.867,5.649C38.592,74.594,43.037,76.376,47.831,76.858z"/><path fill="#472b29" d="M48.672,71.125c-0.106,0-0.204-0.068-0.238-0.174c-0.896-2.812-3.48-4.701-6.434-4.701 c-0.138,0-0.25-0.112-0.25-0.25s0.112-0.25,0.25-0.25c3.171,0,5.948,2.029,6.91,5.049c0.042,0.132-0.031,0.272-0.162,0.314 C48.723,71.121,48.697,71.125,48.672,71.125z"/><path fill="#472b29" d="M35.328,71.125c-0.025,0-0.051-0.004-0.076-0.012c-0.131-0.042-0.204-0.182-0.162-0.314 c0.729-2.289,2.538-4.064,4.839-4.749c0.132-0.04,0.271,0.036,0.311,0.168c0.04,0.132-0.035,0.271-0.168,0.311 c-2.143,0.638-3.826,2.29-4.505,4.421C35.532,71.057,35.435,71.125,35.328,71.125z"/><path fill="#472b29" d="M48.266,76.375c-0.038,0-0.076-0.008-0.111-0.026c-0.124-0.062-0.174-0.212-0.112-0.335 c0.47-0.941,0.708-1.955,0.708-3.014c0-0.138,0.112-0.25,0.25-0.25s0.25,0.112,0.25,0.25c0,1.137-0.256,2.226-0.761,3.237 C48.445,76.325,48.357,76.375,48.266,76.375z"/><g><path fill="#472b29" d="M42.838,51.324l10.104,7.578l0.971,0.729l0.859-0.859l4.541-4.541l3.706,4.448l0.871,1.045 l1.07-0.84l6.58-5.169c0.041,0.594,0.062,1.176,0.062,1.744C71.6,69.296,60.662,75.6,50.5,75.6s-21.1-6.304-21.1-20.143 c0-0.498,0.016-1.01,0.048-1.532l7.857,3.274l1.029,0.429l0.648-0.907L42.838,51.324 M42.531,49.344l-4.688,6.563l-9.61-4.004 C28.083,53.092,28,54.281,28,55.457C28,69.168,38.591,77,50.5,77S73,69.168,73,55.457c0-1.453-0.126-2.925-0.353-4.396 l-8.553,6.72l-4.688-5.625l-5.625,5.625L42.531,49.344L42.531,49.344z"/></g><g><path fill="#472b29" d="M68.25,62.7c-0.033,0-0.067-0.007-0.1-0.021c-0.127-0.055-0.185-0.202-0.13-0.329 c0.509-1.172,0.924-2.444,1.236-3.782c0.03-0.134,0.17-0.219,0.3-0.187c0.135,0.031,0.218,0.166,0.187,0.3 c-0.318,1.367-0.744,2.668-1.264,3.867C68.438,62.643,68.347,62.7,68.25,62.7z"/></g><g><path fill="#472b29" d="M62.625,69.912c-0.076,0-0.151-0.035-0.2-0.1c-0.083-0.11-0.061-0.267,0.05-0.35 c1.793-1.343,3.29-3.014,4.45-4.964c0.07-0.119,0.225-0.157,0.343-0.087c0.118,0.071,0.157,0.224,0.087,0.343 c-1.193,2.007-2.734,3.726-4.579,5.109C62.729,69.896,62.678,69.912,62.625,69.912z"/></g><g><path fill="#472b29" d="M51.504,73.75c-0.003,0-0.005,0-0.006,0c-0.139-0.001-0.249-0.114-0.248-0.252 c0.001-0.138,0.137-0.249,0.252-0.248c0.001,0,0.002,0,0.005,0c0.165,0,4.572-0.029,8.996-2.507 c0.115-0.067,0.271-0.025,0.34,0.096c0.067,0.12,0.024,0.273-0.096,0.34C56.215,73.718,51.693,73.75,51.504,73.75z"/></g></g></svg>