<?xml version="1.0" encoding="UTF-8"?>
<svg xmlns="http://www.w3.org/2000/svg" xmlns:xlink="http://www.w3.org/1999/xlink" viewBox="0 0 200 200" width="200px" height="200px">
<g id="surface97610858">
<path style=" stroke:none;fill-rule:nonzero;fill:rgb(94.509804%,73.725492%,9.803922%);fill-opacity:1;" d="M 156 26 C 156 27.105469 155.105469 28 154 28 C 152.894531 28 152 27.105469 152 26 C 152 24.894531 152.894531 24 154 24 C 155.105469 24 156 24.894531 156 26 Z M 156 26 "/>
<path style=" stroke:none;fill-rule:nonzero;fill:rgb(97.647059%,85.882354%,82.352942%);fill-opacity:1;" d="M 174 100 C 174 140.867188 140.867188 174 100 174 C 59.132812 174 26 140.867188 26 100 C 26 59.132812 59.132812 26 100 26 C 140.867188 26 174 59.132812 174 100 Z M 174 100 "/>
<path style=" stroke:none;fill-rule:nonzero;fill:rgb(94.509804%,73.725492%,9.803922%);fill-opacity:1;" d="M 174 30 C 174 34.417969 170.417969 38 166 38 C 161.582031 38 158 34.417969 158 30 C 158 25.582031 161.582031 22 166 22 C 170.417969 22 174 25.582031 174 30 Z M 174 30 "/>
<path style=" stroke:none;fill-rule:nonzero;fill:rgb(93.333334%,24.313726%,32.941177%);fill-opacity:1;" d="M 178 48 C 178 50.210938 176.210938 52 174 52 C 171.789062 52 170 50.210938 170 48 C 170 45.789062 171.789062 44 174 44 C 176.210938 44 178 45.789062 178 48 Z M 178 48 "/>
<path style=" stroke:none;fill-rule:nonzero;fill:rgb(98.431373%,80.392158%,34.901962%);fill-opacity:1;" d="M 166 152 C 166 154.210938 164.210938 156 162 156 C 159.789062 156 158 154.210938 158 152 C 158 149.789062 159.789062 148 162 148 C 164.210938 148 166 149.789062 166 152 Z M 166 152 "/>
<path style=" stroke:none;fill-rule:nonzero;fill:rgb(98.431373%,80.392158%,34.901962%);fill-opacity:1;" d="M 36 128 C 36 132.417969 34.417969 136 30 136 C 25.582031 136 22 132.417969 22 128 C 22 123.582031 25.582031 120 30 120 C 34.417969 120 36 123.582031 36 128 Z M 36 128 "/>
<path style=" stroke:none;fill-rule:nonzero;fill:rgb(93.333334%,24.313726%,32.941177%);fill-opacity:1;" d="M 54 174 C 54 176.210938 52.210938 178 50 178 C 47.789062 178 46 176.210938 46 174 C 46 171.789062 47.789062 170 50 170 C 52.210938 170 54 171.789062 54 174 Z M 54 174 "/>
<path style=" stroke:none;fill-rule:nonzero;fill:rgb(100%,100%,100%);fill-opacity:1;" d="M 46 105 C 46 107.761719 43.761719 110 41 110 C 38.238281 110 36 107.761719 36 105 C 36 102.238281 38.238281 100 41 100 C 43.761719 100 46 102.238281 46 105 Z M 46 105 "/>
<path style=" stroke:none;fill-rule:nonzero;fill:rgb(100%,100%,100%);fill-opacity:1;" d="M 162 81 C 162 82.65625 160.65625 84 159 84 C 157.34375 84 156 82.65625 156 81 C 156 79.34375 157.34375 78 159 78 C 160.65625 78 162 79.34375 162 81 Z M 162 81 "/>
<path style=" stroke:none;fill-rule:nonzero;fill:rgb(92.941177%,96.862745%,96.078432%);fill-opacity:1;" d="M 147.25 69.496094 C 147.25 69.496094 150.128906 73.8125 151.003906 77.566406 C 151.125 78.101562 151.886719 78.15625 152.089844 77.644531 C 153.25 74.722656 153.25 72.503906 153.25 67.496094 C 153.25 61.496094 147.25 69.496094 147.25 69.496094 Z M 147.25 69.496094 "/>
<path style=" stroke:none;fill-rule:nonzero;fill:rgb(27.843139%,16.862746%,16.078432%);fill-opacity:1;" d="M 151.558594 78.5 C 151.53125 78.5 151.503906 78.5 151.472656 78.496094 C 150.996094 78.460938 150.621094 78.140625 150.515625 77.679688 C 149.671875 74.054688 146.863281 69.816406 146.835938 69.773438 L 146.636719 69.476562 L 146.847656 69.195312 C 147.730469 68.019531 150.765625 64.230469 152.597656 64.835938 C 153.746094 65.21875 153.746094 66.933594 153.746094 67.496094 C 153.746094 72.523438 153.746094 74.816406 152.550781 77.828125 C 152.390625 78.238281 151.996094 78.5 151.558594 78.5 Z M 147.863281 69.519531 C 148.535156 70.578125 150.730469 74.1875 151.488281 77.453125 L 152.089844 77.644531 L 151.625 77.460938 C 152.753906 74.628906 152.753906 72.539062 152.753906 67.496094 C 152.753906 66.050781 152.390625 65.820312 152.285156 65.78125 C 151.5 65.535156 149.445312 67.476562 147.863281 69.519531 Z M 147.863281 69.519531 "/>
<path style=" stroke:none;fill-rule:nonzero;fill:rgb(92.941177%,96.862745%,96.078432%);fill-opacity:1;" d="M 140 73.246094 C 140 73.246094 142.878906 77.5625 143.753906 81.316406 C 143.875 81.851562 144.636719 81.90625 144.839844 81.394531 C 146 78.472656 146 76.253906 146 71.246094 C 146 65.246094 140 73.246094 140 73.246094 Z M 140 73.246094 "/>
<path style=" stroke:none;fill-rule:nonzero;fill:rgb(27.843139%,16.862746%,16.078432%);fill-opacity:1;" d="M 144.308594 82.25 C 144.28125 82.25 144.253906 82.25 144.222656 82.246094 C 143.746094 82.210938 143.371094 81.890625 143.265625 81.429688 C 142.421875 77.804688 139.613281 73.566406 139.585938 73.523438 L 139.386719 73.226562 L 139.597656 72.945312 C 140.480469 71.769531 143.515625 67.980469 145.347656 68.585938 C 146.496094 68.96875 146.496094 70.683594 146.496094 71.246094 C 146.496094 76.273438 146.496094 78.566406 145.300781 81.578125 C 145.140625 81.988281 144.746094 82.25 144.308594 82.25 Z M 140.613281 73.269531 C 141.285156 74.328125 143.480469 77.9375 144.238281 81.203125 L 144.839844 81.394531 L 144.375 81.210938 C 145.503906 78.378906 145.503906 76.289062 145.503906 71.246094 C 145.503906 69.800781 145.140625 69.570312 145.035156 69.53125 C 144.253906 69.28125 142.195312 71.226562 140.613281 73.269531 Z M 140.613281 73.269531 "/>
<path style=" stroke:none;fill-rule:nonzero;fill:rgb(46.666667%,79.607844%,82.352942%);fill-opacity:1;" d="M 124 104 C 118 104 115.5625 97.765625 120 90 C 128 76 154 66 154 66 C 154 66 152 52 144 52 C 138 52 132 56 128 56 C 124 56 116 50 108 54 C 104.1875 55.667969 100.714844 58.3125 97.554688 61.660156 C 89.351562 57.546875 79.953125 60.03125 74 64 C 80 66 84 68 86 74 C 78 72 72 72 66 78 C 74 80 76 84 78 88 C 72 88 66 88 60 94 C 68 96 72 98 74 104 C 68 104 62 106 54 112 C 62 112 68 118 70 122 C 60 122 52 130 52 130 C 60 132 64 136 66 140 C 56 144 52 150 52 150 C 52 150 54 150 68 150 L 112 150 C 112 150 114 140 118 128 C 121.40625 117.78125 130 116 142 112 C 154 108 152 102 152 102 C 152 102 130 104 124 104 Z M 124 104 "/>
<path style=" stroke:none;fill-rule:nonzero;fill:rgb(0%,64.705884%,64.705884%);fill-opacity:1;" d="M 97.75 61.75 C 97.75 61.75 76 82 68 150 C 54 150 52 150 52 150 C 52 150 56 144 66 140 C 64 136 60 132 52 130 C 52 130 60 122 70 122 C 68 118 62 112 54 112 C 62 106 68 104 74 104 C 72 98 68 96 60 94 C 66 88 72 88 78 88 C 76 84 74 80 66 78 C 72 72 78 72 86 74 C 84 68 80 66 74 64 C 80 60 89.5 57.5 97.75 61.75 Z M 97.75 61.75 "/>
<path style=" stroke:none;fill-rule:nonzero;fill:rgb(0%,64.705884%,64.705884%);fill-opacity:1;" d="M 118 76 C 118 80.417969 114.417969 84 110 84 C 105.582031 84 102 80.417969 102 76 C 102 71.582031 105.582031 68 110 68 C 114.417969 68 118 71.582031 118 76 Z M 118 76 "/>
<path style=" stroke:none;fill-rule:nonzero;fill:rgb(92.941177%,96.862745%,96.078432%);fill-opacity:1;" d="M 118 74 C 118 77.3125 115.3125 80 112 80 C 108.6875 80 106 77.3125 106 74 C 106 70.6875 108.6875 68 112 68 C 115.3125 68 118 70.6875 118 74 Z M 118 74 "/>
<path style=" stroke:none;fill-rule:nonzero;fill:rgb(0%,64.705884%,64.705884%);fill-opacity:1;" d="M 122 86 C 122 86 110.5 104 126.25 104 C 126.25 104 114 110 110 104 C 106 98 122 86 122 86 Z M 122 86 "/>
<path style=" stroke:none;fill-rule:nonzero;fill:rgb(0%,64.705884%,64.705884%);fill-opacity:1;" d="M 83.5 150 C 83.5 150 86 134 92 126 C 104 110 148 108 148 108 C 142 114 122.027344 115.695312 118 126 C 113.394531 137.78125 112 150 112 150 Z M 83.5 150 "/>
<path style=" stroke:none;fill-rule:nonzero;fill:rgb(0%,64.705884%,64.705884%);fill-opacity:1;" d="M 148.089844 84.21875 C 148.089844 84.21875 145.839844 93.21875 139.839844 89.46875 C 136.839844 87.46875 138.839844 84.21875 140.839844 83.21875 C 137.589844 82.96875 134.339844 82.96875 133.589844 89.21875 C 132.839844 95.46875 128.089844 93.21875 128.589844 90.71875 C 129.089844 88.21875 130.589844 88.21875 130.589844 88.21875 C 130.589844 88.21875 122.839844 89.21875 123.839844 95.96875 C 124.839844 102.71875 132.839844 99.71875 133.839844 98.71875 C 130.589844 99.71875 128.566406 96.3125 132.589844 95.21875 C 136.042969 94.277344 138.089844 95.71875 142.339844 94.96875 C 146.589844 94.21875 148.589844 89.96875 148.089844 84.21875 Z M 148.089844 84.21875 "/>
<path style=" stroke:none;fill-rule:nonzero;fill:rgb(27.843139%,16.862746%,16.078432%);fill-opacity:1;" d="M 128.710938 100.496094 C 128.046875 100.496094 127.382812 100.410156 126.765625 100.207031 C 124.984375 99.617188 123.914062 98.203125 123.589844 96.003906 C 123.308594 94.101562 123.679688 92.457031 124.6875 91.121094 C 126.394531 88.867188 129.382812 88.175781 130.292969 88.011719 C 130.460938 87.96875 130.570312 87.96875 130.589844 87.96875 C 130.71875 87.96875 130.828125 88.070312 130.839844 88.203125 C 130.847656 88.335938 130.75 88.449219 130.621094 88.464844 C 130.617188 88.464844 130.523438 88.480469 130.367188 88.507812 C 129.976562 88.625 129.175781 89.066406 128.835938 90.765625 C 128.707031 91.394531 128.96875 92.070312 129.519531 92.53125 C 130.078125 92.996094 130.78125 93.128906 131.410156 92.882812 C 132.414062 92.480469 133.101562 91.171875 133.339844 89.1875 C 134.144531 82.453125 138.019531 82.75 140.859375 82.96875 C 140.96875 82.976562 141.0625 83.058594 141.085938 83.171875 C 141.105469 83.28125 141.050781 83.390625 140.949219 83.441406 C 139.859375 83.988281 138.652344 85.339844 138.5625 86.765625 C 138.503906 87.753906 138.976562 88.59375 139.976562 89.261719 C 141.394531 90.144531 142.710938 90.359375 143.890625 89.882812 C 146.664062 88.761719 147.835938 84.203125 147.847656 84.15625 C 147.878906 84.039062 147.984375 83.953125 148.109375 83.96875 C 148.230469 83.976562 148.328125 84.074219 148.339844 84.195312 C 148.875 90.34375 146.644531 94.460938 142.382812 95.214844 C 140.269531 95.589844 138.65625 95.425781 137.238281 95.28125 C 135.761719 95.128906 134.371094 94.988281 132.65625 95.457031 C 131.53125 95.765625 130.792969 96.300781 130.636719 96.929688 C 130.535156 97.324219 130.679688 97.738281 131.019531 98.0625 C 131.507812 98.523438 132.480469 98.875 133.765625 98.476562 C 133.878906 98.445312 133.992188 98.488281 134.054688 98.589844 C 134.113281 98.6875 134.097656 98.8125 134.015625 98.894531 C 133.492188 99.421875 131.089844 100.496094 128.710938 100.496094 Z M 129.113281 88.828125 C 127.882812 89.214844 126.179688 89.984375 125.089844 91.425781 C 124.160156 92.648438 123.824219 94.164062 124.089844 95.929688 C 124.382812 97.929688 125.339844 99.207031 126.921875 99.730469 C 128.84375 100.367188 131.222656 99.746094 132.601562 99.148438 C 131.742188 99.128906 131.078125 98.804688 130.679688 98.425781 C 130.199219 97.96875 130.007812 97.378906 130.152344 96.804688 C 130.273438 96.328125 130.738281 95.460938 132.523438 94.972656 C 134.332031 94.480469 135.769531 94.625 137.289062 94.78125 C 138.746094 94.925781 140.253906 95.078125 142.296875 94.71875 C 145.96875 94.070312 148.015625 90.6875 147.914062 85.570312 C 147.339844 87.09375 146.128906 89.519531 144.078125 90.34375 C 142.746094 90.882812 141.277344 90.65625 139.707031 89.675781 C 138.257812 88.710938 138.015625 87.542969 138.066406 86.730469 C 138.148438 85.394531 139.042969 84.160156 140.046875 83.410156 C 136.902344 83.265625 134.484375 83.871094 133.839844 89.242188 C 133.488281 92.175781 132.285156 93.070312 131.601562 93.34375 C 130.800781 93.660156 129.90625 93.496094 129.203125 92.910156 C 128.511719 92.335938 128.1875 91.472656 128.347656 90.664062 C 128.515625 89.8125 128.800781 89.226562 129.113281 88.828125 Z M 129.113281 88.828125 "/>
<path style=" stroke:none;fill-rule:nonzero;fill:rgb(27.843139%,16.862746%,16.078432%);fill-opacity:1;" d="M 112.003906 151.398438 C 111.910156 151.398438 111.816406 151.390625 111.722656 151.371094 C 110.964844 151.21875 110.472656 150.480469 110.625 149.722656 C 110.644531 149.621094 112.6875 139.5 116.671875 127.554688 C 119.960938 117.679688 127.964844 115.085938 138.097656 111.800781 C 139.21875 111.441406 140.371094 111.066406 141.554688 110.671875 C 148.964844 108.199219 150.460938 105.132812 150.691406 103.523438 C 145.675781 103.96875 129.171875 105.398438 124 105.398438 C 121.082031 105.398438 118.746094 104.144531 117.429688 101.871094 C 115.5625 98.65625 116.054688 94.078125 118.785156 89.304688 C 126.078125 76.546875 147.21875 67.257812 152.386719 65.136719 C 151.359375 60.832031 148.359375 52.648438 143.253906 52.648438 C 140.261719 52.648438 137.433594 53.972656 134.703125 55.253906 C 132.339844 56.355469 130.109375 57.398438 128 57.398438 C 126.605469 57.398438 124.957031 56.925781 123.046875 56.375 C 118.902344 55.183594 113.734375 53.695312 108.625 56.253906 C 104.695312 57.972656 101.503906 59.515625 98.574219 62.621094 C 98.148438 63.070312 97.480469 63.1875 96.929688 62.910156 C 90.171875 59.523438 82.640625 61 77.304688 63.695312 C 81.75 65.441406 85.433594 67.878906 87.324219 73.554688 C 87.488281 74.039062 87.371094 74.574219 87.027344 74.949219 C 86.679688 75.324219 86.152344 75.476562 85.65625 75.355469 C 78.867188 73.65625 73.757812 73.460938 68.792969 77.375 C 75.425781 79.722656 77.445312 83.765625 79.25 87.371094 C 79.464844 87.804688 79.445312 88.320312 79.191406 88.734375 C 78.9375 89.148438 78.484375 89.398438 78 89.398438 C 72.785156 89.398438 67.824219 89.398438 62.863281 93.316406 C 69.507812 95.230469 73.363281 97.65625 75.328125 103.554688 C 75.46875 103.984375 75.398438 104.453125 75.136719 104.816406 C 74.875 105.183594 74.449219 105.398438 74 105.398438 C 68.660156 105.398438 63.679688 107.105469 57.804688 111.019531 C 64.550781 112.511719 69.414062 117.703125 71.253906 121.375 C 71.46875 121.808594 71.445312 122.324219 71.191406 122.734375 C 70.9375 123.148438 70.484375 123.398438 70 123.398438 C 63.445312 123.398438 57.703125 127.148438 54.867188 129.378906 C 60.757812 131.351562 64.917969 134.707031 67.253906 139.375 C 67.425781 139.71875 67.449219 140.121094 67.3125 140.484375 C 67.183594 140.847656 66.90625 141.136719 66.550781 141.289062 C 59.910156 144.136719 56.027344 147.957031 55.988281 147.992188 C 55.445312 148.539062 54.554688 148.539062 54.011719 147.988281 C 53.464844 147.445312 53.464844 146.558594 54.011719 146.011719 C 54.171875 145.851562 57.742188 142.316406 64.03125 139.351562 C 61.609375 135.492188 57.453125 132.808594 51.660156 131.359375 C 51.171875 131.238281 50.785156 130.863281 50.648438 130.375 C 50.515625 129.890625 50.652344 129.371094 51.011719 129.011719 C 51.324219 128.695312 58.300781 121.824219 67.578125 120.742188 C 65.089844 117.359375 60.175781 113.398438 54 113.398438 C 53.398438 113.398438 52.863281 113.015625 52.671875 112.441406 C 52.480469 111.871094 52.679688 111.238281 53.160156 110.878906 C 60.125 105.65625 65.867188 103.128906 71.953125 102.675781 C 69.945312 98.585938 66.308594 97.023438 59.660156 95.359375 C 59.171875 95.238281 58.785156 94.863281 58.648438 94.375 C 58.515625 93.890625 58.652344 93.371094 59.011719 93.011719 C 64.632812 87.390625 70.242188 86.699219 75.707031 86.613281 C 73.992188 83.503906 71.761719 80.882812 65.660156 79.359375 C 65.171875 79.238281 64.785156 78.863281 64.652344 78.375 C 64.519531 77.890625 64.652344 77.371094 65.011719 77.011719 C 70.761719 71.261719 76.53125 70.628906 83.632812 72.03125 C 81.738281 68.609375 78.648438 67.027344 73.558594 65.328125 C 73.050781 65.160156 72.6875 64.71875 72.613281 64.1875 C 72.542969 63.65625 72.78125 63.132812 73.226562 62.835938 C 78.925781 59.039062 88.515625 56.113281 97.257812 59.972656 C 100.351562 56.964844 103.714844 55.351562 107.441406 53.71875 C 113.464844 50.703125 119.453125 52.425781 123.824219 53.6875 C 125.53125 54.175781 127 54.601562 128 54.601562 C 129.484375 54.601562 131.441406 53.683594 133.511719 52.714844 C 136.382812 51.371094 139.636719 49.851562 143.25 49.851562 C 152.308594 49.851562 155.257812 65.09375 155.375 65.742188 C 155.5 66.40625 155.132812 67.0625 154.5 67.308594 C 154.246094 67.40625 128.871094 77.292969 121.210938 90.695312 C 119.027344 94.523438 118.515625 98.175781 119.84375 100.464844 C 120.65625 101.863281 122.09375 102.601562 124 102.601562 C 129.871094 102.601562 151.652344 100.625 151.875 100.605469 C 152.550781 100.546875 153.125 100.941406 153.328125 101.558594 C 153.398438 101.769531 153.976562 103.679688 152.753906 106.125 C 151.257812 109.125 147.789062 111.546875 142.445312 113.328125 C 141.25 113.726562 140.089844 114.101562 138.96875 114.464844 C 128.855469 117.742188 122.175781 119.90625 119.332031 128.441406 C 115.402344 140.222656 113.394531 150.175781 113.375 150.273438 C 113.238281 150.941406 112.652344 151.398438 112.003906 151.398438 Z M 112.003906 151.398438 "/>
<path style=" stroke:none;fill-rule:nonzero;fill:rgb(27.843139%,16.862746%,16.078432%);fill-opacity:1;" d="M 114 74 C 114 75.105469 113.105469 76 112 76 C 110.894531 76 110 75.105469 110 74 C 110 72.894531 110.894531 72 112 72 C 113.105469 72 114 72.894531 114 74 Z M 114 74 "/>
<path style=" stroke:none;fill-rule:nonzero;fill:rgb(0%,64.705884%,64.705884%);fill-opacity:1;" d="M 145.558594 59.375 C 146.085938 61.105469 145.539062 62.804688 144.335938 63.171875 C 143.132812 63.539062 141.730469 62.433594 141.203125 60.703125 C 140.675781 58.976562 141.222656 57.273438 142.425781 56.910156 C 143.628906 56.542969 145.03125 57.648438 145.558594 59.375 Z M 145.558594 59.375 "/>
<path style=" stroke:none;fill-rule:nonzero;fill:rgb(27.843139%,16.862746%,16.078432%);fill-opacity:1;" d="M 144.066406 63.792969 C 142.769531 63.792969 141.472656 62.640625 140.941406 60.898438 C 140.742188 60.246094 140.675781 59.570312 140.746094 58.941406 C 140.78125 58.671875 141 58.464844 141.300781 58.503906 C 141.574219 58.535156 141.769531 58.78125 141.738281 59.054688 C 141.683594 59.546875 141.738281 60.085938 141.898438 60.605469 C 142.335938 62.042969 143.492188 63.027344 144.40625 62.742188 C 144.828125 62.613281 145.15625 62.234375 145.339844 61.679688 C 145.539062 61.058594 145.527344 60.308594 145.296875 59.570312 C 145.074219 58.828125 144.667969 58.199219 144.152344 57.796875 C 143.695312 57.433594 143.207031 57.304688 142.789062 57.433594 C 142.53125 57.515625 142.246094 57.367188 142.164062 57.101562 C 142.085938 56.839844 142.230469 56.558594 142.496094 56.476562 C 143.234375 56.253906 144.046875 56.441406 144.773438 57.011719 C 145.445312 57.539062 145.96875 58.347656 146.253906 59.28125 C 146.539062 60.214844 146.550781 61.175781 146.289062 61.988281 C 146.003906 62.867188 145.441406 63.472656 144.699219 63.699219 C 144.492188 63.765625 144.28125 63.792969 144.066406 63.792969 Z M 144.066406 63.792969 "/>
<path style=" stroke:none;fill-rule:nonzero;fill:rgb(77.254903%,87.058824%,94.117647%);fill-opacity:1;" d="M 98 70 C 98 70 102 64 110 64 C 118 64 116 64 124 66 C 132 68 128 74 122 74 C 116 74 106 68 98 70 Z M 98 70 "/>
<path style=" stroke:none;fill-rule:nonzero;fill:rgb(27.843139%,16.862746%,16.078432%);fill-opacity:1;" d="M 122.421875 74.960938 C 119.355469 74.960938 115.96875 73.550781 113.328125 72.453125 C 112.367188 72.050781 111.539062 71.707031 110.84375 71.472656 C 108.066406 70.550781 106.289062 70.101562 104.695312 69.929688 C 104.421875 69.898438 104.222656 69.652344 104.253906 69.375 C 104.285156 69.101562 104.492188 68.902344 104.804688 68.933594 C 106.46875 69.117188 108.308594 69.578125 111.15625 70.527344 C 111.890625 70.769531 112.777344 71.136719 113.710938 71.527344 C 118.433594 73.492188 124.902344 76.1875 127.808594 70.765625 C 127.9375 70.519531 128.238281 70.429688 128.484375 70.558594 C 128.730469 70.691406 128.820312 70.992188 128.691406 71.238281 C 127.195312 74.027344 124.914062 74.960938 122.421875 74.960938 Z M 122.421875 74.960938 "/>
<path style=" stroke:none;fill-rule:nonzero;fill:rgb(27.843139%,16.862746%,16.078432%);fill-opacity:1;" d="M 98 70.5 C 97.765625 70.5 97.558594 70.335938 97.511719 70.097656 C 97.457031 69.828125 97.632812 69.5625 97.902344 69.511719 C 99.4375 69.203125 100.5 69.03125 101.449219 68.933594 C 101.710938 68.914062 101.96875 69.105469 101.996094 69.382812 C 102.023438 69.65625 101.824219 69.902344 101.550781 69.929688 C 100.632812 70.023438 99.601562 70.191406 98.097656 70.492188 C 98.066406 70.496094 98.03125 70.5 98 70.5 Z M 98 70.5 "/>
<path style=" stroke:none;fill-rule:nonzero;fill:rgb(27.843139%,16.862746%,16.078432%);fill-opacity:1;" d="M 96.445312 136.804688 C 96.390625 136.804688 96.332031 136.804688 96.273438 136.800781 C 95.007812 136.765625 93.96875 136.3125 93.191406 135.457031 C 91.484375 133.589844 91.65625 130.460938 91.664062 130.328125 C 91.679688 130.054688 91.914062 129.847656 92.195312 129.863281 C 92.46875 129.878906 92.679688 130.117188 92.660156 130.390625 C 92.660156 130.421875 92.511719 133.234375 93.929688 134.785156 C 94.527344 135.441406 95.304688 135.773438 96.304688 135.800781 C 100.242188 135.945312 101.136719 131.003906 101.171875 130.792969 C 101.214844 130.523438 101.484375 130.339844 101.746094 130.382812 C 102.019531 130.425781 102.203125 130.683594 102.160156 130.957031 C 102.148438 131.015625 101.15625 136.804688 96.445312 136.804688 Z M 96.445312 136.804688 "/>
<path style=" stroke:none;fill-rule:nonzero;fill:rgb(27.843139%,16.862746%,16.078432%);fill-opacity:1;" d="M 105.941406 137.0625 C 105.886719 137.0625 105.824219 137.0625 105.769531 137.0625 C 104.503906 137.023438 103.464844 136.570312 102.683594 135.71875 C 100.976562 133.851562 101.148438 130.722656 101.15625 130.589844 C 101.175781 130.3125 101.402344 130.109375 101.6875 130.121094 C 101.964844 130.140625 102.175781 130.375 102.15625 130.652344 C 102.15625 130.679688 102.007812 133.492188 103.425781 135.046875 C 104.027344 135.703125 104.800781 136.035156 105.800781 136.0625 C 109.753906 136.191406 110.660156 131.109375 110.667969 131.054688 C 110.710938 130.785156 110.960938 130.597656 111.242188 130.640625 C 111.515625 130.6875 111.699219 130.941406 111.65625 131.214844 C 111.640625 131.273438 110.648438 137.0625 105.941406 137.0625 Z M 105.941406 137.0625 "/>
<path style=" stroke:none;fill-rule:nonzero;fill:rgb(27.843139%,16.862746%,16.078432%);fill-opacity:1;" d="M 115.296875 137.3125 C 115.292969 137.3125 115.285156 137.3125 115.28125 137.3125 C 114.015625 137.273438 112.976562 136.820312 112.195312 135.96875 C 110.488281 134.101562 110.660156 130.972656 110.667969 130.839844 C 110.6875 130.566406 110.9375 130.363281 111.199219 130.371094 C 111.472656 130.390625 111.683594 130.625 111.667969 130.902344 C 111.664062 130.929688 111.515625 133.742188 112.9375 135.296875 C 113.535156 135.953125 114.3125 136.285156 115.3125 136.3125 C 115.589844 136.320312 115.804688 136.550781 115.796875 136.828125 C 115.789062 137.097656 115.566406 137.3125 115.296875 137.3125 Z M 115.296875 137.3125 "/>
<path style=" stroke:none;fill-rule:nonzero;fill:rgb(27.843139%,16.862746%,16.078432%);fill-opacity:1;" d="M 91.105469 142.765625 C 91.046875 142.765625 90.988281 142.765625 90.933594 142.765625 C 89.664062 142.726562 88.628906 142.273438 87.847656 141.421875 C 86.140625 139.550781 86.3125 136.425781 86.320312 136.292969 C 86.339844 136.015625 86.566406 135.804688 86.851562 135.824219 C 87.128906 135.84375 87.339844 136.078125 87.320312 136.355469 C 87.316406 136.382812 87.167969 139.195312 88.589844 140.75 C 89.1875 141.402344 89.964844 141.734375 90.960938 141.765625 C 94.933594 141.882812 95.796875 136.96875 95.828125 136.757812 C 95.875 136.484375 96.132812 136.300781 96.402344 136.347656 C 96.675781 136.390625 96.863281 136.644531 96.816406 136.921875 C 96.804688 136.976562 95.8125 142.765625 91.105469 142.765625 Z M 91.105469 142.765625 "/>
<path style=" stroke:none;fill-rule:nonzero;fill:rgb(27.843139%,16.862746%,16.078432%);fill-opacity:1;" d="M 100.601562 143.027344 C 100.542969 143.027344 100.484375 143.027344 100.429688 143.023438 C 99.609375 143 98.878906 142.800781 98.261719 142.429688 C 98.023438 142.289062 97.945312 141.980469 98.085938 141.742188 C 98.222656 141.507812 98.53125 141.425781 98.769531 141.570312 C 99.242188 141.851562 99.8125 142.003906 100.457031 142.023438 C 100.503906 142.023438 100.550781 142.023438 100.597656 142.023438 C 104.457031 142.023438 105.289062 137.222656 105.320312 137.015625 C 105.367188 136.742188 105.609375 136.554688 105.894531 136.601562 C 106.171875 136.644531 106.355469 136.902344 106.308594 137.175781 C 106.300781 137.234375 105.308594 143.027344 100.601562 143.027344 Z M 100.601562 143.027344 "/>
<path style=" stroke:none;fill-rule:nonzero;fill:rgb(27.843139%,16.862746%,16.078432%);fill-opacity:1;" d="M 97.25 141.226562 C 97.085938 141.226562 96.917969 141.144531 96.824219 140.992188 C 95.675781 139.128906 95.808594 136.65625 95.816406 136.554688 C 95.835938 136.277344 96.074219 136.066406 96.347656 136.085938 C 96.625 136.105469 96.835938 136.339844 96.816406 136.617188 C 96.816406 136.636719 96.695312 138.878906 97.675781 140.46875 C 97.820312 140.703125 97.75 141.011719 97.515625 141.15625 C 97.429688 141.203125 97.339844 141.226562 97.25 141.226562 Z M 97.25 141.226562 "/>
<path style=" stroke:none;fill-rule:nonzero;fill:rgb(27.843139%,16.862746%,16.078432%);fill-opacity:1;" d="M 110.113281 143.277344 C 110.058594 143.277344 109.996094 143.277344 109.941406 143.273438 C 108.675781 143.234375 107.636719 142.785156 106.855469 141.929688 C 105.148438 140.0625 105.320312 136.933594 105.328125 136.800781 C 105.347656 136.527344 105.589844 136.320312 105.859375 136.335938 C 106.132812 136.351562 106.34375 136.589844 106.328125 136.863281 C 106.324219 136.890625 106.175781 139.707031 107.597656 141.257812 C 108.195312 141.910156 108.972656 142.242188 109.972656 142.273438 C 110.019531 142.277344 110.066406 142.277344 110.109375 142.277344 C 113.972656 142.277344 114.804688 137.472656 114.835938 137.265625 C 114.878906 136.996094 115.128906 136.808594 115.410156 136.855469 C 115.683594 136.898438 115.867188 137.152344 115.824219 137.425781 C 115.8125 137.484375 114.820312 143.277344 110.113281 143.277344 Z M 110.113281 143.277344 "/>
<path style=" stroke:none;fill-rule:nonzero;fill:rgb(27.843139%,16.862746%,16.078432%);fill-opacity:1;" d="M 85.53125 148.414062 C 85.472656 148.414062 85.414062 148.414062 85.359375 148.410156 C 84.09375 148.375 83.054688 147.921875 82.273438 147.066406 C 80.566406 145.199219 80.738281 142.070312 80.746094 141.941406 C 80.765625 141.664062 80.992188 141.453125 81.277344 141.472656 C 81.554688 141.488281 81.765625 141.726562 81.746094 142.003906 C 81.742188 142.03125 81.59375 144.84375 83.015625 146.398438 C 83.613281 147.050781 84.390625 147.382812 85.386719 147.414062 C 89.363281 147.539062 90.222656 142.617188 90.257812 142.40625 C 90.300781 142.132812 90.5625 141.949219 90.828125 141.992188 C 91.101562 142.039062 91.289062 142.292969 91.242188 142.566406 C 91.230469 142.625 90.238281 148.414062 85.53125 148.414062 Z M 85.53125 148.414062 "/>
<path style=" stroke:none;fill-rule:nonzero;fill:rgb(27.843139%,16.862746%,16.078432%);fill-opacity:1;" d="M 95.023438 148.675781 C 94.96875 148.675781 94.910156 148.675781 94.851562 148.671875 C 93.585938 148.632812 92.546875 148.183594 91.769531 147.328125 C 90.0625 145.460938 90.234375 142.332031 90.242188 142.199219 C 90.261719 141.925781 90.503906 141.710938 90.773438 141.730469 C 91.046875 141.75 91.257812 141.984375 91.238281 142.261719 C 91.238281 142.289062 91.089844 145.105469 92.507812 146.65625 C 93.105469 147.308594 93.882812 147.640625 94.882812 147.671875 C 98.859375 147.785156 99.714844 142.875 99.75 142.664062 C 99.792969 142.390625 100.058594 142.207031 100.324219 142.253906 C 100.597656 142.296875 100.78125 142.550781 100.738281 142.824219 C 100.726562 142.882812 99.734375 148.671875 95.023438 148.675781 Z M 95.023438 148.675781 "/>
<path style=" stroke:none;fill-rule:nonzero;fill:rgb(27.843139%,16.862746%,16.078432%);fill-opacity:1;" d="M 104.539062 148.925781 C 104.480469 148.925781 104.421875 148.925781 104.363281 148.921875 C 103.097656 148.882812 102.0625 148.433594 101.28125 147.578125 C 99.574219 145.710938 99.746094 142.582031 99.753906 142.449219 C 99.769531 142.175781 100.015625 141.972656 100.285156 141.980469 C 100.558594 142 100.769531 142.234375 100.753906 142.511719 C 100.75 142.539062 100.601562 145.355469 102.023438 146.90625 C 102.621094 147.5625 103.394531 147.894531 104.394531 147.925781 C 104.441406 147.925781 104.488281 147.925781 104.53125 147.925781 C 108.40625 147.925781 109.253906 142.96875 109.261719 142.914062 C 109.308594 142.644531 109.546875 142.457031 109.835938 142.503906 C 110.109375 142.546875 110.292969 142.800781 110.25 143.074219 C 110.238281 143.132812 109.246094 148.921875 104.539062 148.925781 Z M 104.539062 148.925781 "/>
<path style=" stroke:none;fill-rule:nonzero;fill:rgb(27.843139%,16.862746%,16.078432%);fill-opacity:1;" d="M 112.5 148.945312 C 112.441406 148.945312 112.378906 148.9375 112.320312 148.910156 C 109.007812 147.636719 109.257812 142.9375 109.269531 142.738281 C 109.289062 142.464844 109.527344 142.265625 109.796875 142.273438 C 110.074219 142.289062 110.285156 142.527344 110.269531 142.800781 C 110.265625 142.84375 110.050781 146.96875 112.679688 147.980469 C 112.9375 148.078125 113.066406 148.367188 112.96875 148.625 C 112.890625 148.824219 112.703125 148.945312 112.5 148.945312 Z M 112.5 148.945312 "/>
<path style=" stroke:none;fill-rule:nonzero;fill:rgb(27.843139%,16.862746%,16.078432%);fill-opacity:1;" d="M 92.761719 130.878906 C 92.703125 130.878906 92.644531 130.878906 92.589844 130.875 C 91.320312 130.839844 90.28125 130.386719 89.503906 129.53125 C 87.796875 127.664062 87.96875 124.539062 87.976562 124.40625 C 87.996094 124.128906 88.226562 123.929688 88.507812 123.9375 C 88.785156 123.957031 88.992188 124.191406 88.976562 124.46875 C 88.972656 124.496094 88.824219 127.308594 90.242188 128.863281 C 90.84375 129.515625 91.617188 129.847656 92.617188 129.878906 C 96.636719 129.996094 97.453125 125.078125 97.484375 124.871094 C 97.53125 124.597656 97.796875 124.414062 98.058594 124.457031 C 98.332031 124.503906 98.519531 124.757812 98.472656 125.03125 C 98.460938 125.089844 97.46875 130.878906 92.761719 130.878906 Z M 92.761719 130.878906 "/>
<path style=" stroke:none;fill-rule:nonzero;fill:rgb(27.843139%,16.862746%,16.078432%);fill-opacity:1;" d="M 102.253906 131.136719 C 102.199219 131.136719 102.136719 131.136719 102.078125 131.136719 C 101.171875 131.109375 100.375 130.867188 99.710938 130.414062 C 99.484375 130.257812 99.425781 129.949219 99.578125 129.71875 C 99.734375 129.488281 100.050781 129.433594 100.273438 129.589844 C 100.777344 129.929688 101.394531 130.117188 102.109375 130.136719 C 102.15625 130.136719 102.203125 130.136719 102.246094 130.136719 C 106.109375 130.136719 106.945312 125.335938 106.976562 125.128906 C 107.019531 124.859375 107.273438 124.671875 107.550781 124.714844 C 107.824219 124.761719 108.007812 125.015625 107.964844 125.289062 C 107.957031 125.347656 106.960938 131.136719 102.253906 131.136719 Z M 102.253906 131.136719 "/>
<path style=" stroke:none;fill-rule:nonzero;fill:rgb(27.843139%,16.862746%,16.078432%);fill-opacity:1;" d="M 98.59375 128.75 C 98.402344 128.75 98.21875 128.640625 98.136719 128.453125 C 97.355469 126.710938 97.464844 124.746094 97.472656 124.660156 C 97.488281 124.386719 97.734375 124.1875 98.003906 124.195312 C 98.277344 124.210938 98.488281 124.449219 98.46875 124.722656 C 98.46875 124.742188 98.371094 126.53125 99.050781 128.042969 C 99.164062 128.296875 99.050781 128.59375 98.800781 128.703125 C 98.730469 128.734375 98.660156 128.75 98.59375 128.75 Z M 98.59375 128.75 "/>
<path style=" stroke:none;fill-rule:nonzero;fill:rgb(27.843139%,16.862746%,16.078432%);fill-opacity:1;" d="M 111.769531 131.386719 C 111.710938 131.386719 111.652344 131.386719 111.59375 131.386719 C 110.328125 131.347656 109.289062 130.894531 108.511719 130.042969 C 106.804688 128.175781 106.972656 125.046875 106.980469 124.914062 C 107.003906 124.636719 107.246094 124.433594 107.511719 124.445312 C 107.789062 124.464844 107.996094 124.699219 107.980469 124.976562 C 107.980469 125.003906 107.828125 127.816406 109.25 129.371094 C 109.851562 130.027344 110.625 130.359375 111.625 130.386719 C 111.671875 130.390625 111.714844 130.390625 111.761719 130.390625 C 115.636719 130.390625 116.480469 125.433594 116.488281 125.378906 C 116.535156 125.109375 116.78125 124.921875 117.0625 124.964844 C 117.335938 125.011719 117.523438 125.265625 117.476562 125.539062 C 117.46875 125.597656 116.476562 131.386719 111.769531 131.386719 Z M 111.769531 131.386719 "/>
<path style=" stroke:none;fill-rule:nonzero;fill:rgb(27.843139%,16.862746%,16.078432%);fill-opacity:1;" d="M 107.617188 125.445312 C 107.5625 125.445312 107.503906 125.445312 107.445312 125.441406 C 106.179688 125.402344 105.140625 124.953125 104.363281 124.097656 C 102.65625 122.230469 102.824219 119.101562 102.835938 118.96875 C 102.851562 118.695312 103.09375 118.484375 103.363281 118.503906 C 103.640625 118.519531 103.851562 118.757812 103.835938 119.03125 C 103.832031 119.058594 103.683594 121.875 105.101562 123.429688 C 105.699219 124.082031 106.476562 124.414062 107.476562 124.445312 C 107.519531 124.445312 107.566406 124.445312 107.613281 124.445312 C 111.488281 124.445312 112.335938 119.488281 112.34375 119.4375 C 112.386719 119.164062 112.632812 118.976562 112.914062 119.023438 C 113.1875 119.066406 113.375 119.320312 113.328125 119.597656 C 113.320312 119.652344 112.324219 125.441406 107.617188 125.445312 Z M 107.617188 125.445312 "/>
<path style=" stroke:none;fill-rule:nonzero;fill:rgb(27.843139%,16.862746%,16.078432%);fill-opacity:1;" d="M 117.113281 125.703125 C 117.058594 125.703125 116.996094 125.703125 116.941406 125.703125 C 115.675781 125.664062 114.636719 125.210938 113.855469 124.359375 C 112.148438 122.488281 112.320312 119.363281 112.328125 119.230469 C 112.347656 118.957031 112.59375 118.742188 112.859375 118.761719 C 113.132812 118.78125 113.34375 119.015625 113.328125 119.292969 C 113.324219 119.320312 113.175781 122.132812 114.597656 123.6875 C 115.195312 124.339844 115.972656 124.671875 116.972656 124.703125 C 120.921875 124.839844 121.828125 119.746094 121.839844 119.695312 C 121.882812 119.425781 122.125 119.234375 122.410156 119.28125 C 122.683594 119.324219 122.871094 119.578125 122.824219 119.855469 C 122.8125 119.910156 121.820312 125.703125 117.113281 125.703125 Z M 117.113281 125.703125 "/>
<path style=" stroke:none;fill-rule:nonzero;fill:rgb(27.843139%,16.862746%,16.078432%);fill-opacity:1;" d="M 68 150.5 C 67.980469 150.5 67.960938 150.5 67.941406 150.496094 C 67.667969 150.464844 67.46875 150.214844 67.503906 149.941406 C 68.933594 137.507812 71.050781 125.625 73.800781 114.628906 C 73.867188 114.359375 74.136719 114.195312 74.40625 114.265625 C 74.675781 114.328125 74.835938 114.601562 74.769531 114.871094 C 72.03125 125.824219 69.917969 137.660156 68.492188 150.054688 C 68.46875 150.3125 68.25 150.5 68 150.5 Z M 68 150.5 "/>
<path style=" stroke:none;fill-rule:nonzero;fill:rgb(27.843139%,16.862746%,16.078432%);fill-opacity:1;" d="M 75.324219 111.25 C 75.285156 111.25 75.238281 111.242188 75.195312 111.230469 C 74.929688 111.160156 74.773438 110.886719 74.84375 110.621094 C 77.527344 100.664062 80.734375 91.472656 84.378906 83.296875 C 84.492188 83.042969 84.789062 82.929688 85.042969 83.042969 C 85.292969 83.15625 85.40625 83.453125 85.292969 83.703125 C 81.667969 91.832031 78.476562 100.972656 75.808594 110.878906 C 75.75 111.105469 75.546875 111.25 75.324219 111.25 Z M 75.324219 111.25 "/>
<path style=" stroke:none;fill-rule:nonzero;fill:rgb(27.843139%,16.862746%,16.078432%);fill-opacity:1;" d="M 86.75 79.890625 C 86.675781 79.890625 86.601562 79.875 86.53125 79.839844 C 86.285156 79.71875 86.179688 79.421875 86.300781 79.171875 C 90.554688 70.425781 93.726562 66.359375 93.859375 66.191406 C 94.03125 65.976562 94.34375 65.9375 94.558594 66.109375 C 94.777344 66.277344 94.8125 66.59375 94.644531 66.808594 C 94.613281 66.851562 91.398438 70.972656 87.199219 79.609375 C 87.113281 79.785156 86.933594 79.890625 86.75 79.890625 Z M 86.75 79.890625 "/>
<path style=" stroke:none;fill-rule:nonzero;fill:rgb(27.843139%,16.862746%,16.078432%);fill-opacity:1;" d="M 116.207031 106.90625 C 115.417969 106.90625 114.648438 106.855469 113.925781 106.742188 C 113.652344 106.703125 113.464844 106.449219 113.507812 106.175781 C 113.546875 105.902344 113.78125 105.710938 114.074219 105.757812 C 117.03125 106.203125 120.910156 105.613281 123.53125 104.320312 C 123.777344 104.199219 124.078125 104.300781 124.199219 104.546875 C 124.320312 104.792969 124.21875 105.09375 123.972656 105.214844 C 121.789062 106.296875 118.882812 106.90625 116.207031 106.90625 Z M 116.207031 106.90625 "/>
<path style=" stroke:none;fill-rule:nonzero;fill:rgb(27.843139%,16.862746%,16.078432%);fill-opacity:1;" d="M 111.25 105.894531 C 111.167969 105.894531 111.085938 105.875 111.011719 105.832031 C 109.027344 104.75 108.320312 102.914062 109.023438 100.664062 C 109.429688 99.367188 110.207031 97.871094 111.335938 96.21875 C 111.492188 95.988281 111.800781 95.933594 112.03125 96.089844 C 112.257812 96.242188 112.316406 96.554688 112.160156 96.78125 C 111.089844 98.351562 110.355469 99.757812 109.976562 100.960938 C 109.417969 102.757812 109.925781 104.101562 111.488281 104.953125 C 111.730469 105.085938 111.820312 105.386719 111.691406 105.628906 C 111.597656 105.800781 111.425781 105.894531 111.25 105.894531 Z M 111.25 105.894531 "/>
<path style=" stroke:none;fill-rule:nonzero;fill:rgb(27.843139%,16.862746%,16.078432%);fill-opacity:1;" d="M 114.046875 94 C 113.933594 94 113.820312 93.960938 113.726562 93.882812 C 113.515625 93.707031 113.484375 93.390625 113.664062 93.179688 C 117.363281 88.765625 121.878906 84.910156 121.925781 84.871094 C 122.136719 84.691406 122.449219 84.714844 122.632812 84.929688 C 122.8125 85.136719 122.785156 85.453125 122.574219 85.632812 C 122.53125 85.671875 118.074219 89.472656 114.433594 93.820312 C 114.332031 93.9375 114.191406 94 114.046875 94 Z M 114.046875 94 "/>
</g>
</svg>
