<?xml version="1.0" encoding="UTF-8"?>
<svg xmlns="http://www.w3.org/2000/svg" xmlns:xlink="http://www.w3.org/1999/xlink" viewBox="0 0 200 200" width="200px" height="200px">
<g id="surface90305857">
<path style=" stroke:none;fill-rule:nonzero;fill:rgb(94.509804%,73.725492%,9.803922%);fill-opacity:1;" d="M 154 24 C 152.894531 24 152 24.894531 152 26 C 152 27.105469 152.894531 28 154 28 C 155.105469 28 156 27.105469 156 26 C 156 24.894531 155.105469 24 154 24 Z M 154 24 "/>
<path style=" stroke:none;fill-rule:nonzero;fill:rgb(80.784315%,88.235295%,95.686275%);fill-opacity:1;" d="M 100 26 C 59.132812 26 26 59.132812 26 100 C 26 140.867188 59.132812 174 100 174 C 140.867188 174 174 140.867188 174 100 C 174 59.132812 140.867188 26 100 26 Z M 100 26 "/>
<path style=" stroke:none;fill-rule:nonzero;fill:rgb(94.509804%,73.725492%,9.803922%);fill-opacity:1;" d="M 166 22 C 161.582031 22 158 25.582031 158 30 C 158 34.417969 161.582031 38 166 38 C 170.417969 38 174 34.417969 174 30 C 174 25.582031 170.417969 22 166 22 Z M 166 22 "/>
<path style=" stroke:none;fill-rule:nonzero;fill:rgb(20.392157%,59.607846%,85.882354%);fill-opacity:1;" d="M 174 44 C 171.789062 44 170 45.789062 170 48 C 170 50.210938 171.789062 52 174 52 C 176.210938 52 178 50.210938 178 48 C 178 45.789062 176.210938 44 174 44 Z M 174 44 "/>
<path style=" stroke:none;fill-rule:nonzero;fill:rgb(98.431373%,80.392158%,34.901962%);fill-opacity:1;" d="M 162 148 C 159.789062 148 158 149.789062 158 152 C 158 154.210938 159.789062 156 162 156 C 164.210938 156 166 154.210938 166 152 C 166 149.789062 164.210938 148 162 148 Z M 30 118 C 25.582031 118 22 121.582031 22 126 C 22 130.417969 25.582031 134 30 134 C 34.417969 134 38 130.417969 38 126 C 38 121.582031 34.417969 118 30 118 Z M 30 118 "/>
<path style=" stroke:none;fill-rule:nonzero;fill:rgb(20.392157%,59.607846%,85.882354%);fill-opacity:1;" d="M 50 170 C 47.789062 170 46 171.789062 46 174 C 46 176.210938 47.789062 178 50 178 C 52.210938 178 54 176.210938 54 174 C 54 171.789062 52.210938 170 50 170 Z M 50 170 "/>
<path style=" stroke:none;fill-rule:nonzero;fill:rgb(100%,100%,100%);fill-opacity:1;" d="M 37 98 C 34.238281 98 32 100.238281 32 103 C 32 105.761719 34.238281 108 37 108 C 39.761719 108 42 105.761719 42 103 C 42 100.238281 39.761719 98 37 98 Z M 159 64 C 157.34375 64 156 65.34375 156 67 C 156 68.65625 157.34375 70 159 70 C 160.65625 70 162 68.65625 162 67 C 162 65.34375 160.65625 64 159 64 Z M 159 64 "/>
<path style=" stroke:none;fill-rule:nonzero;fill:rgb(76.078433%,60.784316%,40.392157%);fill-opacity:1;" d="M 92.445312 148.414062 L 84.296875 148.414062 C 80.621094 148.414062 77.582031 144.9375 77.582031 140.789062 L 77.582031 128.222656 C 84.421875 123.296875 87.039062 117.464844 87.039062 117.464844 L 96.496094 120.515625 C 93.796875 129.664062 86.589844 134.691406 86.589844 134.691406 L 86.589844 142.316406 C 92.144531 142.316406 92.445312 148.414062 92.445312 148.414062 Z M 92.445312 148.414062 "/>
<path style=" stroke:none;fill-rule:nonzero;fill:rgb(27.843139%,16.862746%,16.078432%);fill-opacity:1;" d="M 92.449219 149.816406 L 84.300781 149.816406 C 79.824219 149.816406 76.183594 145.769531 76.183594 140.789062 L 76.183594 128.222656 C 76.183594 127.773438 76.398438 127.351562 76.765625 127.089844 C 83.183594 122.464844 85.738281 116.945312 85.765625 116.890625 C 86.058594 116.242188 86.792969 115.910156 87.472656 116.132812 L 96.929688 119.183594 C 97.652344 119.414062 98.058594 120.183594 97.84375 120.910156 C 95.464844 128.960938 89.851562 133.921875 87.992188 135.386719 L 87.992188 141.03125 C 92.332031 141.78125 93.730469 146.007812 93.847656 148.34375 C 93.867188 148.722656 93.726562 149.101562 93.460938 149.378906 C 93.199219 149.65625 92.828125 149.816406 92.449219 149.816406 Z M 78.984375 128.933594 L 78.984375 140.792969 C 78.984375 144.167969 81.417969 147.015625 84.296875 147.015625 L 90.777344 147.015625 C 90.355469 145.605469 89.285156 143.71875 86.589844 143.71875 C 85.816406 143.71875 85.191406 143.09375 85.191406 142.316406 L 85.191406 134.691406 C 85.191406 134.234375 85.414062 133.808594 85.789062 133.546875 C 85.851562 133.5 91.949219 129.152344 94.730469 121.421875 L 87.734375 119.164062 C 86.640625 121.097656 83.941406 125.203125 78.984375 128.933594 Z M 78.984375 128.933594 "/>
<path style=" stroke:none;fill-rule:nonzero;fill:rgb(76.078433%,60.784316%,40.392157%);fill-opacity:1;" d="M 138.585938 148.5 L 129.761719 148.484375 L 124.738281 148.46875 L 124.042969 148.46875 L 124.042969 122.523438 C 127.109375 122.460938 129.9375 121.316406 132.15625 119.46875 L 132.660156 119.46875 L 132.660156 142.386719 C 138.140625 142.386719 138.585938 148.5 138.585938 148.5 Z M 138.585938 148.5 "/>
<path style=" stroke:none;fill-rule:nonzero;fill:rgb(27.843139%,16.862746%,16.078432%);fill-opacity:1;" d="M 138.585938 149.898438 L 124.042969 149.867188 C 123.269531 149.867188 122.644531 149.242188 122.644531 148.46875 L 122.644531 122.523438 C 122.644531 121.761719 123.257812 121.140625 124.019531 121.125 C 126.636719 121.074219 129.210938 120.101562 131.261719 118.390625 C 131.515625 118.183594 131.828125 118.066406 132.15625 118.066406 L 132.660156 118.066406 C 133.433594 118.066406 134.058594 118.695312 134.058594 119.46875 L 134.058594 141.109375 C 138.339844 141.867188 139.808594 146.070312 139.980469 148.398438 C 140.007812 148.789062 139.871094 149.171875 139.609375 149.457031 C 139.34375 149.738281 138.972656 149.898438 138.585938 149.898438 Z M 125.445312 147.070312 L 136.878906 147.097656 C 136.421875 145.675781 135.316406 143.789062 132.660156 143.789062 C 131.886719 143.789062 131.261719 143.164062 131.261719 142.390625 L 131.261719 121.820312 C 129.480469 122.898438 127.492188 123.585938 125.449219 123.828125 L 125.449219 147.070312 Z M 125.445312 147.070312 "/>
<path style=" stroke:none;fill-rule:nonzero;fill:rgb(98.823529%,72.941178%,49.803922%);fill-opacity:1;" d="M 146.257812 58.699219 C 141.820312 49.824219 135.695312 49.289062 132.457031 49.289062 L 127.441406 49.289062 C 122.359375 49.289062 119.015625 52.875 117.535156 56.800781 C 116.792969 58.769531 110.726562 75.1875 108.625 80.652344 C 106.523438 86.117188 101.53125 87.40625 97.816406 87.40625 L 78.730469 87.40625 C 78.058594 87.40625 74.914062 87.40625 74.914062 87.40625 C 69.976562 86.269531 62.375 83.550781 60.410156 76.722656 C 58.542969 70.210938 60.5625 62.601562 65.9375 54.46875 C 66.875 53.042969 66.753906 51.078125 65.4375 49.988281 C 63.933594 48.746094 61.734375 49.105469 60.683594 50.683594 C 54.089844 60.570312 52.179688 70.496094 54.460938 78.382812 C 56.613281 85.800781 61.613281 91.984375 65.753906 95.042969 C 63.988281 97.785156 62.699219 99.621094 62.699219 105.726562 C 62.699219 124.046875 53.539062 128.628906 53.539062 128.628906 L 53.539062 140.945312 C 53.539062 145.101562 56.910156 148.472656 61.070312 148.472656 L 70.332031 148.472656 C 70.332031 148.472656 70.496094 142.367188 64.226562 142.367188 L 64.226562 134.734375 C 81.171875 127.203125 87.125 119.46875 87.125 119.46875 C 96.539062 119.46875 98.015625 125.574219 113.078125 125.574219 L 113.078125 140.839844 C 113.078125 145.039062 116.511719 148.464844 120.710938 148.457031 L 129.921875 148.433594 C 129.921875 148.433594 129.414062 142.367188 123.765625 142.367188 L 123.765625 122.519531 C 131.351562 122.519531 137.5 116.363281 137.488281 108.777344 C 137.476562 102.035156 137.488281 95.714844 137.496094 88.929688 C 137.5 85.554688 140.234375 82.828125 143.609375 82.828125 C 162.425781 82.828125 160.402344 67.5625 160.402344 67.5625 C 160.402344 67.5625 149.390625 64.972656 146.257812 58.699219 Z M 146.257812 58.699219 "/>
<path style=" stroke:none;fill-rule:nonzero;fill:rgb(96.470588%,80.000001%,64.313728%);fill-opacity:1;" d="M 160.40625 67.5625 C 160.40625 67.5625 149.386719 64.964844 146.257812 58.707031 C 141.828125 49.824219 135.691406 49.289062 132.457031 49.289062 L 127.449219 49.289062 C 122.363281 49.289062 119.007812 52.875 117.539062 56.800781 C 116.792969 58.769531 110.730469 75.179688 108.625 80.644531 C 106.519531 86.113281 101.527344 87.410156 97.816406 87.410156 L 78.730469 87.410156 C 78.058594 87.410156 74.914062 87.410156 74.914062 87.410156 C 69.984375 86.28125 62.382812 83.546875 60.410156 76.722656 C 58.550781 70.21875 60.5625 62.601562 65.9375 54.464844 C 66.882812 53.042969 66.761719 51.074219 65.433594 49.992188 C 63.9375 48.753906 61.53125 49.097656 60.476562 50.667969 C 53.878906 60.558594 51.972656 70.484375 54.246094 78.375 C 56.398438 85.796875 61.617188 91.988281 65.757812 95.042969 C 63.984375 97.789062 62.875 100.269531 62.875 106.375 C 62.875 124.695312 53.542969 128.628906 53.542969 128.628906 L 53.542969 140.949219 C 53.542969 145.101562 56.914062 148.472656 61.066406 148.472656 L 70.335938 148.472656 C 70.335938 148.472656 70.6875 141.917969 64.414062 141.917969 L 64.414062 134.285156 C 69.390625 132.070312 73.234375 130.292969 76.441406 128.261719 C 84.164062 123.332031 87.125 119.46875 87.125 119.46875 C 96.546875 119.46875 98.179688 125.566406 113.246094 125.566406 L 113.246094 140.835938 C 113.246094 145.03125 116.515625 148.472656 120.710938 148.457031 L 124.039062 148.441406 L 124.757812 148.441406 L 129.917969 148.429688 C 129.917969 148.429688 130.21875 142.769531 124.828125 142.585938 C 124.738281 142.570312 124.644531 142.570312 124.554688 142.570312 L 124.554688 122.722656 L 124.828125 122.722656 C 127.988281 122.660156 130.117188 121.316406 132.40625 119.46875 C 135.507812 116.949219 136.746094 113.679688 136.746094 109.375 C 136.746094 109.359375 136.746094 109.359375 136.746094 109.34375 C 136.730469 102.597656 136.746094 96.277344 136.746094 89.496094 C 136.761719 86.125 140.238281 82.828125 143.613281 82.828125 C 159.109375 82.828125 160.464844 72.476562 160.464844 68.8125 C 160.46875 68.035156 160.40625 67.5625 160.40625 67.5625 Z M 160.40625 67.5625 "/>
<path style=" stroke:none;fill-rule:nonzero;fill:rgb(76.078433%,60.784316%,40.392157%);fill-opacity:1;" d="M 111.554688 76.722656 L 111.554688 107.253906 C 111.554688 109.542969 109.738281 115.179688 106.976562 117.941406 C 104.210938 120.703125 101.265625 121.757812 97.050781 121.757812 C 97.050781 121.757812 89.417969 118.703125 87.128906 119.464844 L 66.152344 94.246094 C 62.015625 91.191406 56.609375 85.804688 54.457031 78.382812 C 52.183594 70.492188 54.09375 60.566406 60.6875 50.675781 C 61.738281 49.105469 63.9375 48.753906 65.433594 49.988281 C 66.761719 51.074219 66.882812 53.042969 65.9375 54.464844 C 60.5625 62.601562 58.550781 70.21875 60.410156 76.722656 C 62.382812 83.546875 69.984375 86.277344 74.914062 87.40625 C 74.914062 87.40625 78.058594 87.40625 78.730469 87.40625 L 97.816406 87.40625 C 101.527344 87.40625 106.519531 86.109375 108.625 80.644531 C 109.050781 79.53125 109.644531 77.941406 110.335938 76.125 Z M 111.554688 76.722656 "/>
<path style=" stroke:none;fill-rule:nonzero;fill:rgb(27.843139%,16.862746%,16.078432%);fill-opacity:1;" d="M 71.664062 149.875 L 61.070312 149.875 C 56.148438 149.875 52.140625 145.871094 52.140625 140.949219 L 52.140625 129 C 52.125 128.09375 52.4375 127.570312 53 127.335938 C 53.335938 127.1875 61.472656 123.398438 61.472656 106.375 C 61.472656 100.933594 62.292969 98.15625 63.910156 95.375 C 59.953125 92.113281 55.042969 86.136719 52.90625 78.765625 C 50.402344 70.09375 52.683594 59.839844 59.3125 49.890625 C 60.03125 48.816406 61.210938 48.09375 62.558594 47.894531 C 63.945312 47.6875 65.300781 48.0625 66.328125 48.910156 C 68.171875 50.414062 68.507812 53.136719 67.105469 55.238281 C 61.835938 63.21875 60.035156 70.316406 61.761719 76.335938 C 63.433594 82.132812 69.886719 84.796875 75.074219 86.007812 L 97.816406 86.007812 C 100.519531 86.007812 105.351562 85.246094 107.316406 80.140625 C 108.757812 76.414062 112.035156 67.589844 114.207031 61.734375 C 115.21875 59.011719 115.992188 56.929688 116.230469 56.300781 C 117.75 52.238281 121.539062 48.125 127.492188 48.125 L 132.5 48.125 C 134.964844 48.125 142.429688 47.886719 147.511719 58.082031 C 150.304688 63.675781 160.628906 66.175781 160.730469 66.199219 C 161.457031 66.375 161.871094 67.210938 161.871094 68.8125 C 161.871094 72.433594 160.554688 84.230469 143.613281 84.230469 C 140.96875 84.230469 137.761719 86.8125 137.746094 89.375 L 137.742188 96.085938 C 137.738281 100.445312 137.734375 104.734375 137.746094 109.210938 C 137.746094 114.179688 136.605469 117.859375 133.289062 120.550781 C 130.914062 122.46875 128.800781 123.746094 125.957031 124.050781 L 125.957031 141.28125 C 127.339844 141.496094 128.5625 142.125 129.5 143.148438 C 131.460938 145.289062 131.320312 148.371094 131.316406 148.503906 L 131.246094 149.824219 L 120.71875 149.859375 C 120.707031 149.859375 120.695312 149.859375 120.683594 149.859375 C 118.347656 149.859375 116.152344 148.953125 114.503906 147.308594 C 112.789062 145.601562 111.84375 143.300781 111.84375 140.835938 L 111.84375 126.953125 C 104.050781 126.753906 99.945312 124.90625 96.300781 123.265625 C 93.609375 122.050781 91.265625 120.992188 87.769531 120.878906 C 86.640625 122.15625 83.421875 125.46875 77.191406 129.445312 C 74.007812 131.460938 70.289062 133.195312 65.8125 135.195312 L 65.8125 140.621094 C 67.375 140.859375 68.671875 141.511719 69.671875 142.570312 C 71.898438 144.921875 71.738281 148.402344 71.730469 148.550781 Z M 54.945312 129.460938 L 54.945312 140.945312 C 54.945312 144.320312 57.691406 147.070312 61.070312 147.070312 L 68.828125 147.070312 C 68.6875 146.265625 68.363281 145.242188 67.632812 144.480469 C 66.882812 143.695312 65.832031 143.316406 64.414062 143.316406 C 63.625 143.316406 63.125 142.8125 63.015625 141.75 L 63.015625 134.5625 C 63.0625 133.84375 63.25 133.3125 63.847656 133.003906 C 68.59375 130.890625 72.480469 129.113281 75.695312 127.078125 C 83.066406 122.371094 85.992188 118.648438 86.023438 118.613281 L 86.445312 118.070312 L 87.132812 118.066406 C 91.589844 118.066406 94.4375 119.351562 97.453125 120.707031 C 101.054688 122.328125 105.136719 124.164062 113.25 124.164062 C 114.246094 124.199219 114.6875 125.125 114.648438 125.996094 L 114.648438 140.832031 C 114.648438 142.546875 115.300781 144.140625 116.484375 145.320312 C 117.613281 146.445312 119.203125 147.078125 120.710938 147.054688 L 128.386719 147.027344 C 128.253906 146.382812 127.976562 145.617188 127.429688 145.027344 C 126.8125 144.363281 125.949219 144.019531 124.789062 143.980469 C 123.714844 143.921875 123.1875 143.246094 123.160156 142.566406 L 123.160156 123 C 123.109375 122.1875 124.003906 121.457031 124.835938 121.320312 C 127.445312 121.273438 129.273438 120.203125 131.535156 118.375 C 134.175781 116.230469 134.953125 113.324219 134.953125 109.246094 C 134.941406 104.738281 134.945312 100.445312 134.949219 96.078125 L 134.953125 89.371094 C 134.972656 85.292969 139.464844 81.429688 143.617188 81.429688 C 157.566406 81.429688 159.074219 72.605469 159.074219 68.8125 C 159.074219 68.757812 159.074219 68.703125 159.074219 68.652344 C 156.148438 67.8125 147.839844 64.988281 145.011719 59.335938 C 140.703125 50.6875 134.714844 50.6875 132.460938 50.6875 L 127.453125 50.6875 C 121.765625 50.6875 119.4375 55.738281 118.859375 57.289062 C 118.617188 57.921875 117.847656 59.996094 116.835938 62.710938 C 114.660156 68.574219 111.375 77.414062 109.9375 81.148438 C 108.058594 86.019531 103.644531 88.808594 97.820312 88.808594 L 74.609375 88.773438 C 66.082031 86.816406 60.710938 82.785156 59.070312 77.109375 C 57.113281 70.269531 59.03125 62.390625 64.777344 53.691406 C 65.296875 52.910156 65.351562 51.726562 64.558594 51.074219 C 64.136719 50.722656 63.558594 50.570312 62.96875 50.664062 C 62.40625 50.746094 61.925781 51.03125 61.648438 51.445312 C 55.570312 60.5625 53.363281 70.234375 55.601562 77.988281 C 57.730469 85.328125 62.855469 91.15625 66.59375 93.914062 C 67.132812 94.347656 67.367188 95.132812 66.941406 95.800781 C 65.382812 98.214844 64.28125 100.390625 64.28125 106.375 C 64.277344 122.324219 57.410156 127.953125 54.945312 129.460938 Z M 54.945312 129.460938 "/>
<path style=" stroke:none;fill-rule:nonzero;fill:rgb(76.078433%,60.784316%,40.392157%);fill-opacity:1;" d="M 130.875 66.21875 C 129.613281 63.152344 126.207031 61.550781 123.007812 62.484375 C 123.007812 62.484375 119.953125 71.058594 119.953125 78.070312 C 119.953125 81.96875 122.242188 86.644531 126.820312 86.644531 C 131.402344 86.644531 133.691406 81.96875 133.691406 78.070312 C 133.691406 74.03125 132.257812 69.574219 130.875 66.21875 Z M 130.875 66.21875 "/>
<path style=" stroke:none;fill-rule:nonzero;fill:rgb(27.843139%,16.862746%,16.078432%);fill-opacity:1;" d="M 157.355469 66.035156 C 155.667969 66.035156 154.300781 67.402344 154.300781 69.089844 C 154.300781 70.773438 155.667969 72.140625 157.355469 72.140625 C 159.042969 72.140625 160.410156 70.773438 160.410156 69.089844 C 160.410156 67.402344 159.042969 66.035156 157.355469 66.035156 Z M 157.355469 66.035156 "/>
<path style=" stroke:none;fill-rule:nonzero;fill:rgb(27.843139%,16.862746%,16.078432%);fill-opacity:1;" d="M 141.324219 61.453125 C 140.0625 61.453125 139.035156 62.480469 139.035156 63.742188 C 139.035156 65.007812 140.0625 66.035156 141.324219 66.035156 C 142.589844 66.035156 143.617188 65.007812 143.617188 63.742188 C 143.617188 62.480469 142.589844 61.453125 141.324219 61.453125 Z M 141.324219 61.453125 "/>
<path style=" stroke:none;fill-rule:nonzero;fill:rgb(27.843139%,16.862746%,16.078432%);fill-opacity:1;" d="M 126.820312 87.40625 C 121.863281 87.40625 119.1875 82.597656 119.1875 78.070312 C 119.1875 73.953125 120.214844 69.332031 121.074219 66.179688 C 121.1875 65.773438 121.601562 65.539062 122.011719 65.644531 C 122.417969 65.757812 122.65625 66.175781 122.546875 66.582031 C 121.710938 69.644531 120.714844 74.125 120.714844 78.074219 C 120.714844 81.316406 122.609375 85.882812 126.820312 85.882812 C 131.03125 85.882812 132.925781 81.316406 132.925781 78.074219 C 132.925781 74.054688 131.425781 69.566406 130.164062 66.511719 C 129.050781 63.804688 126.0625 62.386719 123.214844 63.21875 C 122.808594 63.339844 122.386719 63.105469 122.269531 62.699219 C 122.152344 62.296875 122.382812 61.871094 122.789062 61.753906 C 126.386719 60.703125 130.164062 62.5 131.578125 65.929688 C 132.890625 69.113281 134.453125 73.808594 134.453125 78.074219 C 134.457031 82.597656 131.78125 87.40625 126.820312 87.40625 Z M 126.820312 87.40625 "/>
<path style=" stroke:none;fill-rule:nonzero;fill:rgb(27.843139%,16.862746%,16.078432%);fill-opacity:1;" d="M 97.054688 122.519531 C 96.632812 122.519531 96.289062 122.179688 96.289062 121.757812 C 96.289062 121.335938 96.632812 120.992188 97.054688 120.992188 C 104.695312 120.992188 110.03125 115.027344 110.03125 106.488281 C 110.03125 106.066406 110.371094 105.699219 110.792969 105.699219 C 111.214844 105.699219 111.558594 106.019531 111.558594 106.4375 L 111.558594 106.484375 C 111.554688 115.777344 105.457031 122.519531 97.054688 122.519531 Z M 97.054688 122.519531 "/>
<path style=" stroke:none;fill-rule:nonzero;fill:rgb(27.843139%,16.862746%,16.078432%);fill-opacity:1;" d="M 110.792969 104.152344 C 110.371094 104.152344 110.027344 103.8125 110.027344 103.390625 L 110.027344 100.335938 C 110.027344 99.914062 110.371094 99.570312 110.792969 99.570312 C 111.214844 99.570312 111.554688 99.914062 111.554688 100.335938 L 111.554688 103.390625 C 111.554688 103.8125 111.214844 104.152344 110.792969 104.152344 Z M 110.792969 104.152344 "/>
<path style=" stroke:none;fill-rule:nonzero;fill:rgb(27.843139%,16.862746%,16.078432%);fill-opacity:1;" d="M 110.792969 98.046875 C 110.371094 98.046875 110.027344 97.703125 110.027344 97.28125 L 110.027344 75.957031 C 110.027344 75.535156 110.371094 75.195312 110.792969 75.195312 C 111.214844 75.195312 111.554688 75.535156 111.554688 75.957031 L 111.554688 97.285156 C 111.554688 97.703125 111.214844 98.046875 110.792969 98.046875 Z M 110.792969 98.046875 "/>
<path style=" stroke:none;fill-rule:nonzero;fill:rgb(27.843139%,16.862746%,16.078432%);fill-opacity:1;" d="M 87.128906 120.230469 C 86.914062 120.230469 86.703125 120.140625 86.550781 119.964844 L 68.792969 99.382812 C 68.515625 99.0625 68.550781 98.582031 68.871094 98.308594 C 69.191406 98.03125 69.675781 98.066406 69.949219 98.386719 L 87.707031 118.96875 C 87.984375 119.289062 87.949219 119.769531 87.628906 120.042969 C 87.484375 120.171875 87.308594 120.230469 87.128906 120.230469 Z M 87.128906 120.230469 "/>
</g>
</svg>
