<?xml version="1.0" encoding="UTF-8"?>
<svg xmlns="http://www.w3.org/2000/svg" xmlns:xlink="http://www.w3.org/1999/xlink" viewBox="0 0 200 200" width="200px" height="200px">
<g id="surface87826297">
<path style=" stroke:none;fill-rule:nonzero;fill:rgb(94.509804%,73.725492%,9.803922%);fill-opacity:1;" d="M 160 26 C 160 27.105469 159.105469 28 158 28 C 156.894531 28 156 27.105469 156 26 C 156 24.894531 156.894531 24 158 24 C 159.105469 24 160 24.894531 160 26 Z M 160 26 "/>
<path style=" stroke:none;fill-rule:nonzero;fill:rgb(97.647059%,85.882354%,82.352942%);fill-opacity:1;" d="M 174 100 C 174 140.867188 140.867188 174 100 174 C 59.132812 174 26 140.867188 26 100 C 26 59.132812 59.132812 26 100 26 C 140.867188 26 174 59.132812 174 100 Z M 174 100 "/>
<path style=" stroke:none;fill-rule:nonzero;fill:rgb(94.509804%,73.725492%,9.803922%);fill-opacity:1;" d="M 178 30 C 178 34.417969 174.417969 38 170 38 C 165.582031 38 162 34.417969 162 30 C 162 25.582031 165.582031 22 170 22 C 174.417969 22 178 25.582031 178 30 Z M 178 30 "/>
<path style=" stroke:none;fill-rule:nonzero;fill:rgb(93.333334%,24.313726%,32.941177%);fill-opacity:1;" d="M 30 58 C 30 60.210938 28.210938 62 26 62 C 23.789062 62 22 60.210938 22 58 C 22 55.789062 23.789062 54 26 54 C 28.210938 54 30 55.789062 30 58 Z M 30 58 "/>
<path style=" stroke:none;fill-rule:nonzero;fill:rgb(98.431373%,80.392158%,34.901962%);fill-opacity:1;" d="M 174 152 C 174 154.210938 172.210938 156 170 156 C 167.789062 156 166 154.210938 166 152 C 166 149.789062 167.789062 148 170 148 C 172.210938 148 174 149.789062 174 152 Z M 174 152 "/>
<path style=" stroke:none;fill-rule:nonzero;fill:rgb(98.431373%,80.392158%,34.901962%);fill-opacity:1;" d="M 42 128 C 42 132.417969 38.417969 136 34 136 C 29.582031 136 26 132.417969 26 128 C 26 123.582031 29.582031 120 34 120 C 38.417969 120 42 123.582031 42 128 Z M 42 128 "/>
<path style=" stroke:none;fill-rule:nonzero;fill:rgb(93.333334%,24.313726%,32.941177%);fill-opacity:1;" d="M 58 174 C 58 176.210938 56.210938 178 54 178 C 51.789062 178 50 176.210938 50 174 C 50 171.789062 51.789062 170 54 170 C 56.210938 170 58 171.789062 58 174 Z M 58 174 "/>
<path style=" stroke:none;fill-rule:nonzero;fill:rgb(100%,100%,100%);fill-opacity:1;" d="M 46 137.941406 C 46 139.015625 45.128906 139.882812 44.058594 139.882812 C 42.984375 139.882812 42.117188 139.015625 42.117188 137.941406 C 42.117188 136.871094 42.984375 136 44.058594 136 C 45.128906 136 46 136.871094 46 137.941406 Z M 46 137.941406 "/>
<path style=" stroke:none;fill-rule:nonzero;fill:rgb(94.509804%,73.725492%,9.803922%);fill-opacity:1;" d="M 172 62 C 172 63.105469 171.105469 64 170 64 C 168.894531 64 168 63.105469 168 62 C 168 60.894531 168.894531 60 170 60 C 171.105469 60 172 60.894531 172 62 Z M 172 62 "/>
<path style=" stroke:none;fill-rule:nonzero;fill:rgb(100%,100%,100%);fill-opacity:1;" d="M 161.84375 127.851562 C 161.84375 130.0625 160.054688 131.851562 157.84375 131.851562 C 155.636719 131.851562 153.84375 130.0625 153.84375 127.851562 C 153.84375 125.644531 155.636719 123.851562 157.84375 123.851562 C 160.054688 123.851562 161.84375 125.644531 161.84375 127.851562 Z M 161.84375 127.851562 "/>
<path style=" stroke:none;fill-rule:nonzero;fill:rgb(100%,100%,100%);fill-opacity:1;" d="M 160 68 C 160 69.105469 159.105469 70 158 70 C 156.894531 70 156 69.105469 156 68 C 156 66.894531 156.894531 66 158 66 C 159.105469 66 160 66.894531 160 68 Z M 160 68 "/>
<path style=" stroke:none;fill-rule:nonzero;fill:rgb(93.333334%,24.313726%,32.941177%);fill-opacity:1;" d="M 53.570312 137.789062 L 150.761719 137.789062 L 158.601562 156.601562 L 44.601562 156.601562 Z M 53.570312 137.789062 "/>
<path style=" stroke:none;fill-rule:nonzero;fill:rgb(98.431373%,80.392158%,34.901962%);fill-opacity:1;" d="M 104.464844 147.554688 C 104.464844 149.691406 102.734375 151.421875 100.601562 151.421875 C 98.464844 151.421875 96.734375 149.691406 96.734375 147.554688 C 96.734375 145.421875 98.464844 143.691406 100.601562 143.691406 C 102.734375 143.691406 104.464844 145.421875 104.464844 147.554688 Z M 104.464844 147.554688 "/>
<path style=" stroke:none;fill-rule:nonzero;fill:rgb(98.431373%,80.392158%,34.901962%);fill-opacity:1;" d="M 82.863281 147.195312 C 82.863281 148.796875 81.566406 150.09375 79.964844 150.09375 C 78.363281 150.09375 77.0625 148.796875 77.0625 147.195312 C 77.0625 145.59375 78.363281 144.292969 79.964844 144.292969 C 81.566406 144.292969 82.863281 145.59375 82.863281 147.195312 Z M 82.863281 147.195312 "/>
<path style=" stroke:none;fill-rule:nonzero;fill:rgb(98.431373%,80.392158%,34.901962%);fill-opacity:1;" d="M 63.632812 146.355469 C 63.632812 147.957031 62.335938 149.253906 60.734375 149.253906 C 59.132812 149.253906 57.835938 147.957031 57.835938 146.355469 C 57.835938 144.753906 59.132812 143.453125 60.734375 143.453125 C 62.335938 143.453125 63.632812 144.753906 63.632812 146.355469 Z M 63.632812 146.355469 "/>
<path style=" stroke:none;fill-rule:nonzero;fill:rgb(98.431373%,80.392158%,34.901962%);fill-opacity:1;" d="M 122.886719 147.195312 C 122.886719 148.796875 121.589844 150.09375 119.988281 150.09375 C 118.386719 150.09375 117.089844 148.796875 117.089844 147.195312 C 117.089844 145.59375 118.386719 144.292969 119.988281 144.292969 C 121.589844 144.292969 122.886719 145.59375 122.886719 147.195312 Z M 122.886719 147.195312 "/>
<path style=" stroke:none;fill-rule:nonzero;fill:rgb(98.431373%,80.392158%,34.901962%);fill-opacity:1;" d="M 143.441406 148.121094 C 143.441406 149.777344 142.097656 151.121094 140.441406 151.121094 C 138.78125 151.121094 137.441406 149.777344 137.441406 148.121094 C 137.441406 146.464844 138.78125 145.121094 140.441406 145.121094 C 142.097656 145.121094 143.441406 146.464844 143.441406 148.121094 Z M 143.441406 148.121094 "/>
<path style=" stroke:none;fill-rule:nonzero;fill:rgb(98.431373%,80.392158%,34.901962%);fill-opacity:1;" d="M 130.296875 132.585938 C 129.328125 131.941406 129.007812 130.328125 129.972656 129.363281 C 132.875 127.109375 137.0625 121.632812 137.0625 116.476562 C 137.0625 97.800781 110.625 95.777344 105.648438 80.710938 C 105.847656 80.566406 106.054688 80.429688 106.246094 80.28125 C 114.117188 74.105469 119.808594 63.652344 114.707031 50.003906 C 110.195312 37.4375 99.058594 33.753906 89.394531 33.753906 C 81.984375 33.753906 73.914062 35.609375 73.914062 40.121094 C 73.914062 40.96875 74.234375 41.652344 74.773438 42.230469 C 74.886719 42.355469 75.015625 42.464844 75.148438 42.578125 C 74.394531 43.074219 73.492188 43.734375 72.9375 44.148438 C 71.398438 45.304688 67.496094 49.589844 67.496094 49.589844 C 67.496094 49.589844 55.261719 53.671875 53.898438 56.390625 C 52.539062 59.109375 55.261719 69.988281 60.699219 71.347656 C 62.269531 71.738281 65.019531 72.300781 67.480469 72.683594 C 67.347656 72.757812 67.210938 72.828125 67.074219 72.902344 C 61.839844 75.828125 57.484375 79.257812 57.484375 85.550781 C 57.484375 92.960938 61.992188 95.214844 61.992188 95.214844 C 62.003906 95.210938 62.019531 95.207031 62.027344 95.203125 C 63.277344 98.230469 65.039062 100.699219 67.121094 102.660156 L 72.625 126.144531 L 69.726562 127.109375 C 66.183594 128.398438 63.925781 131.296875 63.28125 134.84375 L 62.972656 137.789062 L 81.785156 137.789062 L 85.785156 108.886719 C 91.289062 109.179688 100.164062 110.886719 104.839844 120.023438 C 106.773438 125.496094 114.828125 128.71875 114.828125 128.71875 L 108.0625 127.433594 C 103.550781 126.464844 98.71875 128.71875 96.785156 132.90625 L 94.324219 137.789062 L 133.515625 137.789062 C 133.519531 135.855469 131.585938 133.554688 130.296875 132.585938 Z M 130.296875 132.585938 "/>
<path style=" stroke:none;fill-rule:nonzero;fill:rgb(92.54902%,47.450981%,35.294119%);fill-opacity:1;" d="M 142.425781 86.265625 C 142.425781 86.265625 147.125 93.082031 147.125 95.671875 C 147.125 98.257812 145.011719 100.371094 142.425781 100.371094 C 139.839844 100.371094 137.722656 98.257812 137.722656 95.671875 C 137.722656 93.085938 142.425781 86.265625 142.425781 86.265625 Z M 142.425781 86.265625 "/>
<path style=" stroke:none;fill-rule:nonzero;fill:rgb(92.54902%,47.450981%,35.294119%);fill-opacity:1;" d="M 88.042969 34.550781 C 97.304688 34.550781 109.078125 36.535156 113.988281 50.230469 C 127.265625 85.738281 74.097656 92.570312 61.515625 94.566406 C 61.515625 94.566406 56.992188 92.402344 57.191406 85.304688 C 57.65625 68.53125 82.613281 71.449219 84.640625 55.351562 C 86.699219 57.695312 96.003906 56.867188 95.671875 51.378906 C 95.128906 42.492188 86.394531 44.828125 84.25 48.417969 C 80.902344 41.816406 73.390625 44.628906 73.390625 40.308594 C 73.390625 35.984375 80.941406 34.550781 88.042969 34.550781 Z M 88.042969 34.550781 "/>
<path style=" stroke:none;fill-rule:nonzero;fill:rgb(27.843139%,16.862746%,16.078432%);fill-opacity:1;" d="M 75.003906 49.835938 C 71.710938 49.835938 71.710938 54.539062 71.710938 54.539062 C 71.710938 54.539062 72.941406 54.539062 74.457031 54.539062 C 78.296875 54.539062 78.296875 49.835938 78.296875 49.835938 C 78.296875 49.835938 76.515625 49.835938 75.003906 49.835938 Z M 75.003906 49.835938 "/>
<path style=" stroke:none;fill-rule:nonzero;fill:rgb(27.843139%,16.862746%,16.078432%);fill-opacity:1;" d="M 142.425781 101.773438 C 139.058594 101.773438 136.320312 99.035156 136.320312 95.671875 C 136.320312 92.792969 140.445312 86.667969 141.273438 85.46875 C 141.535156 85.089844 141.964844 84.863281 142.425781 84.863281 C 142.882812 84.863281 143.3125 85.089844 143.574219 85.46875 C 144.402344 86.667969 148.527344 92.789062 148.527344 95.671875 C 148.527344 99.035156 145.789062 101.773438 142.425781 101.773438 Z M 142.425781 88.808594 C 140.800781 91.375 139.121094 94.476562 139.121094 95.671875 C 139.121094 97.488281 140.601562 98.96875 142.425781 98.96875 C 144.242188 98.96875 145.722656 97.488281 145.722656 95.671875 C 145.722656 94.476562 144.042969 91.375 142.425781 88.808594 Z M 142.425781 88.808594 "/>
<path style=" stroke:none;fill-rule:nonzero;fill:rgb(27.843139%,16.862746%,16.078432%);fill-opacity:1;" d="M 112.125 106.6875 C 111.714844 106.6875 111.328125 106.433594 111.183594 106.023438 C 110.996094 105.503906 111.265625 104.933594 111.785156 104.742188 C 113.214844 104.230469 114.285156 104.078125 114.328125 104.074219 C 114.859375 103.996094 115.375 104.375 115.453125 104.925781 C 115.53125 105.472656 115.148438 105.976562 114.601562 106.054688 C 114.59375 106.054688 113.679688 106.1875 112.460938 106.625 C 112.351562 106.664062 112.234375 106.6875 112.125 106.6875 Z M 112.125 106.6875 "/>
<path style=" stroke:none;fill-rule:nonzero;fill:rgb(27.843139%,16.862746%,16.078432%);fill-opacity:1;" d="M 105.21875 120.878906 C 104.785156 120.878906 104.386719 120.59375 104.261719 120.15625 C 102.171875 112.933594 104.941406 108.945312 107.632812 106.871094 C 108.070312 106.535156 108.695312 106.617188 109.035156 107.054688 C 109.371094 107.492188 109.289062 108.121094 108.851562 108.457031 C 105.652344 110.917969 104.753906 114.667969 106.183594 119.601562 C 106.335938 120.132812 106.03125 120.6875 105.496094 120.839844 C 105.402344 120.871094 105.308594 120.878906 105.21875 120.878906 Z M 105.21875 120.878906 "/>
<path style=" stroke:none;fill-rule:nonzero;fill:rgb(27.843139%,16.862746%,16.078432%);fill-opacity:1;" d="M 59.851562 68.972656 C 58.039062 68.972656 56.585938 68.511719 55.640625 68.089844 C 55.136719 67.867188 54.910156 67.273438 55.132812 66.769531 C 55.359375 66.261719 55.957031 66.042969 56.453125 66.261719 C 58.296875 67.082031 61.261719 67.617188 64.945312 65.511719 C 65.414062 65.242188 66.03125 65.402344 66.308594 65.886719 C 66.585938 66.367188 66.417969 66.976562 65.9375 67.253906 C 63.660156 68.546875 61.59375 68.972656 59.851562 68.972656 Z M 59.851562 68.972656 "/>
<path style=" stroke:none;fill-rule:nonzero;fill:rgb(27.843139%,16.862746%,16.078432%);fill-opacity:1;" d="M 133.519531 139.191406 L 94.328125 139.191406 C 93.84375 139.191406 93.390625 138.9375 93.136719 138.523438 C 92.878906 138.109375 92.859375 137.59375 93.078125 137.15625 L 95.539062 132.277344 C 97.601562 127.8125 102.550781 125.203125 107.554688 125.921875 C 105.847656 124.464844 104.285156 122.644531 103.523438 120.484375 C 100.46875 114.542969 94.890625 111.097656 86.996094 110.375 L 83.175781 137.980469 C 83.078125 138.675781 82.484375 139.1875 81.789062 139.1875 L 62.976562 139.1875 C 62.582031 139.1875 62.203125 139.019531 61.9375 138.726562 C 61.671875 138.433594 61.542969 138.035156 61.585938 137.640625 L 61.890625 134.695312 C 62.664062 130.421875 65.34375 127.214844 69.25 125.792969 L 70.972656 125.21875 L 65.855469 103.382812 C 63.789062 101.363281 62.136719 98.957031 60.933594 96.210938 C 59.660156 95.375 56.085938 92.421875 56.085938 85.550781 C 56.085938 79.71875 59.398438 76.148438 63.539062 73.402344 C 62.261719 73.148438 61.132812 72.898438 60.359375 72.707031 C 57.195312 71.914062 55.191406 68.835938 54.066406 66.390625 C 52.484375 62.945312 51.519531 58.027344 52.648438 55.765625 C 54.101562 52.867188 63.363281 49.511719 66.710938 48.378906 C 67.652344 47.359375 70.675781 44.101562 72.097656 43.035156 C 72.367188 42.828125 72.714844 42.574219 73.089844 42.308594 C 72.707031 41.644531 72.515625 40.914062 72.515625 40.125 C 72.515625 34.398438 81.230469 32.355469 89.390625 32.355469 C 102.398438 32.355469 112.105469 38.617188 116.023438 49.53125 C 122.410156 66.625 112.253906 77.269531 107.320312 81.210938 C 109.648438 86.886719 115.421875 90.578125 121.515625 94.476562 C 129.847656 99.808594 138.460938 105.324219 138.460938 116.480469 C 138.460938 122.347656 133.78125 128.175781 130.832031 130.472656 C 130.792969 130.523438 130.78125 130.734375 130.792969 130.882812 C 130.8125 131.105469 130.929688 131.328125 131.070312 131.425781 C 131.09375 131.4375 131.113281 131.453125 131.132812 131.46875 C 132.59375 132.5625 134.914062 135.25 134.914062 137.789062 C 134.917969 138.5625 134.292969 139.191406 133.519531 139.191406 Z M 96.601562 136.386719 L 131.699219 136.386719 C 131.167969 135.359375 130.230469 134.292969 129.480469 133.722656 C 128.664062 133.160156 128.113281 132.203125 128.011719 131.15625 C 127.90625 130.113281 128.265625 129.101562 128.984375 128.375 C 131.757812 126.203125 135.664062 121.039062 135.664062 116.476562 C 135.664062 106.855469 128.058594 101.988281 120.011719 96.835938 C 113.460938 92.640625 106.6875 88.308594 104.320312 81.152344 C 104.132812 80.582031 104.332031 79.953125 104.8125 79.59375 L 105.382812 79.179688 C 109.738281 75.761719 119.242188 66.125 113.398438 50.492188 C 108.605469 37.144531 96.304688 35.15625 89.394531 35.15625 C 81.371094 35.15625 75.316406 37.292969 75.316406 40.125 C 75.316406 40.566406 75.464844 40.921875 75.796875 41.277344 C 75.875 41.359375 75.96875 41.4375 76.058594 41.515625 C 76.394531 41.800781 76.574219 42.226562 76.546875 42.664062 C 76.523438 43.105469 76.289062 43.503906 75.925781 43.746094 C 75.195312 44.230469 74.316406 44.867188 73.777344 45.273438 C 72.609375 46.148438 69.597656 49.367188 68.539062 50.535156 C 68.378906 50.710938 68.171875 50.84375 67.945312 50.917969 C 62.300781 52.800781 55.8125 55.699219 55.152344 57.015625 C 54.675781 57.972656 55.011719 61.738281 56.613281 65.21875 C 57.839844 67.890625 59.410156 69.585938 61.039062 69.992188 C 62.457031 70.347656 65.140625 70.902344 67.691406 71.296875 C 68.285156 71.386719 68.75 71.84375 68.855469 72.433594 C 68.964844 73.019531 68.683594 73.609375 68.160156 73.902344 L 67.761719 74.121094 C 62.433594 77.097656 58.882812 80.179688 58.882812 85.546875 C 58.882812 91.410156 61.929688 93.542969 62.535156 93.910156 C 62.878906 94.042969 63.171875 94.308594 63.320312 94.667969 C 64.441406 97.375 66.042969 99.722656 68.082031 101.636719 C 68.285156 101.824219 68.425781 102.070312 68.484375 102.339844 L 73.988281 125.820312 C 74.152344 126.527344 73.757812 127.238281 73.070312 127.46875 L 70.171875 128.433594 C 67.257812 129.492188 65.234375 131.925781 64.660156 135.089844 L 64.527344 136.382812 L 80.566406 136.382812 L 84.402344 108.691406 C 84.503906 107.96875 85.101562 107.457031 85.863281 107.480469 C 95.371094 107.984375 102.363281 112.101562 106.089844 119.375 C 107.859375 124.355469 115.277344 127.382812 115.351562 127.414062 C 116.019531 127.683594 116.375 128.417969 116.175781 129.109375 C 115.96875 129.800781 115.277344 130.230469 114.566406 130.089844 L 107.800781 128.800781 C 103.847656 127.957031 99.683594 129.972656 98.058594 133.488281 Z M 96.601562 136.386719 "/>
<path style=" stroke:none;fill-rule:nonzero;fill:rgb(27.843139%,16.862746%,16.078432%);fill-opacity:1;" d="M 100.601562 151.921875 C 98.191406 151.921875 96.230469 149.964844 96.230469 147.554688 C 96.230469 145.148438 98.191406 143.1875 100.601562 143.1875 C 103.007812 143.1875 104.964844 145.144531 104.964844 147.554688 C 104.964844 149.960938 103.007812 151.921875 100.601562 151.921875 Z M 100.601562 144.191406 C 98.742188 144.191406 97.230469 145.699219 97.230469 147.554688 C 97.230469 149.414062 98.742188 150.925781 100.601562 150.925781 C 102.457031 150.925781 103.964844 149.414062 103.964844 147.554688 C 103.964844 145.699219 102.457031 144.191406 100.601562 144.191406 Z M 100.601562 144.191406 "/>
<path style=" stroke:none;fill-rule:nonzero;fill:rgb(27.843139%,16.862746%,16.078432%);fill-opacity:1;" d="M 79.964844 150.59375 C 78.089844 150.59375 76.5625 149.066406 76.5625 147.195312 C 76.5625 145.320312 78.089844 143.792969 79.964844 143.792969 C 81.839844 143.792969 83.363281 145.320312 83.363281 147.195312 C 83.363281 149.066406 81.839844 150.59375 79.964844 150.59375 Z M 79.964844 144.792969 C 78.640625 144.792969 77.5625 145.867188 77.5625 147.191406 C 77.5625 148.515625 78.640625 149.59375 79.964844 149.59375 C 81.289062 149.59375 82.363281 148.515625 82.363281 147.191406 C 82.363281 145.867188 81.289062 144.792969 79.964844 144.792969 Z M 79.964844 144.792969 "/>
<path style=" stroke:none;fill-rule:nonzero;fill:rgb(27.843139%,16.862746%,16.078432%);fill-opacity:1;" d="M 60.730469 149.757812 C 58.859375 149.757812 57.335938 148.230469 57.335938 146.355469 C 57.335938 144.480469 58.859375 142.957031 60.730469 142.957031 C 62.609375 142.957031 64.132812 144.480469 64.132812 146.355469 C 64.132812 148.230469 62.609375 149.757812 60.730469 149.757812 Z M 60.730469 143.957031 C 59.410156 143.957031 58.335938 145.03125 58.335938 146.355469 C 58.335938 147.679688 59.410156 148.757812 60.730469 148.757812 C 62.054688 148.757812 63.132812 147.679688 63.132812 146.355469 C 63.132812 145.03125 62.054688 143.957031 60.730469 143.957031 Z M 60.730469 143.957031 "/>
<path style=" stroke:none;fill-rule:nonzero;fill:rgb(27.843139%,16.862746%,16.078432%);fill-opacity:1;" d="M 119.988281 150.59375 C 118.113281 150.59375 116.589844 149.066406 116.589844 147.195312 C 116.589844 145.320312 118.113281 143.792969 119.988281 143.792969 C 121.863281 143.792969 123.386719 145.320312 123.386719 147.195312 C 123.386719 149.066406 121.863281 150.59375 119.988281 150.59375 Z M 119.988281 144.792969 C 118.664062 144.792969 117.589844 145.867188 117.589844 147.191406 C 117.589844 148.515625 118.664062 149.59375 119.988281 149.59375 C 121.3125 149.59375 122.386719 148.515625 122.386719 147.191406 C 122.386719 145.867188 121.3125 144.792969 119.988281 144.792969 Z M 119.988281 144.792969 "/>
<path style=" stroke:none;fill-rule:nonzero;fill:rgb(27.843139%,16.862746%,16.078432%);fill-opacity:1;" d="M 140.441406 151.621094 C 138.511719 151.621094 136.941406 150.050781 136.941406 148.121094 C 136.941406 146.191406 138.511719 144.621094 140.441406 144.621094 C 142.371094 144.621094 143.941406 146.191406 143.941406 148.121094 C 143.941406 150.050781 142.371094 151.621094 140.441406 151.621094 Z M 140.441406 145.621094 C 139.0625 145.621094 137.941406 146.742188 137.941406 148.121094 C 137.941406 149.496094 139.0625 150.621094 140.441406 150.621094 C 141.816406 150.621094 142.941406 149.496094 142.941406 148.121094 C 142.941406 146.742188 141.816406 145.621094 140.441406 145.621094 Z M 140.441406 145.621094 "/>
<path style=" stroke:none;fill-rule:nonzero;fill:rgb(27.843139%,16.862746%,16.078432%);fill-opacity:1;" d="M 53.902344 56.390625 C 53.433594 57.328125 53.460938 59.246094 53.90625 61.402344 L 56.414062 60.566406 C 57.488281 60.207031 58.210938 59.203125 58.210938 58.074219 C 58.210938 56.625 57.035156 55.449219 55.585938 55.449219 L 54.734375 55.449219 C 54.351562 55.773438 54.054688 56.09375 53.902344 56.390625 Z M 53.902344 56.390625 "/>
<path style=" stroke:none;fill-rule:nonzero;fill:rgb(27.843139%,16.862746%,16.078432%);fill-opacity:1;" d="M 135.699219 110.867188 L 135.460938 108.078125 L 135.582031 109.472656 L 135.449219 108.078125 C 135.660156 108.054688 140.65625 107.445312 140.964844 99.886719 L 143.757812 100 C 143.347656 110.09375 135.777344 110.863281 135.699219 110.867188 Z M 135.699219 110.867188 "/>
<path style=" stroke:none;fill-rule:nonzero;fill:rgb(27.843139%,16.862746%,16.078432%);fill-opacity:1;" d="M 85.414062 109.777344 C 85.367188 109.777344 85.316406 109.773438 85.269531 109.769531 C 84.722656 109.6875 84.34375 109.179688 84.421875 108.632812 L 85.492188 101.339844 C 85.574219 100.792969 86.09375 100.429688 86.628906 100.492188 C 87.175781 100.574219 87.554688 101.082031 87.472656 101.625 L 86.402344 108.921875 C 86.328125 109.421875 85.898438 109.777344 85.414062 109.777344 Z M 85.414062 109.777344 "/>
<path style=" stroke:none;fill-rule:nonzero;fill:rgb(27.843139%,16.862746%,16.078432%);fill-opacity:1;" d="M 62.632812 95.761719 C 62.136719 95.761719 61.703125 95.386719 61.640625 94.882812 C 61.574219 94.339844 61.960938 93.839844 62.511719 93.769531 C 86.785156 90.753906 102.007812 82.1875 107.175781 77.605469 C 107.589844 77.238281 108.21875 77.273438 108.585938 77.6875 C 108.953125 78.101562 108.914062 78.730469 108.503906 79.101562 C 103.160156 83.839844 87.519531 92.675781 62.757812 95.753906 C 62.714844 95.757812 62.671875 95.761719 62.632812 95.761719 Z M 62.632812 95.761719 "/>
<path style=" stroke:none;fill-rule:nonzero;fill:rgb(27.843139%,16.862746%,16.078432%);fill-opacity:1;" d="M 72.488281 71.035156 C 72.128906 71.035156 71.78125 70.839844 71.605469 70.496094 C 71.347656 70.007812 71.539062 69.402344 72.027344 69.144531 C 73.066406 68.605469 74.09375 68.058594 75.09375 67.484375 C 75.574219 67.210938 76.183594 67.375 76.460938 67.855469 C 76.734375 68.339844 76.570312 68.949219 76.089844 69.222656 C 75.066406 69.808594 74.015625 70.367188 72.953125 70.921875 C 72.804688 70.996094 72.644531 71.035156 72.488281 71.035156 Z M 72.488281 71.035156 "/>
<path style=" stroke:none;fill-rule:nonzero;fill:rgb(27.843139%,16.862746%,16.078432%);fill-opacity:1;" d="M 158.601562 158 L 44.601562 158 C 44.121094 158 43.671875 157.753906 43.414062 157.347656 C 43.15625 156.941406 43.128906 156.429688 43.335938 155.996094 L 52.308594 137.1875 C 52.539062 136.699219 53.03125 136.390625 53.570312 136.390625 L 150.761719 136.390625 C 151.324219 136.390625 151.835938 136.730469 152.054688 137.253906 L 159.890625 156.0625 C 160.070312 156.496094 160.023438 156.988281 159.765625 157.378906 C 159.503906 157.765625 159.066406 158 158.601562 158 Z M 46.816406 155.199219 L 156.5 155.199219 L 149.828125 139.191406 L 54.457031 139.191406 Z M 46.816406 155.199219 "/>
<path style=" stroke:none;fill-rule:nonzero;fill:rgb(27.843139%,16.862746%,16.078432%);fill-opacity:1;" d="M 79.226562 67.011719 C 78.921875 67.011719 78.621094 66.875 78.425781 66.609375 C 78.097656 66.167969 78.1875 65.542969 78.628906 65.210938 C 79.414062 64.625 80.089844 64.050781 80.6875 63.460938 C 83.234375 60.945312 84.421875 58.144531 84.421875 54.640625 C 84.421875 54.226562 84.679688 53.851562 85.070312 53.707031 C 85.464844 53.558594 85.902344 53.667969 86.175781 53.984375 C 86.429688 54.210938 88.316406 55.449219 89.871094 55.449219 C 89.871094 55.449219 89.871094 55.449219 89.875 55.449219 C 91.117188 55.449219 92.285156 54.964844 93.164062 54.085938 C 94.046875 53.203125 94.53125 52.035156 94.53125 50.789062 C 94.53125 48.21875 92.441406 46.125 89.871094 46.125 C 88.394531 46.125 87.035156 46.820312 86.136719 48.027344 C 86.089844 48.097656 86.027344 48.15625 85.960938 48.210938 C 85.839844 48.308594 85.726562 48.425781 85.605469 48.570312 C 85.414062 48.804688 85.132812 48.941406 84.828125 48.941406 C 84.527344 48.941406 84.242188 48.804688 84.050781 48.570312 C 81.222656 45.074219 79.726562 44.8125 78.28125 44.558594 C 77.316406 44.390625 76.222656 44.199219 74.949219 43.199219 C 74.515625 42.859375 74.441406 42.230469 74.78125 41.796875 C 75.125 41.359375 75.757812 41.292969 76.183594 41.625 C 77.058594 42.316406 77.753906 42.4375 78.625 42.589844 C 80.214844 42.867188 82.003906 43.179688 84.859375 46.425781 C 86.128906 44.957031 87.925781 44.125 89.871094 44.125 C 93.542969 44.125 96.53125 47.113281 96.53125 50.789062 C 96.53125 52.566406 95.835938 54.242188 94.578125 55.496094 C 93.320312 56.753906 91.648438 57.449219 89.871094 57.449219 C 89.871094 57.449219 89.867188 57.449219 89.867188 57.449219 C 88.59375 57.449219 87.300781 56.949219 86.324219 56.425781 C 85.957031 59.664062 84.5625 62.445312 82.09375 64.882812 C 81.425781 65.539062 80.683594 66.175781 79.824219 66.8125 C 79.644531 66.949219 79.4375 67.011719 79.226562 67.011719 Z M 79.226562 67.011719 "/>
</g>
</svg>
