<?xml version="1.0" encoding="UTF-8"?>
<svg xmlns="http://www.w3.org/2000/svg" xmlns:xlink="http://www.w3.org/1999/xlink" viewBox="0 0 200 200" width="200px" height="200px">
<g id="surface100773995">
<path style=" stroke:none;fill-rule:nonzero;fill:rgb(93.333334%,24.313726%,32.941177%);fill-opacity:1;" d="M 26 54 C 23.789062 54 22 55.789062 22 58 C 22 60.210938 23.789062 62 26 62 C 28.210938 62 30 60.210938 30 58 C 30 55.789062 28.210938 54 26 54 Z M 26 54 "/>
<path style=" stroke:none;fill-rule:nonzero;fill:rgb(94.509804%,73.725492%,9.803922%);fill-opacity:1;" d="M 154 24 C 152.898438 24 152 24.898438 152 26 C 152 27.101562 152.898438 28 154 28 C 155.101562 28 156 27.101562 156 26 C 156 24.898438 155.101562 24 154 24 Z M 154 24 "/>
<path style=" stroke:none;fill-rule:nonzero;fill:rgb(98.823529%,87.843138%,63.529414%);fill-opacity:1;" d="M 100 26 C 59.132812 26 26 59.132812 26 100 C 26 140.867188 59.132812 174 100 174 C 140.867188 174 174 140.867188 174 100 C 174 59.132812 140.867188 26 100 26 Z M 100 26 "/>
<path style=" stroke:none;fill-rule:nonzero;fill:rgb(94.509804%,73.725492%,9.803922%);fill-opacity:1;" d="M 166 22 C 161.578125 22 158 25.578125 158 30 C 158 34.421875 161.578125 38 166 38 C 170.421875 38 174 34.421875 174 30 C 174 25.578125 170.421875 22 166 22 Z M 166 22 "/>
<path style=" stroke:none;fill-rule:nonzero;fill:rgb(93.333334%,24.313726%,32.941177%);fill-opacity:1;" d="M 174 44 C 171.789062 44 170 45.789062 170 48 C 170 50.210938 171.789062 52 174 52 C 176.210938 52 178 50.210938 178 48 C 178 45.789062 176.210938 44 174 44 Z M 174 44 "/>
<path style=" stroke:none;fill-rule:nonzero;fill:rgb(98.431373%,80.392158%,34.901962%);fill-opacity:1;" d="M 162 148 C 159.789062 148 158 149.789062 158 152 C 158 154.210938 159.789062 156 162 156 C 164.210938 156 166 154.210938 166 152 C 166 149.789062 164.210938 148 162 148 Z M 30 118 C 25.578125 118 22 121.578125 22 126 C 22 130.421875 25.578125 134 30 134 C 34.421875 134 38 130.421875 38 126 C 38 121.578125 34.421875 118 30 118 Z M 30 118 "/>
<path style=" stroke:none;fill-rule:nonzero;fill:rgb(93.333334%,24.313726%,32.941177%);fill-opacity:1;" d="M 50 170 C 47.789062 170 46 171.789062 46 174 C 46 176.210938 47.789062 178 50 178 C 52.210938 178 54 176.210938 54 174 C 54 171.789062 52.210938 170 50 170 Z M 50 170 "/>
<path style=" stroke:none;fill-rule:nonzero;fill:rgb(100%,100%,100%);fill-opacity:1;" d="M 37 88 C 34.242188 88 32 90.242188 32 93 C 32 95.757812 34.242188 98 37 98 C 39.757812 98 42 95.757812 42 93 C 42 90.242188 39.757812 88 37 88 Z M 37 88 "/>
<path style=" stroke:none;fill-rule:nonzero;fill:rgb(94.509804%,73.725492%,9.803922%);fill-opacity:1;" d="M 42 132 C 40.898438 132 40 132.898438 40 134 C 40 135.101562 40.898438 136 42 136 C 43.101562 136 44 135.101562 44 134 C 44 132.898438 43.101562 132 42 132 Z M 42 132 "/>
<path style=" stroke:none;fill-rule:nonzero;fill:rgb(100%,100%,100%);fill-opacity:1;" d="M 160 66 C 158.898438 66 158 66.898438 158 68 C 158 69.101562 158.898438 70 160 70 C 161.101562 70 162 69.101562 162 68 C 162 66.898438 161.101562 66 160 66 Z M 160 66 "/>
<path style=" stroke:none;fill-rule:nonzero;fill:rgb(63.529414%,70.19608%,79.607844%);fill-opacity:1;" d="M 140.277344 54.460938 C 133.582031 55.746094 127.722656 59.445312 124.273438 62.039062 C 117.121094 56.777344 108.664062 53.59375 100.511719 53.59375 C 92.078125 53.59375 83.503906 56.964844 76.351562 62.519531 C 73.015625 59.925781 66.851562 55.828125 59.722656 54.460938 C 49.011719 52.402344 53.296875 66.804688 57.578125 70.921875 C 61.308594 74.503906 58.554688 76.53125 62.007812 81.058594 C 59.464844 87.191406 58.378906 97.941406 59.355469 104.863281 C 61.40625 119.378906 68.210938 130.59375 77.058594 137.664062 C 77.382812 139.230469 77.878906 140.765625 78.574219 142.234375 C 84.085938 153.878906 91.464844 155.960938 99 156.222656 L 99 156.261719 C 99.335938 156.261719 99.664062 156.253906 100 156.246094 C 100.335938 156.253906 100.664062 156.261719 101 156.261719 L 101 156.222656 C 108.535156 155.960938 115.914062 153.878906 121.425781 142.234375 C 122.117188 140.777344 122.609375 139.257812 122.933594 137.707031 C 131.5 130.902344 138.78125 120.015625 141.660156 104.863281 C 143.070312 97.460938 141.851562 86.222656 138.875 79.714844 C 140.925781 76.089844 139.085938 74.125 142.421875 70.921875 C 146.703125 66.804688 150.988281 52.402344 140.277344 54.460938 Z M 140.277344 54.460938 "/>
<path style=" stroke:none;fill-rule:nonzero;fill:rgb(53.333336%,53.725493%,72.549021%);fill-opacity:1;" d="M 64.75 80.511719 C 64.75 80.511719 76.679688 66.707031 72.25 61.511719 C 66.5 54.761719 59.25 55.511719 57.25 56.011719 C 55.25 56.511719 54 57.511719 54.25 60.511719 C 54.5 63.511719 60.75 73.011719 60.75 73.011719 L 62.75 80.261719 Z M 64.75 80.511719 "/>
<path style=" stroke:none;fill-rule:nonzero;fill:rgb(53.333336%,53.725493%,72.549021%);fill-opacity:1;" d="M 136.21875 80.511719 C 136.21875 80.511719 124.289062 66.707031 128.71875 61.511719 C 134.46875 54.761719 141.71875 55.511719 143.71875 56.011719 C 145.71875 56.511719 146.96875 57.511719 146.71875 60.511719 C 146.46875 63.511719 140.21875 73.011719 140.21875 73.011719 L 138.21875 80.261719 Z M 136.21875 80.511719 "/>
<path style=" stroke:none;fill-rule:nonzero;fill:rgb(53.333336%,53.725493%,72.549021%);fill-opacity:1;" d="M 100 125.179688 L 113 121.09375 L 110.65625 109.484375 C 109.792969 105.207031 105.554688 100.410156 99.996094 100.269531 L 99.996094 100.261719 C 99.957031 100.261719 99.914062 100.265625 99.875 100.265625 C 99.832031 100.265625 99.789062 100.261719 99.746094 100.261719 L 99.746094 100.273438 C 94.300781 100.417969 90.144531 105.210938 89.296875 109.488281 L 87 121.09375 L 99.75 125.179688 L 99.75 125.257812 L 99.875 125.21875 L 100 125.261719 Z M 100 125.179688 "/>
<path style=" stroke:none;fill-rule:nonzero;fill:rgb(53.333336%,53.725493%,72.549021%);fill-opacity:1;" d="M 72 96.761719 C 71.5 92.261719 72.613281 86.445312 79.25 81.261719 C 86.089844 75.917969 85.5 81.011719 85 84.011719 C 84.5 87.011719 85 92.761719 86 94.761719 C 87 96.761719 89 102.011719 85.75 103.511719 C 82.5 105.011719 73.5 103.011719 72 96.761719 Z M 72 96.761719 "/>
<path style=" stroke:none;fill-rule:nonzero;fill:rgb(53.333336%,53.725493%,72.549021%);fill-opacity:1;" d="M 126.449219 117.207031 C 124 124.128906 125.074219 126.996094 120.085938 132.035156 C 114.210938 137.964844 109.820312 133.734375 112.253906 130.058594 C 115.238281 125.535156 106.75 121.511719 102.558594 119.511719 C 101.304688 118.910156 99.949219 118.910156 98.695312 119.511719 C 94.5 121.511719 85.015625 124.984375 88 129.511719 C 90.429688 133.1875 87.039062 137.96875 81.164062 132.035156 C 76.175781 126.996094 77.25 124.128906 74.800781 117.207031 C 72.355469 110.289062 65.5 112.265625 65.5 118.195312 C 65.5 124.125 69.414062 128.078125 77.25 135.988281 C 82.726562 152.578125 98.410156 155.414062 100.503906 155.722656 L 100.503906 155.757812 C 100.503906 155.757812 100.574219 155.746094 100.625 155.742188 C 100.675781 155.746094 100.746094 155.757812 100.746094 155.757812 L 100.746094 155.722656 C 102.84375 155.414062 118.523438 152.578125 124.003906 135.988281 C 131.835938 128.078125 135.753906 124.125 135.753906 118.195312 C 135.75 112.265625 128.894531 110.289062 126.449219 117.207031 Z M 126.449219 117.207031 "/>
<path style=" stroke:none;fill-rule:nonzero;fill:rgb(27.843139%,16.862746%,16.078432%);fill-opacity:1;" d="M 100.5 55.050781 C 107.792969 55.050781 115.828125 58.007812 123.128906 63.378906 L 124.804688 64.613281 L 126.46875 63.363281 C 129.988281 60.722656 135.480469 57.324219 141.660156 56.136719 C 142.195312 56.035156 142.679688 55.980469 143.105469 55.980469 C 144.554688 55.980469 144.78125 56.542969 144.933594 56.914062 C 146.011719 59.59375 143.734375 65.914062 141.382812 68.179688 C 138.714844 70.742188 138.402344 72.984375 138.152344 74.789062 C 138.003906 75.859375 137.886719 76.707031 137.265625 77.804688 L 136.5625 79.046875 L 137.15625 80.347656 C 139.964844 86.488281 142.078125 97.753906 140.75 104.726562 C 137.722656 120.628906 128.710938 130.628906 121.679688 136.214844 L 120.886719 136.847656 L 120.683594 137.839844 C 120.386719 139.242188 119.941406 140.589844 119.351562 141.835938 C 114.542969 151.996094 108.507812 154.253906 100.925781 154.519531 L 100.324219 154.550781 C 100.308594 154.550781 100.289062 154.550781 100.273438 154.550781 L 99.960938 154.539062 L 99.84375 154.542969 L 99.074219 154.515625 C 91.492188 154.25 85.457031 151.992188 80.648438 141.828125 C 80.054688 140.578125 79.605469 139.21875 79.3125 137.796875 L 79.109375 136.808594 L 78.316406 136.175781 C 67.941406 127.882812 60.726562 115.707031 59.019531 103.609375 C 58.023438 96.535156 62.019531 85.878906 63.785156 81.625 L 64.402344 80.132812 L 63.425781 78.851562 C 62.164062 77.203125 62.019531 76.136719 61.835938 74.785156 C 61.589844 72.984375 61.285156 70.742188 58.613281 68.175781 C 56.257812 65.914062 53.984375 59.59375 55.0625 56.910156 C 55.210938 56.539062 55.4375 55.976562 56.890625 55.976562 C 57.316406 55.976562 57.800781 56.03125 58.335938 56.132812 C 65.144531 57.441406 71.152344 61.511719 74.125 63.820312 L 75.84375 65.15625 L 77.558594 63.820312 C 84.855469 58.164062 93 55.050781 100.5 55.050781 M 100.5 52.25 C 91.886719 52.25 83.152344 55.945312 75.847656 61.613281 C 72.441406 58.96875 66.144531 54.785156 58.863281 53.386719 C 58.140625 53.246094 57.484375 53.183594 56.890625 53.183594 C 48.503906 53.183594 52.589844 66.273438 56.675781 70.199219 C 60.480469 73.855469 57.671875 75.925781 61.199219 80.550781 C 58.601562 86.8125 55.25 96.929688 56.246094 104 C 58.34375 118.824219 67.53125 131.136719 76.570312 138.363281 C 76.898438 139.960938 77.40625 141.527344 78.117188 143.027344 C 83.742188 154.921875 91.28125 157.046875 98.976562 157.3125 L 98.976562 157.351562 C 99.316406 157.351562 99.65625 157.347656 99.996094 157.339844 C 100.339844 157.34375 100.679688 157.351562 101.019531 157.351562 L 101.019531 157.3125 C 108.714844 157.046875 116.253906 154.921875 121.878906 143.027344 C 122.585938 141.539062 123.089844 139.988281 123.421875 138.40625 C 132.167969 131.453125 140.554688 120.722656 143.496094 105.25 C 144.9375 97.691406 142.738281 85.824219 139.703125 79.179688 C 141.792969 75.476562 139.914062 73.472656 143.320312 70.199219 C 147.40625 66.273438 151.492188 53.183594 143.105469 53.183594 C 142.511719 53.183594 141.859375 53.246094 141.132812 53.386719 C 134.296875 54.699219 128.3125 58.476562 124.789062 61.125 C 117.484375 55.75 108.828125 52.25 100.5 52.25 Z M 100.5 52.25 "/>
<path style=" stroke:none;fill-rule:nonzero;fill:rgb(27.843139%,16.862746%,16.078432%);fill-opacity:1;" d="M 73 94.261719 C 73 94.261719 73 90.261719 83 94.261719 C 85 98.261719 85 102.261719 85 102.261719 C 85 102.261719 75 104.261719 73 94.261719 Z M 73 94.261719 "/>
<path style=" stroke:none;fill-rule:nonzero;fill:rgb(27.843139%,16.862746%,16.078432%);fill-opacity:1;" d="M 112.414062 146.273438 C 110.816406 146.273438 109.640625 146.011719 109.527344 145.984375 C 106.609375 145.3125 103.984375 143.800781 101.203125 142.203125 L 100.265625 141.671875 C 99.066406 142.363281 95.894531 144.003906 90.992188 145.230469 C 84.539062 146.84375 78.5625 141.222656 78.308594 140.980469 L 79.691406 139.535156 C 79.746094 139.589844 85.132812 144.636719 90.511719 143.289062 C 96.378906 141.820312 99.671875 139.695312 99.703125 139.675781 C 100.015625 139.46875 100.417969 139.457031 100.742188 139.640625 L 102.199219 140.472656 C 104.964844 142.058594 107.351562 143.429688 109.976562 144.035156 C 110.03125 144.046875 115.894531 145.328125 118.710938 141.652344 L 120.296875 142.867188 C 118.136719 145.6875 114.800781 146.273438 112.414062 146.273438 Z M 112.414062 146.273438 "/>
<path style=" stroke:none;fill-rule:nonzero;fill:rgb(98.431373%,80.392158%,34.901962%);fill-opacity:1;" d="M 83 94.261719 C 79.554688 92.882812 77.316406 92.464844 75.839844 92.496094 C 75.308594 93.289062 75 94.238281 75 95.261719 C 75 98.023438 77.238281 100.261719 80 100.261719 C 81.839844 100.261719 83.425781 99.257812 84.296875 97.78125 C 84.003906 96.675781 83.609375 95.480469 83 94.261719 Z M 83 94.261719 "/>
<path style=" stroke:none;fill-rule:nonzero;fill:rgb(51.372552%,43.529412%,38.039216%);fill-opacity:1;" d="M 109.980469 127.980469 L 100 135.261719 L 90.019531 127.980469 C 88.75 127.054688 88 125.582031 88 124.011719 L 88 121.261719 C 96.25 124 104 123.5 112 121.261719 L 112 124.011719 C 112 125.582031 111.25 127.054688 109.980469 127.980469 Z M 109.980469 127.980469 "/>
<path style=" stroke:none;fill-rule:nonzero;fill:rgb(27.843139%,16.862746%,16.078432%);fill-opacity:1;" d="M 100 136.261719 C 99.792969 136.261719 99.585938 136.195312 99.410156 136.066406 L 89.429688 128.789062 C 87.910156 127.679688 87.003906 125.894531 87.003906 124.015625 L 87.003906 121.261719 C 87.003906 120.9375 87.15625 120.636719 87.417969 120.449219 C 87.679688 120.261719 88.011719 120.207031 88.316406 120.308594 C 95.609375 122.730469 103.050781 122.726562 111.734375 120.296875 C 112.035156 120.210938 112.359375 120.273438 112.609375 120.460938 C 112.859375 120.652344 113.003906 120.945312 113.003906 121.257812 L 113.003906 124.011719 C 113.003906 125.890625 112.097656 127.679688 110.574219 128.785156 L 100.59375 136.0625 C 100.414062 136.195312 100.207031 136.261719 100 136.261719 Z M 89 122.621094 L 89 124.011719 C 89 125.257812 89.601562 126.4375 90.605469 127.171875 L 100 134.023438 L 109.394531 127.171875 C 110.398438 126.4375 111 125.257812 111 124.011719 L 111 122.5625 C 102.960938 124.628906 95.90625 124.648438 89 122.621094 Z M 109.980469 127.980469 L 110.003906 127.980469 Z M 109.980469 127.980469 "/>
<path style=" stroke:none;fill-rule:nonzero;fill:rgb(27.843139%,16.862746%,16.078432%);fill-opacity:1;" d="M 89.449219 128.484375 C 86.699219 126.378906 90.460938 121.265625 93.84375 126.640625 C 96.886719 131.480469 96.867188 134.011719 96.867188 134.011719 Z M 89.449219 128.484375 "/>
<path style=" stroke:none;fill-rule:nonzero;fill:rgb(27.843139%,16.862746%,16.078432%);fill-opacity:1;" d="M 110.332031 128.484375 C 112.992188 126.378906 109.351562 121.265625 106.070312 126.640625 C 103.121094 131.480469 103.144531 134.011719 103.144531 134.011719 Z M 110.332031 128.484375 "/>
<path style=" stroke:none;fill-rule:nonzero;fill:rgb(27.843139%,16.862746%,16.078432%);fill-opacity:1;" d="M 78.25 132.261719 C 78.039062 132.261719 77.839844 132.121094 77.773438 131.90625 C 76.542969 127.960938 76.964844 123.222656 79.019531 117.828125 C 79.117188 117.570312 79.410156 117.445312 79.664062 117.539062 C 79.921875 117.636719 80.050781 117.929688 79.953125 118.1875 C 77.980469 123.363281 77.566406 127.882812 78.726562 131.609375 C 78.808594 131.875 78.660156 132.152344 78.398438 132.234375 C 78.347656 132.253906 78.296875 132.261719 78.25 132.261719 Z M 78.25 132.261719 "/>
<path style=" stroke:none;fill-rule:nonzero;fill:rgb(27.843139%,16.862746%,16.078432%);fill-opacity:1;" d="M 81.136719 114.761719 C 81.058594 114.761719 80.984375 114.742188 80.914062 114.707031 C 80.664062 114.585938 80.566406 114.285156 80.6875 114.039062 C 82.757812 109.871094 85.101562 106.691406 85.707031 105.894531 C 85.476562 104.921875 84.507812 100.921875 82.824219 94.605469 C 75.183594 90.753906 71.742188 93.976562 71.601562 94.117188 C 71.402344 94.308594 71.089844 94.304688 70.894531 94.113281 C 70.703125 93.914062 70.703125 93.601562 70.894531 93.40625 C 71.0625 93.242188 75.003906 89.449219 83.476562 93.816406 C 83.605469 93.878906 83.695312 93.996094 83.730469 94.132812 C 85.710938 101.554688 86.726562 105.855469 86.734375 105.894531 C 86.769531 106.042969 86.734375 106.203125 86.640625 106.320312 C 86.613281 106.355469 83.921875 109.773438 81.585938 114.484375 C 81.496094 114.65625 81.320312 114.761719 81.136719 114.761719 Z M 81.136719 114.761719 "/>
<path style=" stroke:none;fill-rule:nonzero;fill:rgb(53.333336%,53.725493%,72.549021%);fill-opacity:1;" d="M 127.75 96.761719 C 128.25 92.261719 127.136719 86.445312 120.5 81.261719 C 113.660156 75.917969 114.25 81.011719 114.75 84.011719 C 115.25 87.011719 114.75 92.761719 113.75 94.761719 C 112.75 96.761719 110.75 102.011719 114 103.511719 C 117.25 105.011719 126.25 103.011719 127.75 96.761719 Z M 127.75 96.761719 "/>
<path style=" stroke:none;fill-rule:nonzero;fill:rgb(27.843139%,16.862746%,16.078432%);fill-opacity:1;" d="M 126.75 94.261719 C 126.75 94.261719 126.75 90.261719 116.75 94.261719 C 114.75 98.261719 114.75 102.261719 114.75 102.261719 C 114.75 102.261719 124.75 104.261719 126.75 94.261719 Z M 126.75 94.261719 "/>
<path style=" stroke:none;fill-rule:nonzero;fill:rgb(98.431373%,80.392158%,34.901962%);fill-opacity:1;" d="M 116.75 94.261719 C 120.195312 92.882812 122.433594 92.464844 123.910156 92.496094 C 124.441406 93.289062 124.75 94.238281 124.75 95.261719 C 124.75 98.023438 122.511719 100.261719 119.75 100.261719 C 117.910156 100.261719 116.324219 99.257812 115.453125 97.78125 C 115.746094 96.675781 116.140625 95.480469 116.75 94.261719 Z M 116.75 94.261719 "/>
<path style=" stroke:none;fill-rule:nonzero;fill:rgb(27.843139%,16.862746%,16.078432%);fill-opacity:1;" d="M 121.5 132.261719 C 121.453125 132.261719 121.402344 132.253906 121.351562 132.238281 C 121.089844 132.15625 120.941406 131.875 121.023438 131.613281 C 121.714844 129.390625 121.84375 126.859375 121.410156 124.089844 C 121.371094 123.816406 121.554688 123.558594 121.828125 123.515625 C 122.101562 123.476562 122.359375 123.660156 122.398438 123.933594 C 122.855469 126.859375 122.710938 129.542969 121.976562 131.910156 C 121.910156 132.121094 121.710938 132.261719 121.5 132.261719 Z M 121.5 132.261719 "/>
<path style=" stroke:none;fill-rule:nonzero;fill:rgb(27.843139%,16.862746%,16.078432%);fill-opacity:1;" d="M 121.035156 120.761719 C 120.820312 120.761719 120.621094 120.621094 120.558594 120.40625 C 120.101562 118.898438 119.492188 117.320312 118.757812 115.71875 C 118.640625 115.46875 118.753906 115.171875 119.003906 115.054688 C 119.253906 114.941406 119.550781 115.050781 119.667969 115.300781 C 120.425781 116.945312 121.042969 118.5625 121.515625 120.117188 C 121.597656 120.378906 121.445312 120.660156 121.183594 120.738281 C 121.132812 120.753906 121.085938 120.761719 121.035156 120.761719 Z M 121.035156 120.761719 "/>
<path style=" stroke:none;fill-rule:nonzero;fill:rgb(27.843139%,16.862746%,16.078432%);fill-opacity:1;" d="M 117.835938 113.257812 C 117.65625 113.257812 117.484375 113.164062 117.394531 112.996094 C 115.277344 109.070312 113.128906 106.347656 113.109375 106.320312 C 113.015625 106.199219 112.976562 106.042969 113.015625 105.894531 C 113.023438 105.851562 114.039062 101.550781 116.015625 94.128906 C 116.054688 93.992188 116.144531 93.878906 116.269531 93.8125 C 124.746094 89.449219 128.6875 93.238281 128.851562 93.40625 C 129.046875 93.601562 129.046875 93.917969 128.851562 94.113281 C 128.65625 94.308594 128.34375 94.308594 128.144531 94.117188 C 127.992188 93.96875 124.558594 90.757812 116.925781 94.605469 C 115.242188 100.921875 114.273438 104.921875 114.039062 105.894531 C 114.570312 106.59375 116.4375 109.121094 118.273438 112.523438 C 118.402344 112.769531 118.3125 113.070312 118.070312 113.203125 C 117.996094 113.238281 117.914062 113.257812 117.835938 113.257812 Z M 117.835938 113.257812 "/>
<path style=" stroke:none;fill-rule:nonzero;fill:rgb(27.843139%,16.862746%,16.078432%);fill-opacity:1;" d="M 79 94.261719 C 79 95.363281 79.894531 96.261719 81 96.261719 C 82.105469 96.261719 83 95.363281 83 94.261719 C 81.617188 93.707031 80.457031 93.328125 79.441406 93.058594 C 79.183594 93.394531 79 93.800781 79 94.261719 Z M 79 94.261719 "/>
<path style=" stroke:none;fill-rule:nonzero;fill:rgb(27.843139%,16.862746%,16.078432%);fill-opacity:1;" d="M 117.019531 94.160156 C 117.019531 94.195312 117 94.222656 117 94.261719 C 117 95.363281 117.894531 96.261719 119 96.261719 C 120.105469 96.261719 121 95.363281 121 94.261719 C 121 93.773438 120.804688 93.34375 120.515625 92.996094 C 119.527344 93.253906 118.367188 93.628906 117.019531 94.160156 Z M 117.019531 94.160156 "/>
<path style=" stroke:none;fill-rule:nonzero;fill:rgb(27.843139%,16.862746%,16.078432%);fill-opacity:1;" d="M 68 76.011719 C 67.886719 76.011719 67.773438 75.992188 67.664062 75.953125 C 67.144531 75.765625 66.871094 75.195312 67.058594 74.675781 C 68.253906 71.332031 67.925781 68.363281 66.09375 65.851562 C 65.765625 65.402344 65.863281 64.777344 66.308594 64.453125 C 66.757812 64.125 67.382812 64.222656 67.707031 64.671875 C 69.957031 67.75 70.371094 71.34375 68.941406 75.347656 C 68.796875 75.753906 68.410156 76.011719 68 76.011719 Z M 68 76.011719 "/>
<path style=" stroke:none;fill-rule:nonzero;fill:rgb(27.843139%,16.862746%,16.078432%);fill-opacity:1;" d="M 64.113281 63.511719 C 63.90625 63.511719 63.699219 63.445312 63.519531 63.316406 C 61.78125 62.035156 60.183594 61.460938 60.164062 61.453125 C 59.644531 61.269531 59.375 60.699219 59.558594 60.175781 C 59.742188 59.65625 60.3125 59.382812 60.835938 59.566406 C 60.910156 59.597656 62.730469 60.25 64.707031 61.703125 C 65.152344 62.03125 65.246094 62.65625 64.917969 63.101562 C 64.722656 63.367188 64.417969 63.511719 64.113281 63.511719 Z M 64.113281 63.511719 "/>
<path style=" stroke:none;fill-rule:nonzero;fill:rgb(27.843139%,16.862746%,16.078432%);fill-opacity:1;" d="M 132 76.011719 C 131.589844 76.011719 131.203125 75.757812 131.058594 75.347656 C 129.902344 72.113281 129.960938 69.121094 131.226562 66.449219 C 133.519531 61.621094 138.9375 59.648438 139.164062 59.566406 C 139.683594 59.382812 140.253906 59.652344 140.441406 60.175781 C 140.625 60.695312 140.355469 61.265625 139.835938 61.453125 C 139.414062 61.605469 129.578125 65.257812 132.941406 74.675781 C 133.125 75.195312 132.855469 75.765625 132.335938 75.953125 C 132.226562 75.988281 132.113281 76.011719 132 76.011719 Z M 132 76.011719 "/>
<path style=" stroke:none;fill-rule:nonzero;fill:rgb(27.843139%,16.862746%,16.078432%);fill-opacity:1;" d="M 63.25 140.511719 C 63.148438 140.511719 63.050781 140.480469 62.960938 140.421875 C 62.734375 140.261719 62.679688 139.949219 62.839844 139.722656 C 68.15625 132.128906 80.179688 130.574219 80.6875 130.515625 C 80.953125 130.480469 81.210938 130.675781 81.242188 130.949219 C 81.277344 131.222656 81.082031 131.472656 80.808594 131.507812 C 80.6875 131.523438 68.714844 133.070312 63.65625 140.296875 C 63.5625 140.4375 63.40625 140.511719 63.25 140.511719 Z M 63.25 140.511719 "/>
<path style=" stroke:none;fill-rule:nonzero;fill:rgb(27.843139%,16.862746%,16.078432%);fill-opacity:1;" d="M 67 145.011719 C 66.914062 145.011719 66.835938 144.988281 66.757812 144.945312 C 66.515625 144.8125 66.429688 144.507812 66.5625 144.265625 C 71.378906 135.652344 82.695312 133.839844 83.175781 133.765625 C 83.449219 133.726562 83.703125 133.910156 83.746094 134.183594 C 83.789062 134.457031 83.601562 134.710938 83.328125 134.753906 C 83.214844 134.773438 72.011719 136.570312 67.441406 144.753906 C 67.34375 144.914062 67.175781 145.011719 67 145.011719 Z M 67 145.011719 "/>
<path style=" stroke:none;fill-rule:nonzero;fill:rgb(27.843139%,16.862746%,16.078432%);fill-opacity:1;" d="M 71 146.761719 C 70.898438 146.761719 70.800781 146.730469 70.710938 146.671875 C 70.484375 146.511719 70.429688 146.199219 70.589844 145.972656 C 75.894531 138.390625 86.703125 136.351562 87.160156 136.269531 C 87.425781 136.21875 87.691406 136.398438 87.742188 136.671875 C 87.789062 136.941406 87.613281 137.203125 87.339844 137.253906 C 87.230469 137.273438 76.476562 139.304688 71.410156 146.546875 C 71.3125 146.6875 71.15625 146.761719 71 146.761719 Z M 71 146.761719 "/>
<path style=" stroke:none;fill-rule:nonzero;fill:rgb(27.843139%,16.862746%,16.078432%);fill-opacity:1;" d="M 136.5 140.761719 C 136.34375 140.761719 136.1875 140.6875 136.089844 140.546875 C 131.03125 133.320312 119.058594 131.769531 118.9375 131.757812 C 118.664062 131.722656 118.46875 131.472656 118.503906 131.199219 C 118.535156 130.925781 118.796875 130.730469 119.058594 130.761719 C 119.566406 130.824219 131.589844 132.375 136.90625 139.972656 C 137.066406 140.199219 137.011719 140.511719 136.785156 140.667969 C 136.699219 140.730469 136.601562 140.761719 136.5 140.761719 Z M 136.5 140.761719 "/>
<path style=" stroke:none;fill-rule:nonzero;fill:rgb(27.843139%,16.862746%,16.078432%);fill-opacity:1;" d="M 132.75 145.261719 C 132.574219 145.261719 132.40625 145.167969 132.3125 145.003906 C 127.742188 136.820312 116.539062 135.023438 116.425781 135.003906 C 116.152344 134.960938 115.964844 134.707031 116.007812 134.433594 C 116.050781 134.160156 116.308594 133.976562 116.578125 134.015625 C 117.058594 134.089844 128.375 135.902344 133.191406 144.515625 C 133.324219 144.757812 133.238281 145.0625 132.996094 145.195312 C 132.914062 145.238281 132.835938 145.261719 132.75 145.261719 Z M 132.75 145.261719 "/>
<path style=" stroke:none;fill-rule:nonzero;fill:rgb(27.843139%,16.862746%,16.078432%);fill-opacity:1;" d="M 128.75 147.011719 C 128.59375 147.011719 128.4375 146.9375 128.339844 146.796875 C 123.265625 139.546875 112.519531 137.519531 112.410156 137.503906 C 112.136719 137.453125 111.957031 137.191406 112.007812 136.921875 C 112.054688 136.648438 112.320312 136.46875 112.589844 136.519531 C 113.046875 136.601562 123.851562 138.640625 129.160156 146.222656 C 129.320312 146.449219 129.265625 146.761719 129.039062 146.921875 C 128.949219 146.980469 128.851562 147.011719 128.75 147.011719 Z M 128.75 147.011719 "/>
</g>
</svg>
