<svg xmlns="http://www.w3.org/2000/svg"  viewBox="0 0 100 100" width="200px" height="200px"><path fill="#78a0cf" d="M13 27A2 2 0 1 0 13 31A2 2 0 1 0 13 27Z"/><path fill="#f1bc19" d="M77 12A1 1 0 1 0 77 14A1 1 0 1 0 77 12Z"/><path fill="#cee1f4" d="M50 13A37 37 0 1 0 50 87A37 37 0 1 0 50 13Z"/><path fill="#f1bc19" d="M83 11A4 4 0 1 0 83 19A4 4 0 1 0 83 11Z"/><path fill="#78a0cf" d="M87 22A2 2 0 1 0 87 26A2 2 0 1 0 87 22Z"/><path fill="#fbcd59" d="M81 74A2 2 0 1 0 81 78 2 2 0 1 0 81 74zM15 59A4 4 0 1 0 15 67 4 4 0 1 0 15 59z"/><path fill="#78a0cf" d="M25 85A2 2 0 1 0 25 89A2 2 0 1 0 25 85Z"/><path fill="#fff" d="M18.5 51A2.5 2.5 0 1 0 18.5 56A2.5 2.5 0 1 0 18.5 51Z"/><path fill="#f1bc19" d="M21 66A1 1 0 1 0 21 68A1 1 0 1 0 21 66Z"/><path fill="#fff" d="M80 33A1 1 0 1 0 80 35A1 1 0 1 0 80 33Z"/><g><path fill="#3678ba" d="M59.576,25.794c-5.139,0.234-9.727,1.433-13.133,3.452l-0.22-0.147 c-7.556-5.963-15.66-0.259-14.852,0.805c0.883,1.161,4.916,0.375,7.442,6.964c-6.976,11.122-6.526,26.82-5.837,27.727 c0.024,0.031,0.009,0.072,0.027,0.107l2.545,5.019c0.098,0.196,0.374,0.202,0.472,0.006c0.621-1.241,2.27-4.54,2.446-4.893 c0.011-0.023,0.018-0.044,0.022-0.07c2.106-13.262,8.915-18.559,14.982-20.585l0.63-0.844c-0.229,3.25-1.78,6.57-2.137,7.102 c-0.749,1.115,1.741,0.578,3.012,0.125c4.685-1.667,6.946-4.513,7.975-7.61l0.195,0.162c0.97-0.007,1.78-0.019,1.968-0.019 c8.997,0,13.772,0.137,13.813-4.806C78.954,34.792,74.802,25.102,59.576,25.794z"/><path fill="#c5def0" d="M63.697 39.727c-.107 1.279-.316 2.568-.68 3.823 0 0 13.471 1.399 15.983-3.823C78.286 39.727 71.339 39.727 63.697 39.727zM54.073 39.739c-.073 0-5.14-.396-9.793 1.971-10.375 5.276-4.69 7.459-4.592 7.59-3.556 3.556-5.649 11.556-6.19 15.024.057.357 2.061 5.828 2.061 5.828s1.786-2.518 2.791-5.995c2.08-7.188 6.195-18.474 16.238-20.07C54.622 42.188 54.563 39.739 54.073 39.739z"/><path fill="#3678ba" d="M33.089 64.804c0 0-8.089 2.696-8.089 8.089 0 0 .79 1.906 2.696 0 1.348-1.348 8.089 0 8.089-2.696L33.089 64.804zM38.481 64.804l-2.696 5.393c0 2.696 6.741 1.348 8.089 2.696 0 .743.605 1.348 1.348 1.348.743 0 1.348-.605 1.348-1.348C46.57 67.5 38.481 64.804 38.481 64.804z"/><path fill="#472b29" d="M33.622 65.84c-.005 0-.01 0-.015 0-.138-.008-.243-.126-.235-.264.104-1.777.501-3.882 1.145-6.088.039-.132.18-.208.311-.169.132.039.208.177.17.31-.634 2.17-1.023 4.237-1.125 5.977C33.864 65.737 33.754 65.84 33.622 65.84zM35.541 57.414c-.028 0-.057-.005-.085-.015-.13-.047-.197-.19-.15-.32.307-.845.644-1.679 1-2.479.057-.126.204-.183.33-.126.126.057.183.204.127.331-.353.788-.684 1.611-.986 2.445C35.739 57.351 35.644 57.414 35.541 57.414zM37.233 53.487c-.038 0-.077-.009-.113-.027-.123-.063-.172-.213-.109-.336.846-1.655 1.688-2.906 2.458-3.655-.878-.341-1.45-.867-1.668-1.537-.432-1.337 2.015-4.205 6.218-6.183.124-.057.273-.005.333.12.059.125.005.274-.12.333-4.11 1.934-6.272 4.595-5.954 5.576.248.766 1.088 1.158 1.748 1.353.09.026.157.1.175.191.019.091-.016.185-.089.244-.789.635-1.732 1.98-2.655 3.787C37.412 53.437 37.324 53.487 37.233 53.487zM46.521 41.273c-.105 0-.203-.067-.237-.172-.043-.131.028-.272.159-.316 1.341-.439 2.729-.746 4.124-.91.134-.024.262.082.277.219.017.137-.082.261-.219.277-1.363.161-2.718.46-4.026.89C46.573 41.27 46.547 41.273 46.521 41.273z"/><path fill="#c5def0" d="M69.5 32.5A3 1.5 0 1 0 69.5 35.5A3 1.5 0 1 0 69.5 32.5Z"/><path fill="#472b29" d="M69.5 35.75c-1.822 0-3.25-.769-3.25-1.75s1.428-1.75 3.25-1.75 3.25.769 3.25 1.75S71.322 35.75 69.5 35.75zM69.5 32.75c-1.621 0-2.75.659-2.75 1.25s1.129 1.25 2.75 1.25 2.75-.659 2.75-1.25S71.121 32.75 69.5 32.75zM78.5 39.75h-3c-.138 0-.25-.112-.25-.25s.112-.25.25-.25h3c.138 0 .25.112.25.25S78.638 39.75 78.5 39.75zM73.5 39.75h-10c-.138 0-.25-.112-.25-.25s.112-.25.25-.25h10c.138 0 .25.112.25.25S73.638 39.75 73.5 39.75z"/><path fill="#472b29" d="M75.563,30.068c-2.578-2.484-7.439-5.355-16.02-4.973c-5.103,0.232-9.598,1.388-13.06,3.333 c-6.315-4.842-12.989-2.123-15.108-0.077c-1.036,1-0.797,1.667-0.563,1.976c0.373,0.491,0.986,0.706,1.696,0.956 c1.532,0.538,3.826,1.355,5.522,5.526c-6.216,10.184-6.608,24.31-5.846,27.586c-2.026,0.808-7.886,3.568-7.886,8.497v0.139 l0.054,0.129c0.044,0.107,0.461,1.049,1.449,1.245c0.116,0.023,0.233,0.035,0.352,0.035c0.653,0,1.337-0.353,2.037-1.053 c0.361-0.362,1.848-0.47,3.042-0.556c1.635-0.118,3.547-0.26,4.552-1.102c1.005,0.843,2.916,0.984,4.551,1.102 c1.056,0.077,2.339,0.169,2.873,0.439c0.178,0.949,1.013,1.67,2.013,1.67c1.13,0,2.049-0.919,2.049-2.048 c0-5.019-6.079-7.791-7.996-8.541c1.708-9.947,6.493-16.6,13.875-19.304c-0.465,2.344-1.405,4.46-1.768,5 c-0.453,0.674-0.194,1.143-0.062,1.313c0.247,0.318,0.7,0.432,1.223,0.432c0.924,0,2.064-0.356,2.666-0.57 c4.096-1.457,6.793-3.907,8.159-7.409l2.451-0.017c8.586,0.001,13.761,0.005,13.807-5.5C79.643,36.166,78.394,32.795,75.563,30.068 z M31.133,71.435c-1.718,0.125-3.201,0.232-3.932,0.962c-0.452,0.451-0.863,0.681-1.121,0.636 c-0.165-0.031-0.302-0.191-0.377-0.309c0.143-3.921,5.257-6.321,7.017-7.033l2.133,4.207l0.216,0.432 C34.872,71.165,32.808,71.314,31.133,71.435z M45.87,72.893c0,0.357-0.291,0.648-0.648,0.648s-0.647-0.291-0.647-0.648v-0.29 l-0.205-0.205c-0.73-0.73-2.214-0.838-3.932-0.962c-1.675-0.121-3.739-0.271-3.937-1.104l0.886-1.772 c0.474-0.948,1.013-2.025,1.359-2.717l0.08-0.159C40.589,66.392,45.87,68.856,45.87,72.893z M65.82,42.397l-0.708,0l-1.275,0.012 c0.394-1.456,0.592-3.07,0.592-4.848c0-0.387-0.313-0.7-0.7-0.7s-0.7,0.313-0.7,0.7c0,6.41-2.634,10.332-8.288,12.344 c-0.692,0.246-1.44,0.415-1.941,0.474c1.039-2.018,3.842-9.13,0.313-12.625c-0.273-0.272-0.718-0.27-0.989,0.005 c-0.272,0.275-0.271,0.718,0.005,0.99c1.15,1.139,1.403,2.926,1.244,4.751c-0.041,0.006-0.082,0.002-0.123,0.015 c-5.816,1.943-13.212,7.177-15.441,21.073c-0.029,0.058-0.072,0.143-0.123,0.247l-1.074,2.149 c-0.286,0.571-0.577,1.154-0.824,1.647l-2.236-4.472c-0.473-1.534-0.806-16.137,5.76-26.758c1.045-1.537,2.275-3.034,3.582-4.343 c0.098-0.098,0.098-0.256,0-0.354c-0.098-0.099-0.256-0.097-0.354,0c-1.13,1.132-2.202,2.402-3.152,3.717 c-1.936-4.879-4.73-5.87-6.41-6.46c-0.325-0.114-0.659-0.231-0.866-0.346c0.358-0.465,1.605-1.445,3.612-2.042 c2.067-0.616,6.148-1.144,10.262,2.223c0.005,0.004,0.011,0.005,0.016,0.009c0.014,0.011,0.03,0.016,0.045,0.024 c-0.5,0.35-0.999,0.732-1.495,1.145c-0.105,0.088-0.12,0.246-0.032,0.352c0.05,0.059,0.121,0.09,0.192,0.09 c0.057,0,0.113-0.019,0.16-0.058c0.978-0.814,1.969-1.507,2.944-2.057c0.002-0.001,0.001-0.003,0.003-0.004 c3.181-1.627,7.223-2.596,11.792-2.804c8.07-0.364,12.604,2.29,14.983,4.583c2.898,2.792,3.645,5.936,3.634,7.208 C78.193,42.203,75.03,42.417,65.82,42.397z"/><path fill="#472b29" d="M56.552,47.856c-0.087,0-0.173-0.046-0.218-0.128c-0.067-0.121-0.024-0.273,0.096-0.34 c0.992-0.555,1.865-1.27,2.594-2.125c0.091-0.105,0.249-0.117,0.353-0.028c0.105,0.09,0.118,0.248,0.028,0.353 c-0.768,0.9-1.686,1.653-2.73,2.237C56.635,47.846,56.594,47.856,56.552,47.856z"/><g><path fill="#472b29" d="M60.324,44.083c-0.042,0-0.084-0.01-0.123-0.033c-0.12-0.068-0.162-0.22-0.095-0.34 c0.225-0.396,0.428-0.814,0.604-1.243c0.053-0.128,0.199-0.19,0.327-0.136c0.127,0.052,0.188,0.199,0.136,0.326 c-0.185,0.448-0.397,0.885-0.632,1.299C60.496,44.038,60.411,44.083,60.324,44.083z"/></g></g></svg>